<svg width="296" height="654" fill="none" xmlns="http://www.w3.org/2000/svg"><path d="M289.412 350.169c-2.786-.348-4.876-2.787-4.876-5.574.348-2.788 2.438-5.227 5.572-4.878 2.786 0 5.224 2.439 4.876 5.574 0 3.136-2.438 5.227-5.572 4.878zm-3.138 28.223c-2.786-.348-4.875-3.136-4.527-5.923.348-2.788 3.134-4.878 5.92-4.53 2.787.349 4.876 3.136 4.528 5.924-.348 2.787-2.786 4.878-5.921 4.529zm-5.571 27.178c-2.786-.697-4.527-3.485-3.831-6.272.697-2.788 3.483-4.53 6.269-3.833 2.786.697 4.528 3.484 3.831 6.272-.697 2.787-3.483 4.878-6.269 3.833zm-8.007 27.177c-2.786-1.045-4.179-3.833-3.134-6.62 1.044-2.788 3.831-4.182 6.617-3.485 2.786.697 4.179 3.833 3.134 6.621-1.045 2.787-3.831 4.181-6.617 3.484zm-10.448 26.132c-2.786-1.045-3.831-4.181-2.786-6.968 1.045-2.439 4.179-3.833 6.965-2.788 2.786 1.045 4.179 4.181 2.786 6.969-1.045 2.439-4.179 3.832-6.965 2.787zm-12.539 25.087c-2.437-1.394-3.482-4.53-2.089-6.969 1.393-2.439 4.527-3.484 6.965-2.09 2.438 1.393 3.483 4.529 2.09 7.317-1.045 2.09-4.528 3.135-6.966 1.742zm-14.627 23.693c-2.438-1.742-3.134-4.878-1.393-7.317 1.393-2.439 4.876-3.136 7.313-1.394 2.438 1.394 3.135 4.878 1.394 7.317-1.742 2.439-4.876 3.136-7.314 1.394zm-16.717 22.647c-2.089-1.742-2.786-5.226-.696-7.317 1.741-2.09 5.224-2.787 7.314-1.045 2.437 1.742 2.786 4.878.696 7.317-2.089 2.439-5.224 2.788-7.314 1.045zm-18.806 20.906c-2.089-2.09-2.09-5.226-.348-7.317 1.741-2.09 5.224-2.09 7.313-.348 2.09 2.09 2.09 5.226.348 7.317-2.089 2.09-5.223 2.439-7.313.348zm-20.545 19.164c-1.742-2.091-1.742-5.575.348-7.317 2.089-1.742 5.572-1.742 7.313.348 2.09 2.091 1.742 5.575-.348 7.317-2.09 2.091-5.224 2.091-7.313-.348zm-21.942 17.421c-1.741-2.439-1.045-5.575 1.045-7.317 2.089-1.742 5.572-1.394 7.313 1.045 1.741 2.439 1.393 5.575-1.045 7.317-2.089 2.091-5.572 1.394-7.313-1.045zm-23.332 15.679c-1.393-2.439-.696-5.574 1.742-7.316 2.437-1.394 5.571-.697 7.313 1.742 1.741 2.439.696 5.574-1.742 7.317-2.437 1.393-5.92.696-7.313-1.743zm-24.728 13.241c-1.393-2.439-.349-5.924 2.438-6.969 2.437-1.394 5.572-.348 6.965 2.439 1.393 2.439.348 5.575-2.438 6.969-2.438 1.393-5.572.348-6.965-2.439zm-25.768 11.149c-1.045-2.787.348-5.575 2.786-6.62 2.786-1.045 5.572.349 6.965 2.788 1.045 2.787-.348 5.574-2.786 6.62-2.786 1.393-5.92 0-6.965-2.788zm-26.816 8.711c-.697-2.787.696-5.575 3.482-6.62 2.786-.697 5.572.697 6.617 3.484 1.045 2.788-.696 5.924-3.483 6.62-2.786 1.046-5.572-.696-6.616-3.484zm-27.166 6.62c-.697-2.787 1.393-5.575 4.18-5.923 2.785-.697 5.571 1.045 6.268 3.833.697 2.787-1.045 5.574-4.18 6.271-2.785.697-5.572-1.393-6.268-4.181zm-27.859 4.184c-.348-2.787 1.741-5.574 4.528-5.923 2.786-.348 5.572 1.742 5.92 4.53.348 2.787-1.741 5.575-4.527 5.923-2.786.348-5.573-1.742-5.92-4.53zM19.858 9.06c-.349 2.787-3.135 4.877-5.92 4.529-2.787-.349-4.876-3.136-4.528-5.923.348-2.788 3.134-4.878 5.92-4.53 3.135.348 4.876 3.136 4.528 5.923zm27.513 5.922c-.697 2.788-3.482 4.53-6.268 3.833-2.786-.697-4.528-3.484-3.831-6.272.696-2.787 3.482-4.53 6.268-3.832 2.786.348 4.528 3.484 3.831 6.271zm26.817 8.014c-1.045 2.788-3.83 4.181-6.617 3.136-2.786-1.045-4.179-3.833-3.482-6.62.696-2.787 3.83-4.181 6.616-3.136 3.135.697 4.528 3.833 3.483 6.62zm26.12 10.454c-1.045 2.787-4.179 3.832-6.965 2.786-2.438-1.045-3.83-4.18-2.786-6.968 1.045-2.787 4.179-4.181 6.965-2.787 2.786 1.045 4.179 4.18 2.786 6.968zm25.073 12.543c-1.393 2.439-4.528 3.484-6.965 2.09-2.438-1.393-3.483-4.53-2.09-6.968 1.393-2.44 4.527-3.485 7.314-2.09 2.437 1.044 3.134 4.529 1.741 6.968zm24.029 14.633c-1.741 2.44-4.876 3.136-7.313 1.394-2.438-1.394-3.135-4.878-1.393-7.317 1.393-2.439 4.875-3.136 7.313-1.394 2.438 1.742 3.134 4.878 1.393 7.317zm22.29 16.725c-1.742 2.09-5.224 2.787-7.314.697-2.089-1.742-2.786-5.227-1.045-7.317 1.742-2.439 4.876-2.787 7.314-.697 2.786 1.742 3.134 5.227 1.045 7.317zm21.243 18.815c-2.09 2.09-5.224 2.09-7.314.349-2.089-1.743-2.089-5.227-.348-7.317 2.09-2.091 5.224-2.091 7.313-.349 2.09 1.742 2.09 5.227.349 7.317zm19.154 20.209c-2.089 1.742-5.572 1.742-7.313-.349-1.741-2.09-1.741-5.575.348-7.317 2.09-2.09 5.572-1.742 7.314.349 2.089 2.09 1.741 5.574-.349 7.317zm17.412 22.299c-2.438 1.742-5.572 1.045-7.313-1.045-1.742-2.091-1.393-5.575 1.044-7.317 2.438-1.742 5.573-1.394 7.314 1.045 1.741 2.091 1.393 5.575-1.045 7.317zm15.323 23.345c-2.438 1.393-5.572.697-7.313-1.742-1.393-2.439-.697-5.575 1.741-7.318 2.438-1.742 5.572-.696 7.313 1.743 1.742 2.439 1.045 5.923-1.741 7.317zm13.582 24.738c-2.437 1.394-5.92.348-6.965-2.439-1.393-2.439-.348-5.575 2.438-6.969 2.438-1.393 5.572-.348 6.965 2.439 1.045 2.439 0 5.575-2.438 6.969zm11.147 25.784c-2.786 1.045-5.573-.349-6.617-2.788-1.045-2.787.348-5.574 2.786-6.968 2.786-1.045 5.572.348 6.617 2.787 1.045 2.788-.348 5.924-2.786 6.969zm8.706 26.48c-2.786.697-5.572-.697-6.617-3.484-.696-2.787.697-5.575 3.483-6.62s5.92.697 6.616 3.484c1.045 3.136-.696 5.923-3.482 6.62zm6.616 27.526c-2.786.697-5.573-1.394-5.921-4.181-.696-2.788 1.045-5.575 3.831-6.272 2.786-.697 5.572 1.045 6.269 4.181.348 2.788-1.393 5.575-4.179 6.272zm3.83 27.526c-2.786.348-5.572-1.742-5.92-4.53-.348-2.787 1.741-5.575 4.527-5.923 2.786-.348 5.572 1.742 5.921 4.53.348 3.135-1.393 5.923-4.528 5.923zm1.743 28.222c-2.786 0-5.224-2.09-5.224-5.226 0-2.787 2.09-5.226 5.224-5.575 2.786 0 5.224 2.091 5.224 5.227 0 3.135-2.438 5.574-5.224 5.574zm-29.6 27.876c-2.786-.348-4.876-2.787-4.876-5.575.349-2.787 2.438-4.878 5.573-4.878 2.786 0 5.223 2.439 4.875 5.575 0 2.788-2.438 5.227-5.572 4.878zm-3.485 27.873c-2.786-.349-4.876-3.136-4.179-5.924.348-2.787 3.134-4.878 5.92-4.529 2.786.348 4.876 3.136 4.527 5.923-.696 2.788-3.134 4.878-6.268 4.53zm-5.922 27.177c-2.786-.697-4.527-3.484-3.482-6.271.696-2.788 3.482-4.53 6.268-3.833 2.786.697 4.528 3.484 3.831 6.272-1.044 2.787-3.831 4.529-6.617 3.832zm-8.705 26.481c-2.787-1.046-3.831-3.833-3.135-6.621 1.045-2.787 3.831-4.181 6.617-3.135 2.786 1.045 4.179 3.832 3.134 6.62-.696 2.787-3.83 4.181-6.616 3.136zM231.6 457.137c-2.786-1.394-3.482-4.181-2.438-6.969 1.045-2.439 4.179-3.832 6.965-2.439 2.786 1.046 3.831 4.182 2.438 6.969-1.045 2.787-4.527 3.833-6.965 2.439zm-13.582 24.39c-2.438-1.394-3.135-4.53-1.742-7.317 1.393-2.439 4.528-3.136 6.966-1.743 2.438 1.394 3.483 4.53 1.741 7.318-1.393 2.787-4.527 3.484-6.965 1.742zm-16.019 22.996c-2.438-1.742-2.786-4.878-1.044-7.317 1.741-2.439 4.875-2.788 7.313-1.045 2.438 1.742 2.786 4.878 1.045 7.317-1.393 2.438-4.876 2.787-7.314 1.045zm-17.762 21.602c-2.09-2.09-2.09-5.226-.348-7.317 1.741-2.09 5.223-2.439 7.313-.348 2.09 1.742 2.438 5.226.348 7.317-1.741 2.091-5.224 2.091-7.313.348zm-19.852 19.512c-2.089-2.09-1.741-5.226.349-7.317 2.089-2.09 5.223-1.742 7.313.349 2.09 2.09 1.741 5.575-.348 7.317-2.09 2.09-5.572 1.742-7.314-.349zm-21.592 17.422c-1.741-2.439-1.044-5.575 1.045-7.317 2.09-1.742 5.572-1.394 7.314 1.045 1.741 2.091 1.393 5.575-1.045 7.317-2.438 2.091-5.92 1.394-7.314-1.045zm-23.333 15.679c-1.393-2.439-.697-5.575 1.741-7.317 2.438-1.394 5.572-.697 7.313 1.742 1.742 2.439.697 5.575-1.741 7.317-2.438 1.394-5.92.697-7.313-1.742zm-24.727 13.24c-1.393-2.439 0-5.575 2.438-6.968 2.438-1.394 5.572-.349 6.965 2.439 1.393 2.439.348 5.574-2.438 6.968-2.438 1.394-5.572 0-6.965-2.439zm-25.769 10.801c-1.045-2.787.348-5.923 3.134-6.62 2.786-1.045 5.573.348 6.617 3.136 1.045 2.787-.348 5.575-3.134 6.969-2.438.696-5.572-.697-6.617-3.485zm-26.467 8.363c-.697-2.788 1.044-5.575 3.482-6.621 2.786-.696 5.572.697 6.269 3.485.696 2.787-.697 5.575-3.483 6.62-2.786.697-5.572-.697-6.268-3.484zm-27.513 5.574c-.349-2.787 1.393-5.574 4.179-5.923 2.786-.348 5.572 1.394 5.92 4.181.696 2.788-1.393 5.575-4.18 5.924-2.437.696-5.223-1.394-5.92-4.182zM5.928 35.888c-.348 2.787-2.786 4.878-5.92 4.53-2.786-.349-4.876-2.788-4.528-5.575.349-2.788 2.787-5.227 5.92-4.878 2.787.697 4.877 3.135 4.528 5.923zm27.165 4.878c-.696 2.787-3.482 4.53-6.268 3.833-2.786-.697-4.527-3.136-4.18-5.924.349-2.787 3.135-4.878 6.27-4.18 3.134.696 4.875 3.484 4.178 6.271zm27.164 7.317c-1.045 2.788-3.831 4.181-6.617 3.484-2.787-.697-4.18-3.484-3.483-6.271.697-2.788 3.831-4.53 6.617-3.485 2.786.697 4.18 3.833 3.483 6.272zm26.119 10.105c-1.044 2.787-4.179 3.832-6.965 2.787-2.786-1.045-3.83-4.181-2.786-6.62 1.045-2.788 4.179-3.833 6.965-2.788 2.438.697 3.831 4.181 2.786 6.62zm24.725 12.542c-1.393 2.44-4.527 3.485-6.965 2.091-2.438-1.394-3.482-4.53-2.089-6.968 1.393-2.44 4.527-3.485 6.965-2.091 2.786 1.045 3.483 4.181 2.089 6.969zm23.683 14.635c-1.741 2.439-4.875 2.787-7.313 1.393-2.438-1.393-3.135-4.878-1.393-7.317 1.393-2.439 4.876-3.135 7.313-1.393 2.438 1.393 3.135 4.878 1.393 7.317zm22.288 16.724c-1.741 2.091-5.224 2.439-7.313.697-2.09-1.742-2.438-4.878-.697-7.317 1.742-2.439 5.224-2.787 7.314-.697 2.437 1.742 2.437 5.227.696 7.317zm20.548 19.164c-2.09 2.09-5.224 2.09-7.314 0-2.089-2.091-2.089-5.227 0-7.317 2.09-2.091 5.224-2.091 7.314 0 2.089 1.742 2.089 5.226 0 7.317zm18.807 20.557c-2.089 1.742-5.572 1.394-7.313-.697-1.742-2.09-1.742-5.575.696-7.317 2.09-1.742 5.572-1.742 7.314.697 1.741 2.439 1.393 5.575-.697 7.317zm16.366 22.648c-2.437 1.742-5.572 1.045-7.313-1.394-1.741-2.439-1.045-5.575 1.393-7.317 2.438-1.742 5.572-1.045 7.313 1.394 1.742 2.439 1.045 5.575-1.393 7.317zm14.279 24.041c-2.438 1.394-5.572.349-6.965-2.09-1.393-2.439-.697-5.575 2.089-6.969 2.438-1.394 5.572-.697 7.314 2.091 1.044 2.09.348 5.575-2.438 6.968zm12.19 25.087c-2.786 1.045-5.572 0-6.965-2.787-1.045-2.439 0-5.575 2.786-6.969 2.438-1.045 5.572 0 6.965 2.787 1.045 2.788 0 5.924-2.786 6.969zm9.401 26.132c-2.786.697-5.572-.697-6.616-3.484-1.045-2.788.696-5.575 3.134-6.62 2.786-1.046 5.572.348 6.617 3.484 1.393 2.787-.348 5.923-3.135 6.62zm6.966 27.177c-2.786.697-5.572-1.045-6.268-3.832-.697-2.788 1.044-5.575 3.83-6.272 2.786-.697 5.572 1.045 6.269 3.833 1.045 2.787-.697 5.575-3.831 6.271zm4.528 27.526c-2.786.349-5.573-1.742-5.921-4.529-.348-2.788 1.742-5.575 4.528-5.923 2.786-.349 5.572 1.742 5.92 4.529.348 3.136-1.741 5.575-4.527 5.923zm1.744 27.874c-2.786 0-5.224-2.09-5.224-5.226 0-2.787 2.089-5.226 5.224-5.575 2.786 0 5.224 2.091 5.224 5.227 0 3.135-2.438 5.574-5.224 5.574zm-29.604 27.876c-2.786-.348-4.875-2.787-4.875-5.575.348-2.787 2.786-4.878 5.572-4.878s5.224 2.439 4.876 5.575c0 2.788-2.438 4.878-5.573 4.878zm-3.831 27.176c-2.787-.697-4.876-3.136-4.18-5.923.349-2.788 3.135-4.53 5.921-4.181 2.786.348 4.875 3.135 4.179 5.923-.348 3.136-2.786 4.878-5.92 4.181zm-6.618 27.177c-2.786-.697-4.528-3.833-3.483-6.272 1.045-2.439 3.831-4.181 6.617-3.484 2.786.697 4.527 3.484 3.482 6.272-1.044 2.787-3.83 4.181-6.616 3.484zm-9.404 25.784c-2.786-1.045-3.831-4.181-2.786-6.62s4.179-3.833 6.617-2.788c2.786 1.046 4.179 4.182 2.786 6.621-1.045 2.787-3.831 4.181-6.617 2.787zm-12.186 25.087c-2.437-1.394-3.482-4.53-2.089-6.969 1.393-2.439 4.527-3.484 6.965-2.09 2.438 1.393 3.483 4.529 2.09 6.968-1.045 2.439-4.528 3.484-6.966 2.091zm-14.628 23.344c-2.438-1.742-2.786-4.878-1.393-7.317s4.875-3.136 7.313-1.393c2.438 1.393 3.134 4.878 1.393 7.317-1.741 2.439-4.876 3.135-7.313 1.393zm-17.067 21.951c-2.089-1.742-2.437-5.226-.696-7.317 1.741-2.09 4.876-2.439 7.313-.697 2.09 1.742 2.786 5.227.697 7.317-1.742 2.439-5.224 2.439-7.314.697zm-19.154 19.861c-2.089-2.091-1.741-5.575 0-7.317 2.09-1.742 5.224-1.742 7.314 0 2.089 2.09 2.089 5.226 0 7.317-2.09 2.439-5.572 2.09-7.314 0zm-21.242 17.769c-1.742-2.439-1.393-5.575.696-7.317 2.09-1.742 5.572-1.393 7.314 1.046 1.741 2.09 1.393 5.574-.697 7.317-2.438 1.742-5.572 1.393-7.313-1.046zM105.183 554c-1.393-2.439-.697-5.575 1.741-7.317 2.438-1.394 5.572-.697 7.313 1.742 1.742 2.439 1.045 5.575-1.741 7.317-2.786 1.393-5.92.697-7.313-1.742zm-24.379 12.891c-1.393-2.787 0-5.575 2.438-6.968 2.438-1.394 5.572-.349 6.965 2.439 1.393 2.439.349 5.574-2.438 6.968-2.785 1.394-5.92.349-6.965-2.439zm-25.772 10.453c-1.045-2.787.348-5.575 3.134-6.62 2.437-1.045 5.572.348 6.617 3.136 1.044 2.787-.349 5.575-3.135 6.968-2.786.697-5.572-.696-6.617-3.484zm-26.816 7.666c-.696-2.788 1.045-5.575 3.83-6.272 2.787-.697 5.573 1.045 6.27 3.833.696 2.787-1.045 5.923-3.831 6.271-2.786.697-5.572-1.045-6.269-3.832zm-27.164 4.878c-.349-2.787 1.74-5.575 4.527-5.923 2.786-.349 5.224 1.393 5.92 4.529.349 2.788-1.393 5.575-4.527 5.924-2.786.348-5.572-1.743-5.92-4.53zM19.16 66.898c-.697 2.788-3.134 4.878-5.92 4.181-2.786-.348-4.527-3.135-4.18-5.923.349-2.787 3.135-4.878 5.92-4.181 2.787.348 4.876 3.136 4.18 5.923zm26.817 6.62c-.696 2.788-3.83 4.53-6.268 3.485-2.786-.697-4.18-3.833-3.483-6.62.697-2.788 3.483-4.53 6.269-3.485 2.786 1.046 4.527 4.181 3.482 6.62zm26.119 9.756c-1.045 2.788-4.18 3.833-6.617 2.788-2.438-1.046-3.831-4.181-2.786-6.62 1.044-2.788 4.179-4.182 6.617-2.788 2.786.697 3.83 3.833 2.786 6.62zm24.728 12.195c-1.393 2.439-4.527 3.484-6.965 2.09-2.438-1.393-3.483-4.529-2.09-6.968 1.393-2.439 4.528-3.484 6.966-2.09 2.786 1.045 3.83 4.18 2.09 6.968zm23.681 14.634c-1.742 2.439-4.876 2.788-7.314 1.394-2.438-1.394-3.134-4.878-1.393-7.317 1.393-2.439 4.876-3.136 7.314-1.394 2.437 1.742 3.134 4.878 1.393 7.317zm21.939 17.073c-1.741 2.091-5.224 2.439-7.313.697-2.09-1.742-2.438-4.878-.697-7.317 1.741-2.091 5.224-2.788 7.313-.697 2.09 1.742 2.438 5.226.697 7.317zm19.851 19.164c-2.089 2.09-5.572 1.742-7.313 0-1.742-2.091-1.742-5.227 0-7.317 2.089-2.091 5.224-2.091 7.313 0 2.09 2.09 2.09 5.226 0 7.317zm17.761 21.254c-2.438 1.742-5.572 1.393-7.313-.697-1.742-2.091-1.393-5.575 1.044-7.317 2.09-1.742 5.573-1.394 7.314.697 1.741 2.439 1.393 5.575-1.045 7.317zm15.672 22.996c-2.437 1.394-5.572.697-7.313-1.742-1.393-2.439-.696-5.575 1.741-7.317 2.438-1.742 5.572-1.045 7.314 1.742 1.393 2.439.696 5.923-1.742 7.317zm12.887 24.39c-2.786 1.394-5.572 0-6.966-2.439-1.393-2.439-.348-5.575 2.438-6.969 2.438-1.393 5.572-.348 6.965 2.439 1.394 2.439 0 5.924-2.437 6.969zm10.448 25.783c-2.786 1.046-5.572-.348-6.617-3.135-1.044-2.439.349-5.575 3.135-6.621 2.786-1.045 5.572.349 6.965 3.136.696 2.788-.697 5.575-3.483 6.62zm7.663 26.481c-2.786.697-5.572-1.045-6.269-3.832-.696-2.788 1.045-5.575 3.831-6.272 2.786-.697 5.92 1.045 6.269 3.833.696 2.787-1.045 5.574-3.831 6.271zm4.527 27.529c-2.786.348-5.572-1.742-5.92-4.53-.348-2.787 1.393-5.226 4.527-5.923 2.786-.348 5.572 1.394 5.921 4.53.696 2.787-1.393 5.574-4.528 5.923zm2.088 27.524c-2.786 0-5.224-2.09-5.224-4.878 0-2.787 2.09-5.226 4.876-5.226 2.786 0 5.224 2.09 5.572 4.878 0 2.787-2.438 5.226-5.224 5.226zm-29.6 27.874c-2.786-.348-4.876-2.787-4.876-5.575.348-2.787 2.786-4.878 5.572-4.878s4.876 2.788 4.876 5.575c0 3.136-2.786 5.227-5.572 4.878zm-4.181 27.873c-2.786-.697-4.527-3.484-4.179-6.272.348-2.787 3.134-4.529 5.92-4.181 2.787.348 4.876 3.136 4.179 6.272-.348 2.787-3.482 4.529-5.92 4.181zm-7.662 26.829c-2.786-1.045-4.179-3.833-3.134-6.62 1.045-2.788 3.831-4.181 6.617-3.485 2.786.697 4.527 3.833 3.482 6.621-1.393 2.787-4.527 4.529-6.965 3.484zm-10.796 25.783c-2.437-1.393-3.83-4.529-2.437-6.968 1.045-2.439 4.179-3.833 6.965-2.439 2.786 1.045 3.83 4.181 2.437 6.968-1.393 2.788-4.527 3.833-6.965 2.439zm-13.929 24.391c-2.438-1.743-3.134-4.878-1.741-7.317 1.393-2.439 4.527-3.136 6.965-1.743 2.438 1.394 3.482 4.878 1.741 7.317-1.393 2.439-4.527 3.485-6.965 1.743zm-16.369 22.647c-2.09-1.742-2.438-5.227-.697-7.317 1.741-2.091 4.876-2.439 7.313-1.045 2.438 1.742 2.786 4.878.697 7.317-1.741 2.439-5.224 2.787-7.313 1.045zm-19.156 20.557c-2.089-2.09-2.089-5.226 0-7.317 2.09-2.09 5.224-2.09 7.313 0 2.09 2.091 2.09 5.227 0 7.317-2.089 2.091-5.223 2.091-7.313 0zm-21.242 18.119c-1.742-2.439-1.393-5.575 1.044-7.317 2.09-1.742 5.573-1.394 7.314 1.045 1.741 2.09 1.393 5.575-1.045 7.317-2.438 1.394-5.572 1.045-7.313-1.045zM86.725 531.7c-1.393-2.439-.697-5.574 1.74-6.968 2.439-1.394 5.573-.697 6.966 1.742 1.393 2.439.697 5.575-1.741 7.317-2.09 1.045-5.224.348-6.965-2.091zm-24.727 12.543c-1.045-2.787 0-5.923 2.438-6.968s5.572 0 6.965 2.439c1.393 2.787 0 5.575-2.438 6.968-2.786 1.394-5.92.349-6.965-2.439zm-26.466 9.408c-.696-2.787.697-5.575 3.483-6.62s5.572.697 6.617 3.136c1.044 2.787-.697 5.575-3.483 6.62-2.786 1.394-5.92-.349-6.617-3.136zm-27.166 6.272c-.348-2.788 1.394-5.575 4.18-5.924 2.786-.348 5.572 1.394 6.268 4.182.697 2.787-1.393 5.574-4.179 6.271-3.134.349-5.92-1.742-6.269-4.529zM26.477 97.908c-.697 2.788-3.483 4.53-6.269 3.833-2.786-.697-4.527-3.484-3.83-6.272.696-2.787 3.482-4.53 6.268-3.832 2.786.697 4.527 3.484 3.83 6.271zm26.465 8.362c-1.045 2.788-3.83 3.833-6.617 3.136-2.786-1.045-4.18-3.833-3.134-6.62 1.044-2.787 3.83-4.181 6.617-3.136 2.786.697 4.178 3.833 3.134 6.62zm25.771 11.498c-1.393 2.439-4.528 3.485-6.965 2.439-2.438-1.393-3.483-4.529-2.438-6.968 1.044-2.788 4.527-3.833 6.965-2.439 2.438 1.393 3.482 4.529 2.438 6.968zm23.685 14.634c-1.741 2.439-4.875 2.788-7.313 1.394-2.438-1.394-3.134-4.878-1.393-7.317 1.393-2.439 4.875-3.136 7.313-1.394 2.438 1.394 3.135 4.878 1.393 7.317zm22.284 17.074c-1.741 2.09-5.223 2.439-7.313.696-2.089-1.742-2.438-4.878-.697-7.317 1.742-2.09 5.224-2.787 7.314-.697 2.089 1.743 2.438 5.227.696 7.318zm19.854 19.86c-2.09 1.742-5.572 1.742-7.314-.349-2.089-2.09-1.741-5.226.348-7.317 2.09-2.09 5.224-2.09 7.314.349 2.09 1.742 1.741 5.226-.348 7.317zm17.411 21.602c-2.437 1.742-5.572 1.046-7.313-1.045-1.741-2.439-1.393-5.575 1.045-7.317 2.089-1.742 5.572-1.393 7.313 1.046 1.742 2.438 1.393 5.923-1.045 7.316zm14.628 24.042c-2.438 1.393-5.572.348-6.965-2.091-1.393-2.439-.697-5.575 2.089-6.969 2.438-1.393 5.572-.696 7.313 2.091 1.045 2.439.349 5.575-2.437 6.969zm11.839 25.435c-2.786 1.045-5.572-.348-6.617-2.787s0-5.575 2.786-6.969c2.786-1.045 5.92 0 6.965 2.787 1.045 2.788-.348 5.924-3.134 6.969zm8.708 26.48c-2.786.697-5.573-1.045-6.617-3.484-.697-2.787.696-5.575 3.482-6.62 2.786-.697 5.572.697 6.617 3.484 1.045 3.136-.696 5.923-3.482 6.62zm5.571 27.526c-2.786.349-5.224-1.742-5.92-4.529-.349-2.788 1.393-5.575 4.179-5.923 2.786-.697 5.572 1.393 5.92 4.181.696 3.136-1.393 5.923-4.179 6.271zm2.092 27.876c-2.786 0-5.223-2.091-5.223-4.878s2.089-5.226 4.875-5.575c2.786-.348 5.572 2.091 5.572 4.878 0 3.136-2.437 5.575-5.224 5.575zm-29.601 27.873c-2.786-.349-4.875-2.788-4.875-5.575.348-2.788 2.786-4.878 5.572-4.878s4.875 2.787 4.875 5.575c0 2.787-2.786 5.226-5.572 4.878zm-4.878 27.177c-2.786-.697-4.528-3.485-3.831-6.272.696-2.787 3.482-4.53 6.268-3.833 2.787.697 4.876 3.485 4.18 6.272-1.045 2.787-3.831 4.529-6.617 3.833zm-8.706 26.48c-2.786-1.045-4.179-4.181-3.134-6.62 1.045-2.787 3.831-4.181 6.617-3.136 2.786 1.046 4.179 3.833 3.134 6.621-.696 2.787-3.831 4.181-6.617 3.135zm-11.84 25.087c-2.438-1.394-3.482-4.53-2.089-6.969 1.393-2.439 4.527-3.484 6.965-2.09 2.438 1.393 3.482 4.529 2.089 6.968-1.044 2.439-4.527 3.484-6.965 2.091zm-15.323 22.996c-2.438-1.742-2.786-4.878-1.045-7.317s4.876-2.787 7.313-1.045c2.438 1.742 2.786 4.878 1.393 7.317-1.741 2.439-5.223 3.136-7.661 1.045zm-18.109 21.254c-2.089-2.09-2.089-5.226-.348-7.317 2.09-2.09 5.224-2.09 7.313-.348 2.09 2.091 2.438 5.226.349 7.317-1.742 2.091-5.224 2.439-7.314.348zm-20.549 18.119c-1.741-2.44-1.393-5.575.697-7.318 2.09-1.742 5.224-1.393 7.313.697 1.741 2.091 1.741 5.575-.696 7.317-2.438 2.091-5.573 1.743-7.314-.696zm-22.984 15.679c-1.393-2.439-.697-5.575 1.741-6.969 2.438-1.393 5.573-.697 6.965 1.742 1.742 2.439.697 5.575-1.74 7.317-2.439 1.394-5.573.349-6.966-2.09zM47.72 519.157c-1.045-2.788 0-5.575 2.786-6.969 2.438-1.045 5.572 0 6.965 2.788 1.393 2.439 0 5.575-2.786 6.968-2.786 1.394-5.92 0-6.965-2.787zm-26.12 9.059c-.696-2.788 1.045-5.575 3.483-6.62 2.786-.697 5.572.697 6.268 3.484 1.045 2.787-.696 5.575-3.482 6.62-2.786.697-5.572-.697-6.269-3.484zm-27.51 4.878c-.349-2.788 1.74-5.575 4.527-5.923 2.786-.349 5.224 1.393 5.92 4.181.348 2.787-1.393 5.574-4.527 5.923-2.786.697-5.572-1.045-5.92-4.181zm18.106-409.402c-.696 2.787-3.482 4.529-5.92 4.181-2.786-.349-4.527-3.136-4.18-5.923.35-2.788 3.135-4.878 5.921-4.182 3.135.349 4.876 3.136 4.18 5.924zm26.817 7.665c-1.045 2.788-3.83 4.182-6.617 3.136-2.786-1.045-4.179-3.832-3.134-6.62.696-2.787 3.83-4.181 6.617-3.484 2.438 1.393 4.179 4.181 3.134 6.968zm25.424 11.15c-1.393 2.439-4.527 3.484-6.965 2.439-2.438-1.394-3.483-4.181-2.438-6.969 1.045-2.439 4.528-3.833 6.965-2.439 2.786 1.394 3.831 4.53 2.438 6.969zm23.681 14.634c-1.741 2.439-4.876 2.787-7.313 1.393-2.438-1.393-3.135-4.878-1.393-7.317 1.393-2.439 4.875-3.135 7.313-1.393 2.438 1.393 3.134 4.878 1.393 7.317zm21.592 17.421c-2.09 2.091-5.224 2.091-7.313.349-2.09-1.742-2.438-5.227-.349-7.317 1.742-2.091 5.224-2.439 7.314-.349 2.089 1.742 2.437 5.227.348 7.317zm19.154 19.861c-2.09 1.742-5.572 1.742-7.313-.349-1.742-2.09-1.742-5.575.348-7.317 2.089-2.09 5.572-1.742 7.313.349 2.09 2.439 1.741 5.574-.348 7.317zm16.019 22.647c-2.438 1.394-5.572.697-7.313-1.393-1.393-2.439-1.045-5.575 1.393-7.317 2.438-1.743 5.572-1.046 7.313 1.393 1.741 2.439 1.045 5.924-1.393 7.317zm13.234 24.39c-2.786 1.045-5.573 0-6.966-2.439-1.393-2.439-.348-5.575 2.438-6.968 2.438-1.394 5.572-.349 6.965 2.438 1.393 2.788 0 5.924-2.437 6.969zm9.751 26.132c-2.787.697-5.572-.697-6.617-3.484s.696-5.575 3.134-6.62c2.786-1.045 5.572.348 6.617 3.484 1.045 2.788-.348 5.923-3.134 6.62zm5.922 27.178c-2.786.348-5.572-1.394-5.921-4.182-.348-2.787 1.393-5.574 4.18-5.923 2.786-.697 5.572 1.394 5.92 4.181.696 2.788-1.045 5.227-4.179 5.924zm2.44 27.525c-2.786 0-5.224-2.09-5.224-4.878 0-2.787 2.089-5.226 4.875-5.575 2.786-.348 5.573 2.091 5.573 4.878 0 3.136-2.438 5.575-5.224 5.575zm-29.955 27.875c-2.786-.349-4.875-2.788-4.527-5.575 0-2.788 2.438-4.878 5.572-4.878 2.786.348 5.224 2.787 4.876 5.923-.349 2.788-3.135 5.227-5.921 4.53zm-5.92 27.525c-2.786-.696-4.528-3.832-3.831-6.271.696-2.788 3.482-4.53 6.268-3.833 2.786.697 4.528 3.484 3.831 6.272-.348 3.136-3.482 4.878-6.268 3.832zm-10.1 26.481c-2.438-1.394-3.831-4.181-2.438-6.969 1.393-2.439 4.179-3.832 6.965-2.787 2.786 1.045 4.179 4.181 2.786 6.968-1.393 2.788-4.527 3.833-7.313 2.788zm-13.931 24.39c-1.045-.697-1.741-2.091-2.09-3.136-.348-1.394 0-2.787.697-3.833 1.393-2.439 4.527-3.135 6.965-1.742 2.438 1.394 3.134 4.878 1.741 7.317-.696 1.394-2.089 2.091-3.134 2.439-1.393 0-2.786-.348-4.179-1.045zm-17.759 21.602c-2.09-2.091-2.09-5.226-.349-7.317 1.742-2.091 5.224-2.091 7.314-.348 2.09 1.742 2.438 5.226.348 7.317-1.741 2.09-5.224 2.439-7.313.348zm-20.899 18.815c-1.74-2.439-1.393-5.575 1.045-7.317 2.09-1.742 5.224-1.742 7.314.697 1.74 2.091 1.74 5.575-.697 7.665-2.438 1.743-5.92 1.394-7.662-1.045zm-23.33 15.68c-1.393-2.439-.697-5.924 1.741-7.317 2.438-1.394 5.572-.697 7.313 1.742 1.394 2.439.697 5.575-1.74 7.317-2.787 1.393-5.921.697-7.314-1.742zm-25.77 11.149c-1.045-2.787.348-5.575 3.134-6.62s5.572.349 6.965 3.136c1.045 2.787-.348 5.575-3.134 6.62s-5.92-.348-6.965-3.136zM1.4 503.129c-.697-2.787 1.393-5.226 4.179-5.923 2.786-.697 5.572 1.045 6.269 3.833.696 2.787-1.045 5.575-4.18 6.272-2.786.696-5.572-1.394-6.268-4.182zM19.51 155.05c-.697 2.787-3.83 4.53-6.269 3.833-2.786-.697-4.527-3.485-3.83-6.272.696-2.787 3.482-4.529 6.268-3.833 3.134.697 4.527 3.485 3.83 6.272zm26.12 10.105c-1.394 2.439-4.18 3.832-6.966 2.439-2.438-1.394-3.83-4.181-2.786-6.969 1.045-2.787 4.18-4.181 6.965-2.787 2.786 1.742 4.18 4.878 2.786 7.317zm24.377 13.937c-.696 1.045-2.09 1.742-3.134 2.09-1.393.349-2.786 0-3.83-.697-2.439-1.393-3.135-4.529-1.742-6.968 1.393-2.439 4.875-3.136 7.313-1.742 1.393.697 2.09 2.09 2.438 3.136 0 1.742 0 3.135-1.045 4.181zm21.94 18.118c-2.09 2.091-5.224 2.091-7.314.349-2.09-1.743-2.09-5.227-.348-7.317 1.741-2.091 5.224-2.44 7.314-.349 2.09 1.742 2.437 5.227.348 7.317zm18.805 20.557c-2.438 1.742-5.572 1.394-7.313-1.045-1.741-2.091-1.741-5.227.696-7.317 2.09-1.742 5.572-1.742 7.662.697 1.741 2.787 1.045 5.923-1.045 7.665zm15.325 23.693c-2.438 1.394-5.92.697-7.313-1.742-1.393-2.439-.697-5.575 1.741-7.317 2.438-1.394 5.572-.697 7.313 1.742 1.741 2.788 1.045 5.923-1.741 7.317zm11.491 25.784c-2.786 1.045-5.572-.349-6.617-3.136-1.044-2.787.349-5.575 3.135-6.968 2.786-1.046 5.572.348 6.616 3.135.697 2.788-.696 5.924-3.134 6.969zm7.313 27.177c-2.786.697-5.224-1.394-5.921-4.181-.696-2.788 1.045-5.575 3.831-6.272 2.786-.697 5.572 1.046 6.269 4.181.696 2.788-1.393 5.575-4.179 6.272zm2.787 27.875c-2.786 0-5.224-2.091-5.572-4.878 0-2.788 2.089-5.227 4.875-5.575 2.786-.349 5.224 2.09 5.573 4.878.348 3.135-2.09 5.575-4.876 5.575zm-30.291 27.878c-2.786-.348-4.876-3.136-4.528-5.923.697-2.788 2.786-4.878 5.573-4.53 2.786.349 5.224 2.788 4.527 5.924 0 2.787-2.786 4.878-5.572 4.529zm-6.621 26.824c-2.786-1.045-4.179-3.832-3.135-6.62.697-2.787 3.483-4.181 6.269-3.484 2.786.697 4.527 3.833 3.831 6.62-1.393 2.788-4.179 4.53-6.965 3.484zm-11.493 25.087c-2.438-1.394-3.135-4.53-2.09-6.969s4.179-3.484 6.965-2.09c2.438 1.394 3.483 4.529 2.438 7.317-1.393 2.439-4.875 3.484-7.313 1.742zm-16.022 22.996c-2.09-2.09-2.438-4.878-.696-7.317 1.74-2.09 4.875-2.787 7.313-1.045 2.438 1.742 2.786 4.878 1.045 7.317-2.09 2.788-5.572 2.788-7.662 1.045zm-20.199 19.164c-1.044-1.045-1.392-2.439-1.044-3.833 0-1.394.696-2.787 1.741-3.484 2.09-1.742 5.224-1.742 7.313.348 2.09 2.091 1.741 5.575-.348 7.317-1.045 1.046-2.438 1.394-3.83 1.394-1.394 0-2.787-.348-3.831-1.742zm-22.984 15.679c-1.393-2.439-.348-5.923 1.741-7.317 2.438-1.394 5.573-.697 6.966 1.742 1.393 2.439.696 5.575-1.742 7.317-2.438 1.394-5.572.697-6.965-1.742zm-25.422 10.801c-.696-2.787.697-5.923 3.135-6.62 2.437-1.045 5.572.349 6.616 3.136 1.045 2.788-.348 5.575-3.134 6.62-2.786 1.046-5.92-.348-6.617-3.136zM5.232 180.834c-.696 2.787-3.482 4.529-6.268 3.832-2.787-.697-4.528-3.136-4.18-5.923.349-2.787 3.135-4.878 6.27-4.181 3.134.697 4.875 3.484 4.178 6.272zm26.468 9.407c-1.392 2.788-4.179 3.833-6.617 2.439-2.438-1.045-3.83-3.832-2.786-6.62 1.045-2.787 4.18-4.181 6.966-3.136 2.438 1.394 3.482 4.53 2.438 7.317zm24.027 13.937c-1.74 2.439-4.875 2.788-7.313 1.394-2.438-1.394-3.134-4.529-1.741-6.968 1.393-2.439 4.875-3.136 7.313-1.743 2.786 1.394 3.135 4.878 1.742 7.317zm20.9 17.77c-2.09 2.09-5.224 1.742-7.313 0-2.09-1.742-2.09-5.227-.348-7.317 1.74-2.091 5.223-2.439 7.313-.349 2.786 2.439 2.437 5.924.348 7.666zm17.759 21.603c-2.437 1.393-5.572 1.045-7.313-1.046-1.741-2.09-1.045-5.574 1.045-7.317 2.438-1.742 5.572-1.393 7.313 1.046 1.742 2.439 1.393 5.923-1.045 7.317zm13.234 24.738c-2.787 1.045-5.921 0-6.966-2.439-1.044-2.439 0-5.575 2.438-6.969 2.438-1.393 5.572-.348 6.965 2.44 1.045 2.787 0 5.574-2.437 6.968zm8.359 26.48c-2.786.697-5.572-1.045-6.269-3.832-.696-2.788 1.045-5.575 3.831-6.272 2.786-.697 5.572.697 6.269 3.833.696 2.787-1.045 5.575-3.831 6.271zm3.134 27.531c-2.786 0-5.224-2.091-5.572-4.878 0-2.788 2.089-5.227 4.875-5.575 2.786-.348 5.224 1.742 5.572 4.878.349 3.136-2.089 5.575-4.875 5.575zm-30.3 27.521c-2.786-.697-4.875-3.136-4.527-5.923.348-2.787 3.134-4.53 5.92-4.181 2.787.348 4.876 2.787 4.528 5.923-.697 2.788-3.135 4.53-5.92 4.181zm-8.01 26.132c-1.393-.697-2.09-1.742-2.786-2.787-.696-1.046-.696-2.439-.348-3.833 1.045-2.439 3.83-3.833 6.617-2.787 2.786 1.045 4.18 3.832 3.134 6.62-.348 1.393-1.393 2.439-2.786 3.136-1.044 0-2.786 0-3.83-.349zm-13.928 23.345c-2.438-1.742-2.786-4.878-1.393-6.969 1.393-2.439 4.527-2.787 6.965-1.393 2.438 1.393 3.134 4.878 1.741 7.317-1.741 2.438-4.876 2.787-7.313 1.045zm-18.46 20.209c-1.741-2.091-1.742-5.575.348-7.317 2.09-1.743 5.224-1.743 7.314.348s2.09 5.227 0 7.317c-2.438 2.091-5.92 1.742-7.662-.348zM25.78 434.838c-1.392-2.439-.348-5.575 1.742-6.969 2.438-1.394 5.572-.697 6.965 1.742 1.741 2.439.697 5.575-1.741 7.317s-5.572.697-6.965-2.09zM.356 444.942c-.696-2.788.697-5.575 3.483-6.272 2.438-1.045 5.224.348 6.268 3.136 1.045 2.787-.348 5.575-3.134 6.62s-5.92-.697-6.617-3.484zM17.421 214.98c-.697 1.393-1.741 2.09-2.786 2.787-1.045.697-2.438.697-3.83.349-2.439-1.046-3.832-3.833-2.787-6.62 1.045-2.788 3.83-4.182 6.617-3.136 1.393.348 2.438 1.393 3.134 2.787.349 1.045.349 2.439-.348 3.833zm23.682 13.588c-1.742 2.439-4.876 2.788-6.965 1.394-2.438-1.394-2.787-4.529-1.394-6.968 1.394-2.439 4.876-3.136 7.314-1.743 2.09 1.743 2.786 5.227 1.045 7.317zm20.198 18.816c-2.089 1.742-5.572 1.742-7.313-.349-1.741-2.09-1.741-5.226.348-7.317 2.09-2.09 5.224-2.09 7.314 0 1.741 2.439 1.741 5.575-.349 7.666zm15.323 22.299c-2.438 1.394-5.572.348-6.965-1.742-1.393-2.439-.696-5.575 1.741-6.969 2.438-1.742 5.573-.697 7.314 1.742 1.393 2.439.696 5.924-2.09 6.969zm10.102 25.783c-2.786.697-5.572-.697-6.269-3.484-1.044-2.439.348-5.226 3.134-6.272 2.786-1.045 5.573.349 6.617 3.136.697 2.788-.696 5.923-3.482 6.62zm3.831 26.831c-2.786 0-5.223-2.09-5.572-4.878 0-2.787 1.742-5.226 4.876-5.575 2.786-.348 5.572 1.742 5.572 4.53.348 3.484-1.741 5.923-4.876 5.923zM59.562 350.17c-2.786-.697-4.528-3.485-3.831-6.272.348-2.787 3.134-4.53 5.92-4.181 2.786.348 4.876 3.136 4.18 6.271-.697 3.136-3.832 4.878-6.27 4.182zm-11.147 25.435c-2.438-1.394-3.134-4.53-2.09-6.969 1.045-2.439 4.18-3.484 6.966-2.09 2.786 1.045 3.83 4.529 2.437 7.316-1.393 2.439-4.875 3.485-7.313 1.743zm-17.76 21.602c-1.741-2.09-1.741-5.574.348-7.317 1.742-2.09 5.224-2.09 7.314 0 2.09 1.743 2.09 5.227 0 7.666-2.438 1.742-5.92 1.742-7.662-.349zM7.321 412.19c-1.044-2.788 0-5.575 2.438-6.969 2.438-1.045 5.572-.348 6.965 2.091 1.393 2.439.697 5.923-2.09 7.317-3.134 1.393-6.268.348-7.313-2.439zm16.021-161.322c-1.742 2.439-4.876 2.787-7.314 1.394-2.437-1.394-3.134-4.53-1.74-6.969 1.392-2.439 4.526-3.136 7.312-1.742 2.786 1.742 3.483 5.226 1.742 7.317zm19.849 19.512c-2.438 1.742-5.572 1.393-7.313-.697-1.742-2.091-1.742-5.227.348-7.317 2.09-2.091 5.572-1.742 7.662.348 2.09 2.439 1.741 5.924-.697 7.666zm13.236 24.39c-2.786 1.045-5.572-.349-6.616-2.788-1.045-2.439 0-5.575 2.437-6.968 2.438-1.394 5.572 0 6.965 2.787 1.393 3.136 0 6.272-2.786 6.969zm5.571 27.525c-2.786 0-5.224-2.09-5.572-4.529-.349-2.788 1.74-5.227 4.527-5.575 2.786-.348 5.572 1.742 5.92 4.529.349 2.788-1.74 5.575-4.875 5.575zm-32.039 26.829c-2.786-1.045-4.18-3.832-3.483-6.271.697-2.439 3.483-4.182 6.269-3.485 2.786.349 4.527 3.485 3.83 6.272-.696 3.136-4.178 4.53-6.616 3.484zM15.68 372.121c-2.09-2.091-2.438-5.227-.697-6.969 1.393-2.091 4.876-2.439 6.965-.697 2.438 1.742 2.787 4.878 1.045 7.317-2.09 2.091-5.224 2.439-7.313.349zm-22.637 15.331c-1.045-2.788 0-5.575 2.438-6.969 2.438-1.045 5.224-.349 6.965 2.09 1.393 2.439.697 5.924-2.09 7.318-3.134 1.393-6.268.348-7.313-2.439zm15.67-111.846c-1.74 2.439-4.875 2.788-6.965 1.394-2.089-1.394-2.785-4.53-1.392-6.969 1.393-2.439 4.527-3.484 7.313-1.742 2.438 1.742 2.786 5.227 1.044 7.317zm17.412 20.906c-2.437 1.394-5.572.697-6.965-1.742-1.393-2.091-.696-5.227 1.393-6.969 2.09-1.742 5.92-1.394 7.314 1.394 1.741 2.439 1.044 5.923-1.742 7.317zm7.316 25.783c-2.786 0-5.224-1.742-5.572-4.181-.348-1.394.348-2.439 1.045-3.484.696-1.045 1.741-1.742 3.134-2.091 1.393-.348 2.786 0 3.83.697 1.046.697 1.742 2.091 2.09 3.484.697 2.788-1.393 5.575-4.527 5.575zM-2.08 349.124c-2.09-1.742-2.787-4.878-1.742-6.968.697-1.045 1.742-1.742 2.786-2.439 1.045-.349 2.438-.697 3.831 0a3.779 3.779 0 012.786 2.787c.349 1.394.348 3.136-.348 4.53-1.741 3.136-5.224 3.832-7.313 2.09zm6.964-26.829c-2.787.349-5.573-1.393-6.27-3.832-.696-2.439.697-5.227 3.135-6.621 2.786-1.393 5.92.349 6.965 3.485 1.045 3.484-1.044 6.62-3.83 6.968z" opacity=".08" fill-rule="evenodd" clip-rule="evenodd" fill="#5C5C5C"/></svg>