<svg width="351" height="426" fill="none" xmlns="http://www.w3.org/2000/svg"><path d="M17.064 414.977c2.786-.697 5.572.697 6.617 3.484.696 2.788-.697 5.575-3.483 6.62s-5.92-.697-6.616-3.484c-.697-2.787.696-5.923 3.482-6.62zm-6.266-27.523c2.787-.697 5.572 1.394 5.92 4.181.697 2.788-1.044 5.575-3.83 6.272-2.786.697-5.572-1.045-6.269-4.181-.696-2.788 1.393-5.575 4.18-6.272zm-4.18-27.529c2.786-.348 5.572 1.743 5.92 4.53.349 2.787-1.741 5.575-4.527 5.923-2.786.349-5.572-1.742-5.92-4.529-.349-3.136 1.74-5.575 4.527-5.924zm-1.394-28.222c2.786 0 5.224 2.09 5.224 5.226 0 2.788-2.09 5.227-5.224 5.575-2.786 0-5.224-2.09-5.224-5.226s2.09-5.575 5.224-5.575zm.696-27.874c2.786.348 4.875 2.787 4.875 5.574-.348 2.788-2.438 5.227-5.572 4.878-2.786 0-5.224-2.439-4.875-5.574 0-3.136 2.786-5.227 5.572-4.878zm3.134-27.874c2.786.348 4.876 3.135 4.527 5.923-.348 2.787-3.134 4.878-5.92 4.53-2.786-.349-4.876-3.136-4.527-5.924.348-3.136 3.134-5.226 5.92-4.529zm5.571-27.526c2.787.697 4.528 3.484 3.831 6.272-.696 2.787-3.482 4.529-6.268 3.832-2.787-.697-4.528-3.484-3.831-6.271.696-2.788 3.482-4.53 6.268-3.833zm8.011-27.178c2.786 1.046 4.179 3.833 3.134 6.62-1.045 2.788-3.83 4.181-6.617 3.485-2.786-.697-4.179-3.833-3.134-6.62 1.045-2.788 4.179-4.182 6.617-3.485zm10.45-25.783c2.786 1.045 3.83 4.181 2.786 6.968-1.045 2.439-4.18 3.833-6.965 2.788-2.786-1.045-4.18-4.181-2.786-6.969 1.393-2.787 4.527-4.181 6.965-2.787zm12.534-25.087c2.438 1.394 3.483 4.53 2.09 6.969-1.393 2.438-4.528 3.484-6.965 2.09-2.438-1.394-3.483-4.529-2.09-7.317 1.393-2.439 4.527-3.484 6.965-1.742zm14.627-24.041c2.438 1.742 3.135 4.878 1.393 7.317-1.393 2.439-4.875 3.135-7.313 1.393-2.438-1.393-3.134-4.878-1.393-7.317 1.741-2.439 5.224-3.136 7.313-1.393zm17.067-22.648c2.09 1.742 2.786 5.226.697 7.317-2.09 2.09-5.224 2.787-7.314 1.045-2.437-1.742-2.785-4.878-.696-7.317 1.741-2.439 4.875-2.787 7.313-1.045zm18.458-20.906c2.09 2.09 2.09 5.226.349 7.317-2.09 2.09-5.224 2.09-7.314.348-2.09-2.09-2.09-5.226-.348-7.317 2.09-2.09 5.224-2.439 7.313-.348zm20.544-19.163c1.741 2.09 1.741 5.574-.349 7.316-2.089 1.743-5.572 1.743-7.313-.348-2.09-2.09-1.741-5.575.348-7.317 2.09-2.09 5.572-1.742 7.314.349zm21.941-17.422c1.741 2.44 1.045 5.575-1.045 7.317-2.089 1.742-5.572 1.394-7.313-1.045-1.741-2.44-1.393-5.575 1.045-7.317 2.438-1.742 5.572-1.394 7.313 1.045zm23.334-15.679c1.393 2.439.697 5.575-1.741 7.317-2.438 1.394-5.572.697-7.313-1.742-1.742-2.44-.697-5.575 1.741-7.317 2.786-1.394 5.92-.697 7.313 1.742zm24.727-13.24c1.393 2.439.348 5.923-2.438 6.968-2.438 1.394-5.572.349-6.965-2.439-1.393-2.439-.348-5.575 2.438-6.968 2.786-1.046 5.92-.349 6.965 2.439zm25.771-11.15c1.044 2.788-.349 5.575-2.786 6.62-2.787 1.046-5.573-.348-6.966-2.787-1.044-2.788.349-5.575 2.786-6.62 3.135-1.045 5.921 0 6.966 2.787zm26.817-8.711c.697 2.788-.696 5.575-3.483 6.62-2.786.697-5.572-.696-6.617-3.484-1.044-2.787.697-5.923 3.483-6.62 2.786-1.045 5.921.697 6.617 3.484zm27.163-6.62c.697 2.788-1.393 5.575-4.179 5.923-2.786.697-5.572-1.045-6.269-3.832-.696-2.788 1.045-5.575 4.179-6.272 3.135-.348 5.921 1.394 6.269 4.181zm27.86-4.181c.348 2.788-1.741 5.575-4.527 5.924-2.786.348-5.572-1.743-5.921-4.53-.348-2.787 1.742-5.575 4.528-5.923 3.134-.349 5.572 1.742 5.92 4.53zm27.862-1.394c0 2.788-2.09 5.227-5.224 5.227-2.787 0-5.225-2.09-5.573-5.227 0-2.787 2.09-5.226 5.224-5.226 3.135 0 5.573 2.439 5.573 5.226zm28.213.697c-.348 2.788-2.786 4.878-5.572 4.878-2.786-.348-5.224-2.439-4.875-5.575 0-2.787 2.438-5.226 5.572-4.878 2.786.349 5.224 2.788 4.875 5.575zM46.667 414.28c2.786-.696 5.572.697 6.617 3.485 1.044 2.787-.697 5.574-3.134 6.62-2.787 1.045-5.573-.349-6.618-3.485-1.044-2.787.349-5.923 3.135-6.62zm-6.966-27.177c2.786-.697 5.572 1.045 6.269 3.833.696 2.787-1.045 5.574-3.83 6.271-2.787.697-5.573-1.045-6.27-3.832-.696-2.788 1.045-5.575 3.831-6.272zm-4.528-27.526c2.786-.348 5.572 1.742 5.92 4.53.348 2.787-1.741 5.574-4.527 5.923-2.786.348-5.572-1.742-5.92-4.53-.349-2.787 1.74-5.575 4.527-5.923zm-1.74-27.874c2.786 0 5.224 2.09 5.224 5.226 0 2.788-2.09 5.227-5.224 5.575-2.786 0-5.224-2.09-5.224-5.226.348-3.136 2.438-5.575 5.224-5.575zm1.046-27.873c2.786.349 4.875 2.788 4.875 5.575-.348 2.787-2.438 4.878-5.572 4.878-2.786 0-5.224-2.439-4.876-5.575 0-2.787 2.787-5.226 5.573-4.878zm3.48-27.527c2.786.348 4.876 3.136 4.18 5.923-.35 2.788-3.135 4.878-5.921 4.53-2.786-.349-4.876-3.136-4.528-5.923.697-3.136 3.483-5.227 6.269-4.53zm5.921-27.526c2.786.697 4.527 3.485 3.482 6.272-.696 2.787-3.482 4.529-6.268 3.833-2.786-.697-4.528-3.485-3.831-6.272 1.045-2.787 4.18-4.53 6.617-3.833zm8.707-26.481c2.786 1.046 3.83 3.833 3.134 6.621-1.045 2.787-3.83 4.181-6.617 3.135-2.786-1.045-4.179-3.832-3.134-6.62 1.045-2.787 4.18-4.181 6.617-3.136zm11.493-25.435c2.786 1.394 3.482 4.182 2.437 6.969-1.044 2.439-4.179 3.833-6.965 2.439-2.786-1.045-3.83-4.181-2.438-6.969 1.045-2.787 4.18-3.832 6.965-2.439zm13.582-24.389c2.438 1.393 3.134 4.529 1.741 7.317-1.393 2.439-4.527 3.135-6.965 1.742-2.438-1.394-3.483-4.53-1.741-7.317 1.044-2.439 4.527-3.136 6.965-1.742zm15.669-22.997c2.438 1.742 2.787 4.878 1.045 7.317-1.741 2.439-4.876 2.788-7.313 1.046-2.438-1.743-2.786-4.878-1.045-7.317s4.876-2.788 7.313-1.046zm18.111-21.602c2.09 2.09 2.09 5.226.348 7.317-1.741 2.09-5.224 2.439-7.313.348-2.09-1.742-2.438-5.226-.348-7.317 1.741-2.09 4.875-2.09 7.313-.348zm19.85-19.512c2.09 2.09 1.742 5.226-.348 7.317-2.089 2.09-5.224 1.742-7.314-.349-2.089-2.09-1.741-5.574.349-7.317 1.741-2.09 5.224-1.742 7.313.349zm21.594-17.421c1.741 2.438 1.045 5.574-1.045 7.317-2.089 1.742-5.572 1.393-7.313-1.046-1.742-2.09-1.393-5.575 1.045-7.317 2.089-2.09 5.572-1.394 7.313 1.045zm22.983-15.68c1.393 2.44.696 5.575-1.742 7.317-2.438 1.394-5.572.697-7.313-1.742-1.741-2.439-.697-5.575 1.741-7.317 2.786-1.394 5.921-.697 7.314 1.742zm24.726-13.24c1.393 2.439 0 5.575-2.438 6.969-2.437 1.393-5.572.348-6.965-2.44-1.393-2.438-.348-5.574 2.438-6.968 2.438-1.045 5.572 0 6.965 2.439zm25.773-10.801c1.045 2.787-.348 5.923-3.134 6.62-2.787 1.045-5.573-.349-6.618-3.136-1.044-2.787.349-5.575 3.135-6.968 2.438-.349 5.572.696 6.617 3.484zm26.467-8.363c.697 2.788-1.045 5.575-3.482 6.62-2.787.697-5.573-.696-6.269-3.484-.697-2.787.696-5.575 3.482-6.62 2.786-.697 5.573.697 6.269 3.484zm27.511-5.574c.348 2.787-1.393 5.574-4.179 5.923-2.787.348-5.572-1.394-5.921-4.181-.696-2.788 1.393-5.575 4.179-5.924 2.786-.697 5.572 1.394 5.921 4.182zm27.862-3.136c0 2.787-2.089 5.226-4.875 5.575-2.786.348-5.224-2.09-5.573-4.878-.348-2.788 1.742-5.227 4.876-5.575 2.786 0 5.224 2.09 5.572 4.878zm27.86-.349c0 2.788-2.437 5.227-5.223 5.227s-5.224-2.44-5.224-5.227c0-2.787 2.438-5.226 5.224-5.226s5.223 2.439 5.223 5.226zm-259.8 379.438c2.786-1.045 5.573.349 6.617 3.136 1.045 2.439-.348 5.575-3.134 6.62s-5.572-.348-6.965-3.136c-.697-2.438 1.044-5.574 3.482-6.62zm-7.312-26.481c2.786-.696 5.572 1.046 6.269 3.833.696 2.788-1.045 5.575-3.831 6.272-2.786.697-5.92-1.045-6.269-3.833-1.044-2.787 1.045-5.575 3.831-6.272zm-4.877-27.525c2.786-.349 5.572 1.742 5.92 4.529.348 2.788-1.393 5.227-4.527 5.924-2.786.348-5.572-1.394-5.92-4.53-.349-2.788 1.74-5.575 4.527-5.923zm-2.089-27.524c2.785 0 5.223 2.09 5.223 4.878 0 2.787-2.09 5.226-4.875 5.226-2.786 0-5.224-2.09-5.572-4.878 0-2.787 2.437-5.226 5.224-5.226zm1.045-27.528c2.786.348 4.876 2.787 4.876 5.575-.349 2.787-2.786 4.878-5.572 4.878s-5.224-2.439-4.876-5.575c.348-3.136 2.786-5.226 5.572-4.878zm3.829-27.526c2.786.697 4.876 3.136 4.179 5.924-.348 2.787-3.134 4.529-5.92 4.181-2.786-.349-4.876-3.136-4.18-5.923.349-2.788 3.135-4.878 5.92-4.182zm6.618-27.177c2.786.697 4.528 3.833 3.483 6.272-.697 2.787-3.831 4.181-6.617 3.484-2.786-.697-4.528-3.484-3.483-6.272 1.045-2.439 3.831-4.181 6.617-3.484zm9.404-25.784c2.786 1.046 3.831 4.181 2.786 6.62-1.044 2.439-4.179 3.833-6.617 2.788-2.786-1.045-4.179-4.181-2.786-6.62 1.045-2.788 3.831-4.181 6.617-2.788zm12.187-25.087c2.438 1.394 3.483 4.53 2.09 6.969-1.393 2.439-4.527 3.484-6.965 2.091-2.438-1.394-3.483-4.53-2.09-6.969 1.393-2.439 4.528-3.484 6.965-2.091zm14.628-23.344c2.437 1.742 2.786 4.878 1.393 7.317s-4.876 3.136-7.314 1.394c-2.438-1.394-3.134-4.878-1.393-7.317 1.742-2.439 5.224-3.136 7.314-1.394zm17.064-21.951c2.089 1.742 2.437 5.226.696 7.317-1.741 2.091-4.876 2.439-7.313.697-2.09-1.742-2.786-5.226-.697-7.317 2.09-2.439 5.224-2.439 7.314-.697zm19.502-19.86c2.09 2.09 1.742 5.574 0 7.317-2.089 1.742-5.224 1.742-7.313 0-2.09-2.091-2.09-5.227 0-7.317 2.089-2.091 5.224-2.091 7.313 0zm21.245-17.77c1.741 2.439 1.393 5.575-.697 7.317-2.089 1.742-5.572 1.394-7.313-1.045-1.742-2.091-1.393-5.575.696-7.317 2.09-1.742 5.572-1.394 7.314 1.045zm22.637-15.68c1.393 2.439.696 5.575-1.742 7.317-2.437 1.394-5.572.697-7.313-1.742-1.741-2.439-1.045-5.575 1.741-7.317 2.786-1.394 5.921-.697 7.314 1.742zm24.724-12.891c1.393 2.787 0 5.575-2.438 6.969-2.438 1.393-5.572.348-6.965-2.44-1.393-2.438-.348-5.574 2.438-6.968 2.437-1.394 5.572-.348 6.965 2.44zm25.422-10.453c1.045 2.788-.348 5.575-3.134 6.62-2.438 1.045-5.572-.348-6.617-3.136-1.045-2.787.348-5.575 3.135-6.968 2.786-.697 5.92.697 6.616 3.484zm26.819-7.666c.697 2.788-1.044 5.575-3.83 6.272-2.786.697-5.573-1.045-6.269-3.833-.697-2.787 1.045-5.923 3.831-6.271 2.786-.697 5.572 1.045 6.268 3.832zm27.165-4.878c.348 2.788-1.742 5.576-4.528 5.924-2.786.348-5.223-1.394-5.92-4.53-.348-2.787 1.393-5.575 4.527-5.923 3.135-.349 5.572 1.742 5.921 4.53zm27.861-1.742c0 2.788-2.089 5.227-4.875 5.227s-5.224-2.09-5.224-4.878c0-2.788 2.089-5.227 4.875-5.575 2.786 0 5.224 2.09 5.224 5.226zm27.509.702c-.348 2.788-2.786 4.878-5.572 4.878-2.786-.348-4.876-2.787-4.876-5.575 0-2.787 2.438-5.226 5.572-4.878 3.135.349 5.224 2.788 4.876 5.575zM112.485 426.475c2.786-1.394 5.572 0 6.965 2.439 1.393 2.439.349 5.575-2.437 6.969-2.438 1.393-5.572.348-6.965-2.439-1.393-2.439-.001-5.575 2.437-6.969zm-10.097-25.784c2.786-1.045 5.572.697 6.617 3.136.697 2.788-.348 5.575-3.134 6.62-2.786 1.046-5.92-.348-6.617-3.136-1.393-2.787.348-5.923 3.134-6.62zm-7.314-27.177c2.786-.697 5.573 1.394 6.269 3.833.697 2.787-1.045 5.575-3.83 6.272-2.787.697-5.573-1.046-6.27-3.833-.696-2.787 1.045-5.575 3.831-6.272zM91.24 345.64c2.787-.349 5.225 1.742 5.573 4.878.348 2.787-1.741 5.226-4.527 5.575-2.786.348-5.573-1.742-5.92-4.53 0-3.136 2.089-5.575 4.875-5.923zm-.346-27.872c2.786 0 5.224 2.439 5.224 5.226s-2.438 5.226-5.224 5.226-5.224-2.439-5.224-5.226c-.348-3.136 2.09-5.226 5.224-5.226zm2.439-27.876c2.786.348 4.876 3.136 4.528 5.923-.349 2.787-3.135 4.878-5.92 4.53-2.787-.349-4.876-2.788-4.528-5.924.348-3.135 3.134-4.878 5.92-4.529zm6.267-27.178c2.787.697 4.528 3.485 3.483 6.272-.696 2.788-3.482 4.53-6.269 3.833-2.786-.697-4.527-3.484-3.83-6.272.696-3.136 3.83-4.878 6.617-3.833zm9.056-26.48c2.786 1.045 3.83 4.181 2.786 6.62-1.045 2.787-4.179 3.833-6.617 3.136-2.786-1.046-4.179-4.181-2.786-6.62 1.044-3.136 3.831-4.53 6.617-3.136zm12.189-25.435c2.437 1.393 3.482 4.529 2.089 6.968-1.393 2.439-4.527 3.484-6.965 2.091-2.438-1.394-3.482-4.53-2.089-6.969 1.393-2.439 4.527-3.484 6.965-2.09zm15.322-23.345c2.438 1.742 2.786 4.878 1.393 7.317-1.741 2.439-4.875 2.787-7.313 1.394-2.438-1.742-3.134-4.878-1.393-7.317 1.741-2.439 4.876-3.136 7.313-1.394zm17.763-21.602c2.09 2.09 2.09 5.226.349 7.317-1.742 2.09-5.224 2.438-7.314.348-2.09-1.742-2.438-5.226-.348-7.317 1.741-2.091 5.224-2.439 7.313-.348zm20.198-19.164c1.741 2.09 1.741 5.575-.348 7.317-2.09 1.742-5.572 1.742-7.314-.349-2.089-2.09-1.741-5.574.349-7.317 2.089-2.09 5.572-2.09 7.313.349zm22.638-17.073c1.741 2.439 1.045 5.575-1.393 7.317-2.438 1.742-5.573 1.045-7.314-1.394-1.741-2.439-1.045-5.574 1.393-7.317 2.438-1.393 5.572-.696 7.314 1.394zm24.028-13.937c1.393 2.439.348 5.575-2.09 6.968-2.438 1.394-5.572.349-6.965-2.09-1.393-2.439-.348-5.923 2.09-6.969 2.438-1.393 5.92-.348 6.965 2.091zm25.773-11.15c1.044 2.788-.349 5.575-3.135 6.62-2.786 1.046-5.572-.348-6.616-2.787-1.045-2.787.348-5.575 3.134-6.969 2.438-.696 5.572.349 6.617 3.136zm26.815-7.665c.696 2.788-1.045 5.575-3.831 6.272-2.786.697-5.572-1.045-6.269-3.833-.696-2.787 1.045-5.575 3.831-6.62 2.786-.348 5.572 1.394 6.269 4.181zm27.512-4.878c.348 2.787-1.741 5.575-4.527 5.923-2.786.349-5.573-1.742-5.921-4.53-.348-2.787 1.741-5.574 4.527-5.923 3.135-.348 5.573 1.742 5.921 4.53zm28.21-1.394c0 2.788-2.438 5.227-5.224 5.227s-5.224-2.091-5.224-5.227c0-2.787 2.09-5.226 5.224-5.226 2.786 0 5.224 2.439 5.224 5.226zm27.866 2.096c-.348 2.787-2.786 4.877-5.92 4.53-2.786-.35-4.876-2.788-4.528-5.576.349-2.787 2.786-5.226 5.921-4.878 2.786.349 4.875 3.136 4.527 5.924zM143.481 425.082c2.438-1.394 5.572-.349 6.965 2.09 1.393 2.439.349 5.575-2.089 6.969-2.438 1.393-5.572.696-6.965-2.091-1.394-2.439-.349-5.923 2.089-6.968zm-11.493-25.436c2.786-1.045 5.572.349 6.617 2.788s-.348 5.575-2.786 6.62c-2.786 1.045-5.921 0-6.966-2.788-.696-2.439.349-5.574 3.135-6.62zm-7.66-26.48c2.786-.697 5.572 1.045 6.268 3.833.697 2.787-1.044 5.574-3.83 6.271-2.786.697-5.573-.697-6.617-3.832-.697-2.788 1.393-5.924 4.179-6.272zm-4.526-27.524c2.786-.349 5.224 1.742 5.572 4.529.348 2.787-1.741 5.226-4.528 5.923-2.786.349-5.572-1.742-5.92-4.529 0-3.136 2.089-5.575 4.876-5.923zm-.697-27.874c2.786 0 5.223 2.439 5.223 5.226s-2.437 5.226-5.223 5.226-5.224-2.439-5.224-5.226c0-3.136 2.438-5.226 5.224-5.226zm3.132-27.528c2.786.348 4.875 3.136 4.178 5.923-.348 2.788-3.134 4.878-5.92 4.53-2.786-.349-4.876-3.136-4.527-5.923.696-3.136 3.482-4.878 6.269-4.53zm6.619-26.829c2.786 1.045 4.179 3.833 3.483 6.62-.697 2.788-3.483 4.181-6.269 3.484-2.786-.696-4.527-3.484-3.482-6.62.696-2.787 3.83-4.529 6.268-3.484zm10.446-25.784c2.438 1.394 3.831 4.182 2.786 6.969-1.045 2.439-4.179 3.833-6.965 2.787-2.786-1.045-3.831-4.181-2.786-6.968 1.045-3.136 4.179-4.181 6.965-2.788zm13.585-24.389c2.437 1.742 3.134 4.878 1.741 6.968-1.393 2.439-4.528 3.136-6.965 1.742-2.438-1.393-3.483-4.878-1.742-7.317 1.393-2.09 4.528-2.787 6.966-1.393zm16.714-21.951c2.09 1.742 2.438 5.226.697 7.317-1.741 2.09-4.876 2.439-7.314.697-2.437-1.742-2.785-5.227-.696-7.317 1.741-2.439 5.224-2.788 7.313-.697zm19.505-19.861c2.089 2.091 1.741 5.227-.348 7.317-2.09 2.091-5.224 1.742-7.314-.348-2.089-2.091-2.089-5.227.348-7.317 2.09-2.091 5.572-1.742 7.314.348zm21.937-17.073c1.741 2.439 1.045 5.575-1.393 7.317-2.438 1.742-5.572 1.046-7.313-1.393-1.742-2.439-1.045-5.575 1.044-7.317 2.786-1.394 5.921-1.046 7.662 1.393zm24.03-13.937c1.393 2.439.349 5.575-2.089 6.969-2.438 1.394-5.572.348-6.966-2.091-1.393-2.439-.348-5.923 2.09-6.968 2.438-1.394 5.572-.349 6.965 2.09zm25.773-10.452c1.045 2.787-.348 5.574-3.134 6.62-2.438 1.045-5.572-.349-6.617-3.136-1.045-2.788.348-5.923 3.134-6.969 2.438-.697 5.572.697 6.617 3.485zm26.815-6.969c.697 2.788-1.393 5.575-3.831 6.272-2.786.697-5.572-1.045-6.268-3.833-.697-2.787 1.044-5.575 3.83-6.271 2.786-1.046 5.573 1.045 6.269 3.832zm27.514-3.483c0 2.788-2.09 5.227-4.876 5.575-2.786.349-5.223-2.09-5.572-4.878-.348-2.787 1.742-5.575 4.876-5.575 2.786 0 5.224 2.091 5.572 4.878zm27.511.347c-.348 2.787-2.786 4.878-5.572 4.878s-4.876-2.439-4.876-5.226c0-2.788 2.438-5.227 5.572-5.227 3.135.349 5.224 2.788 4.876 5.575zM169.252 412.538c2.438-1.394 5.921-.697 7.314 1.742 1.393 2.439.696 5.575-1.741 7.317-2.438 1.394-5.573.697-7.314-1.742-1.741-2.787-.696-5.923 1.741-7.317zm-11.144-25.784c2.786-1.045 5.572.349 6.617 3.136 1.045 2.788-.348 5.575-3.134 6.969-2.786 1.045-5.572-.349-6.617-3.136-1.045-2.788.348-5.923 3.134-6.969zm-7.313-26.829c2.786-.697 5.224 1.394 5.92 4.181.697 2.788-1.044 5.575-3.83 6.272-2.786.697-5.572-1.045-6.269-4.181-1.045-3.136 1.393-5.923 4.179-6.272zm-3.134-28.222c2.786 0 5.224 2.09 5.572 4.878 0 2.787-2.09 5.226-4.876 5.574-2.786.349-5.224-2.09-5.572-4.878 0-2.787 2.09-5.574 4.876-5.574zm1.39-27.874c2.786.348 4.876 2.787 4.527 5.575 0 2.787-2.437 4.878-5.572 4.878-2.786-.349-5.223-2.788-4.875-5.924.348-2.787 3.134-4.878 5.92-4.529zm5.922-27.526c2.786.697 4.527 3.833 3.831 6.272-.697 2.787-3.483 4.529-6.269 3.832-2.786-.697-4.527-3.484-3.831-6.271.697-3.136 3.483-4.878 6.269-3.833zm10.098-26.481c2.438 1.394 3.831 4.181 2.438 6.969-1.393 2.439-4.179 3.832-6.965 2.787-2.786-1.045-4.18-4.181-2.787-6.968 1.742-2.788 4.876-3.833 7.314-2.788zm13.931-24.39c1.045.697 1.741 2.091 2.089 3.136.349 1.394 0 2.788-.696 3.833-1.393 2.439-4.527 3.136-6.965 1.742-2.438-1.394-3.135-4.878-1.742-7.317.697-1.394 2.09-2.091 3.135-2.439 1.741 0 3.134.348 4.179 1.045zm17.76-21.602c2.09 2.091 2.09 5.227.349 7.317-1.742 2.091-5.224 2.091-7.314.349-2.09-1.743-2.438-5.227-.348-7.317 2.089-2.091 5.224-2.439 7.313-.349zm20.898-18.815c1.741 2.439 1.393 5.575-1.045 7.317-2.089 1.742-5.223 1.742-7.313-.697-1.741-2.09-1.741-5.575.697-7.665 2.437-1.742 5.92-1.394 7.661 1.045zm23.331-15.679c1.393 2.439.697 5.923-1.741 7.317-2.438 1.393-5.572.696-7.313-1.743-1.393-2.439-.697-5.574 1.741-7.317 2.786-1.393 5.92-.696 7.313 1.743zm25.772-11.15c1.045 2.787-.349 5.574-3.135 6.62-2.786 1.045-5.572-.349-6.965-3.136-1.044-2.787.349-5.575 3.135-6.62 3.134-1.045 6.268.348 6.965 3.136zm27.163-7.317c.697 2.788-1.393 5.227-4.179 5.924-2.786.696-5.572-1.046-6.268-3.833-.697-2.788 1.044-5.575 4.179-6.272 2.786-.697 5.92 1.394 6.268 4.181zm27.866-2.783c0 2.787-2.09 5.227-4.876 5.575-2.786 0-5.224-2.091-5.572-4.878-.348-2.788 2.089-5.227 4.875-5.575 3.135-.348 5.573 1.742 5.573 4.878zm28.206 1.391c-.348 2.787-2.786 4.878-5.572 4.529-2.786 0-4.875-2.439-4.875-5.574.348-2.788 2.786-5.227 5.92-4.878 2.786.348 4.876 3.135 4.527 5.923zm-148.706 260.97c2.438-1.393 5.572-1.045 7.313 1.046 1.742 2.09 1.045 5.574-1.044 7.317-2.438 1.742-5.573 1.393-7.314-1.046-2.09-2.439-1.393-5.923 1.045-7.317zm-13.232-24.738c2.786-1.045 5.92 0 6.965 2.439s0 5.575-2.438 6.968c-2.438 1.394-5.572.349-6.965-2.439-1.393-2.439-.348-5.574 2.438-6.968zm-8.361-26.48c2.786-.697 5.572 1.045 6.269 3.833.696 2.787-1.045 5.574-3.831 6.271-2.786.697-5.572-.697-6.269-3.833-.696-2.787 1.045-5.574 3.831-6.271zm-3.48-27.526c2.786 0 5.224 2.09 5.572 4.878 0 2.787-2.089 5.226-4.875 5.574-2.786.349-5.224-1.742-5.572-4.878 0-3.135 2.089-5.574 4.875-5.574zm1.739-27.874c2.786.348 4.876 3.136 4.527 5.923-.696 2.787-2.786 4.878-5.572 4.53-2.786-.349-5.224-2.788-4.527-5.924 0-2.787 2.786-4.878 5.572-4.529zM184.574 277c2.786 1.045 4.179 3.832 3.134 6.62-.696 2.787-3.482 4.181-6.268 3.484-2.786-.697-4.528-3.833-3.831-6.62 1.393-2.787 4.527-4.53 6.965-3.484zm11.844-25.087c2.438 1.394 3.135 4.53 2.09 6.969s-4.179 3.484-6.966 2.09c-2.437-1.393-3.482-4.529-2.437-7.317 1.393-2.439 4.875-3.136 7.313-1.742zm16.018-22.996c2.089 2.09 2.437 4.878.696 7.317-1.741 2.09-4.875 2.787-7.313 1.045-2.438-1.742-2.787-4.878-1.045-7.317 1.741-2.439 5.572-2.787 7.662-1.045zm19.851-19.164c1.045 1.046 1.393 2.439 1.045 3.833 0 1.394-.697 2.787-1.742 3.484-2.089 1.742-5.224 1.742-7.313-.348-2.09-2.091-1.741-5.575.348-7.317 1.045-1.045 2.438-1.394 3.831-1.394 1.741 0 2.786.697 3.831 1.742zm22.985-15.679c1.393 2.439.348 5.923-1.741 7.317-2.438 1.394-5.573.697-6.966-1.742-1.393-2.439-.696-5.575 1.742-7.317 2.437-1.394 5.572-.697 6.965 1.742zm25.771-10.801c.697 2.787-.696 5.923-3.134 6.62-2.438 1.045-5.572-.349-6.617-3.136-1.045-2.788.348-5.575 3.134-6.62s5.573.348 6.617 3.136zm27.164-5.575c.348 2.787-1.741 5.575-4.179 5.923-2.786.349-5.572-1.394-5.92-4.529-.697-2.788 1.393-5.575 4.179-5.924 2.786-.348 5.572 1.394 5.92 4.53zm27.861-1.045c-.348 2.787-2.437 5.226-5.223 4.878-2.786-.349-4.876-2.439-5.224-5.227 0-2.787 2.438-5.226 5.224-5.226 3.134.348 5.223 2.787 5.223 5.575zM254.229 425.43c1.741-2.439 4.876-2.788 6.965-1.394 2.438 1.394 2.787 4.53 1.394 6.969s-4.876 3.136-7.314 1.742c-2.09-1.742-2.786-5.227-1.045-7.317zm-19.853-18.816c2.09-1.742 5.573-1.742 7.314.349 1.741 2.09 1.741 5.226-.349 7.317-2.089 2.09-5.223 2.09-7.313 0-2.089-2.439-2.089-5.575.348-7.666zm-15.67-22.299c2.437-1.393 5.571-.348 6.964 1.742 1.393 2.439.697 5.575-1.741 6.969-2.438 1.742-5.572.697-7.313-1.742-1.393-2.439-.348-5.575 2.09-6.969zm-9.753-25.783c2.786-.697 5.572.697 6.268 3.484 1.045 2.439-.348 5.227-3.134 6.272s-5.572-.349-6.616-3.136c-1.045-2.788.696-5.575 3.482-6.62zm-4.177-26.827c2.786 0 5.224 2.09 5.572 4.878 0 2.787-1.741 5.226-4.876 5.574-2.786.349-5.572-1.742-5.572-4.529-.348-3.484 2.09-5.923 4.876-5.923zm2.089-27.179c2.786.697 4.875 3.136 4.527 5.923-.348 2.787-3.134 4.529-5.92 4.181-2.787-.348-4.876-2.787-4.528-5.923.348-2.788 3.135-4.878 5.921-4.181zm8.009-26.133c1.393.697 2.089 1.743 2.786 2.788.696 1.045.697 2.439.348 3.833-1.044 2.439-3.831 3.832-6.617 2.787s-4.179-3.833-3.134-6.62c.348-1.394 1.393-2.439 2.786-3.136 1.045-.348 2.438-.348 3.831.348zm13.583-23.692c2.438 1.742 2.786 4.878 1.393 6.968-1.393 2.439-4.527 2.788-6.965 1.394-2.438-1.394-3.134-4.878-1.741-7.317 1.741-2.439 4.875-2.787 7.313-1.045zm18.457-20.209c1.742 2.09 1.741 5.575-.348 7.317-2.09 1.742-5.224 1.742-7.313-.349-2.09-2.09-2.09-5.226 0-7.316 2.786-2.091 5.92-1.743 7.661.348zm22.637-15.331c1.393 2.439.349 5.575-1.741 6.969-2.438 1.393-5.572.696-6.965-1.743-1.741-2.439-.696-5.574 1.741-7.317 2.438-1.742 5.572-.696 6.965 2.091zm25.424-10.104c.696 2.787-.697 5.574-3.483 6.271-2.437 1.045-5.223-.348-6.268-3.136-1.045-2.787.348-5.574 3.134-6.62 3.134-1.045 5.92.697 6.617 3.485zm27.161-4.182c0 2.788-2.089 5.227-4.875 5.575-2.786 0-5.224-1.742-5.573-4.878-.348-2.787 1.742-5.575 4.528-5.575 3.134 0 5.92 2.091 5.92 4.878zm27.166 2.091c-.697 2.787-3.134 4.878-5.921 4.53-2.786-.349-4.527-3.136-4.179-5.924.349-2.787 2.786-4.878 5.921-4.529 2.786.348 4.875 3.135 4.179 5.923zm-10.795 212.889c-.348-2.787 1.741-5.575 4.179-5.923 2.786-.349 5.224 1.045 5.92 4.181.697 2.788-1.044 5.923-4.179 6.272-2.786.348-5.572-1.742-5.92-4.53zm-27.857-.695c.696-2.788 3.134-4.878 5.92-4.53 2.787.348 4.876 2.787 4.528 5.575 0 2.787-2.786 5.226-5.921 4.878-3.134-.349-5.224-3.136-4.527-5.923zm-26.47-8.713c1.393-2.439 4.527-3.832 6.965-2.438 2.437 1.045 3.83 3.832 2.786 6.62-1.045 2.787-4.179 4.181-6.965 2.787-3.135-1.394-4.179-4.53-2.786-6.969zm-22.638-16.375c2.09-2.091 5.224-2.091 7.314-.349 2.089 1.742 2.437 4.878.696 7.317-1.741 2.091-5.224 2.788-7.313.697-2.786-2.09-2.786-5.575-.697-7.665zm-17.062-22.3c2.437-1.393 5.92-.697 7.313 1.742.696 1.046.696 2.439.696 3.833-.348 1.394-1.044 2.439-2.089 3.136-1.045.697-2.438 1.045-3.831.697-1.393-.349-2.438-1.045-3.483-2.439-1.741-2.091-1.044-5.575 1.394-6.969zm-9.401-26.129c2.786-.697 5.572 1.045 6.269 3.833.696 2.787-1.045 5.575-3.831 6.272-2.786 1.045-5.572-.697-6.617-3.833-.348-2.788 1.045-5.575 4.179-6.272zm-1.395-27.876c2.786.349 5.223 2.788 4.875 5.575 0 1.394-.697 2.439-1.741 3.484-1.045 1.046-2.09 1.394-3.483 1.394-1.393 0-2.786-.697-3.831-1.394-1.044-1.045-1.393-2.439-1.393-3.832 0-3.136 2.438-5.575 5.573-5.227zm6.615-27.178c2.786 1.045 4.18 4.181 3.135 6.62-.348 1.393-1.393 2.09-2.786 2.787-1.045.697-2.438.697-3.831.348-1.393-.348-2.438-1.393-3.134-2.439-.697-1.045-.697-2.787 0-4.181 1.044-2.787 4.179-4.181 6.616-3.135zm14.627-23.693c2.089 1.742 2.438 5.226 1.045 7.317-1.742 2.09-4.876 2.787-7.314 1.045-2.438-1.742-3.134-4.878-1.045-7.317 1.742-2.439 5.224-3.136 7.314-1.045zm20.894-18.467c.697 1.045 1.045 2.439.697 3.833-.349 1.393-.697 2.439-2.09 3.484-2.09 1.742-5.572 1.045-7.313-1.045-1.742-2.091-1.393-5.575 1.044-7.317 1.393-1.046 2.786-1.394 4.18-1.046 1.393 0 2.786.697 3.482 2.091zm25.423-11.498c.696 2.787-.697 5.575-3.135 6.62-2.437 1.045-5.572-.348-6.617-3.136-1.044-2.787.349-5.575 3.135-6.62 2.786-1.393 5.92.349 6.617 3.136zm27.865-3.483c0 2.787-2.437 4.878-5.223 5.226-2.787 0-5.224-2.091-5.573-4.878-.348-2.787 2.09-5.226 5.224-5.575 3.135-.348 5.572 2.439 5.572 5.227zm27.511 4.876c-1.045 2.788-3.831 4.182-6.269 3.485-2.786-.697-4.179-3.484-3.831-6.272.697-2.787 3.483-4.529 6.617-3.833 2.786.697 4.179 3.833 3.483 6.62zm-5.575 149.128c-1.045-2.788 0-5.575 2.438-6.969 2.438-1.045 5.224-.348 6.965 2.091 1.393 2.439.697 5.923-2.089 7.317-3.135 1.393-6.269.348-7.314-2.439zm-26.466 4.53c0-2.787 2.438-4.877 4.876-5.226 1.393 0 2.438.349 3.482 1.394 1.045.697 1.742 2.09 1.742 3.484.348 1.394-.349 2.787-1.045 3.833-1.045 1.045-2.09 1.742-3.831 1.742-3.134.348-5.572-2.439-5.224-5.227zm-26.47-6.273c1.393-2.787 4.179-3.484 6.617-2.788 2.438.697 3.831 3.833 2.786 6.621-.696 2.787-3.831 4.181-6.617 3.136-2.786-1.046-3.83-4.53-2.786-6.969zm-21.242-16.724c2.09-1.743 5.573-1.743 7.314 0 1.741 1.742 1.741 4.878 0 7.317-1.741 2.09-5.224 2.439-7.314.348-2.438-2.439-2.089-5.923 0-7.665zm-12.538-24.042c1.393-.348 2.786-.348 3.831.348 1.045.697 2.09 1.394 2.438 2.788.696 2.439-.348 5.226-2.786 6.62-2.438 1.394-5.921 0-6.966-2.787-.696-1.394-.348-2.788 0-4.182.697-1.393 2.09-2.439 3.483-2.787zm-2.088-26.829c2.786.349 4.876 2.788 4.876 5.227 0 1.393-.697 2.439-1.742 3.484-1.044.697-2.089 1.394-3.482 1.394-2.786 0-5.224-2.439-5.224-5.575 0-2.787 2.786-4.878 5.572-4.53zm9.401-25.435c2.437 1.742 3.134 4.53 2.089 6.969s-4.179 3.136-6.965 2.09c-2.786-1.045-3.831-4.181-2.438-6.968 1.393-2.788 4.876-3.833 7.314-2.091zm18.457-19.512c1.741 2.439 1.393 5.575-.696 7.317-2.09 1.742-5.224 1.394-6.965-.697-2.09-2.091-1.742-5.575.696-7.317 2.089-2.439 5.572-1.742 6.965.697zm25.075-10.104c.348 1.393 0 2.787-.697 3.832-.696 1.046-1.741 2.091-2.786 2.439-2.437.697-5.224-1.045-6.268-3.484-1.045-2.788.696-5.923 3.482-6.62 1.393-.349 2.786-.349 4.18.697 1.044.348 2.089 1.742 2.089 3.136zm27.164.697c-.697 2.787-3.134 4.529-5.92 4.181-2.438-.349-4.528-3.136-4.18-5.923.349-2.788 2.786-4.878 5.921-4.53 3.134.697 4.875 3.484 4.179 6.272zm-10.793 99.65c-.348-2.788 1.393-5.575 3.831-6.272 2.438-.697 5.224.697 6.617 3.136 1.393 2.787-.348 5.923-3.483 6.968-3.482 1.046-6.616-1.045-6.965-3.832zm-27.168-7.317c1.742-2.091 4.876-2.787 6.965-1.742 1.045.697 1.742 1.742 2.438 2.787.348 1.046.697 2.439 0 3.833a3.778 3.778 0 01-2.786 2.787c-1.393.349-3.134.349-4.527-.348-3.135-1.394-3.831-5.226-2.09-7.317zm-13.927-24.042c2.786-.348 5.572 1.394 6.268 3.833.697 2.439-.696 5.226-3.134 6.62-2.786 1.394-5.921-.348-6.966-3.484-1.044-3.833 1.045-6.969 3.832-6.969zm7.311-27.177c2.089 1.742 2.786 4.878 1.741 6.969-.697 1.045-1.741 1.742-2.786 2.439-1.045.348-2.438.696-3.831 0a3.781 3.781 0 01-2.786-2.788c-.348-1.394-.348-3.136.348-4.529 1.393-3.136 4.876-3.833 7.314-2.091zm24.03-14.285c.349 2.787-1.393 5.574-3.83 6.271-2.438.697-5.224-.697-6.617-3.136-1.393-2.787.348-5.923 3.482-6.968 3.831-1.045 6.617 1.045 6.965 3.833zm27.165 7.317c-1.741 2.09-4.875 2.787-6.965 1.742-1.044-.697-1.741-1.742-2.437-2.788-.349-1.045-.697-2.439 0-3.832a3.78 3.78 0 012.785-2.788c1.393-.348 3.135-.348 4.528.349 3.134 1.393 3.831 5.226 2.089 7.317z" opacity=".08" fill-rule="evenodd" clip-rule="evenodd" fill="#5C5C5C"/></svg>