<svg width="351" height="426" viewBox="0 0 351 426" fill="none" xmlns="http://www.w3.org/2000/svg">
<g opacity="0.08">
<path fill-rule="evenodd" clip-rule="evenodd" d="M17.0643 414.977C19.8503 414.28 22.6362 415.674 23.6809 418.461C24.3774 421.249 22.9844 424.036 20.1984 425.081C17.4124 426.126 14.2783 424.384 13.5818 421.597C12.8853 418.81 14.2783 415.674 17.0643 414.977Z" fill="#5C5C5C"/>
<path fill-rule="evenodd" clip-rule="evenodd" d="M10.7984 387.454C13.5845 386.757 16.3703 388.848 16.7186 391.635C17.4151 394.423 15.6739 397.21 12.8879 397.907C10.1019 398.604 7.31587 396.862 6.61937 393.726C5.92286 390.938 8.01242 388.151 10.7984 387.454Z" fill="#5C5C5C"/>
<path fill-rule="evenodd" clip-rule="evenodd" d="M6.618 359.925C9.40406 359.577 12.1902 361.668 12.5384 364.455C12.8867 367.242 10.797 370.03 8.0109 370.378C5.22485 370.727 2.43897 368.636 2.09071 365.849C1.74245 362.713 3.83195 360.274 6.618 359.925Z" fill="#5C5C5C"/>
<path fill-rule="evenodd" clip-rule="evenodd" d="M5.22385 331.703C8.0099 331.703 10.4477 333.793 10.4477 336.929C10.4477 339.717 8.35816 342.156 5.22385 342.504C2.4378 342.504 0 340.414 0 337.278C0 334.142 2.08954 331.703 5.22385 331.703Z" fill="#5C5C5C"/>
<path fill-rule="evenodd" clip-rule="evenodd" d="M5.91968 303.829C8.70571 304.177 10.7953 306.616 10.7953 309.403C10.4471 312.191 8.35741 314.63 5.22314 314.281C2.43711 314.281 -0.000528514 311.842 0.347724 308.707C0.347724 305.571 3.13366 303.48 5.91968 303.829Z" fill="#5C5C5C"/>
<path fill-rule="evenodd" clip-rule="evenodd" d="M9.05408 275.955C11.8401 276.303 13.9296 279.09 13.5814 281.878C13.2331 284.665 10.447 286.756 7.66097 286.408C4.87492 286.059 2.78542 283.272 3.13368 280.484C3.48193 277.348 6.26803 275.258 9.05408 275.955Z" fill="#5C5C5C"/>
<path fill-rule="evenodd" clip-rule="evenodd" d="M14.6254 248.429C17.4115 249.126 19.1527 251.913 18.4562 254.701C17.7596 257.488 14.9736 259.23 12.1875 258.533C9.40141 257.836 7.6602 255.049 8.35672 252.262C9.05324 249.474 11.8393 247.732 14.6254 248.429Z" fill="#5C5C5C"/>
<path fill-rule="evenodd" clip-rule="evenodd" d="M22.6357 221.251C25.4218 222.297 26.8149 225.084 25.7701 227.871C24.7253 230.659 21.9391 232.052 19.153 231.356C16.3669 230.659 14.974 227.523 16.0188 224.736C17.0636 221.948 20.1978 220.554 22.6357 221.251Z" fill="#5C5C5C"/>
<path fill-rule="evenodd" clip-rule="evenodd" d="M33.0858 195.468C35.8719 196.513 36.9166 199.649 35.8718 202.436C34.8271 204.875 31.6928 206.269 28.9067 205.224C26.1207 204.179 24.7277 201.043 26.1207 198.255C27.5137 195.468 30.648 194.074 33.0858 195.468Z" fill="#5C5C5C"/>
<path fill-rule="evenodd" clip-rule="evenodd" d="M45.6203 170.381C48.0581 171.775 49.1027 174.911 47.7097 177.35C46.3167 179.788 43.1824 180.834 40.7446 179.44C38.3069 178.046 37.2622 174.911 38.6552 172.123C40.0482 169.684 43.1825 168.639 45.6203 170.381Z" fill="#5C5C5C"/>
<path fill-rule="evenodd" clip-rule="evenodd" d="M60.2473 146.34C62.6851 148.082 63.3817 151.218 61.6404 153.657C60.2474 156.096 56.7649 156.792 54.3271 155.05C51.8894 153.657 51.1928 150.172 52.934 147.733C54.6753 145.294 58.1578 144.597 60.2473 146.34Z" fill="#5C5C5C"/>
<path fill-rule="evenodd" clip-rule="evenodd" d="M77.3142 123.692C79.4037 125.434 80.1002 128.918 78.0107 131.009C75.9212 133.099 72.7868 133.796 70.6973 132.054C68.2596 130.312 67.9115 127.176 70.001 124.737C71.7422 122.298 74.8764 121.95 77.3142 123.692Z" fill="#5C5C5C"/>
<path fill-rule="evenodd" clip-rule="evenodd" d="M95.7721 102.786C97.8616 104.876 97.8618 108.012 96.1205 110.103C94.0309 112.193 90.8965 112.193 88.807 110.451C86.7174 108.361 86.7175 105.225 88.4588 103.134C90.5483 101.044 93.6826 100.695 95.7721 102.786Z" fill="#5C5C5C"/>
<path fill-rule="evenodd" clip-rule="evenodd" d="M116.316 83.6226C118.057 85.7131 118.057 89.1974 115.967 90.9395C113.878 92.6817 110.395 92.6816 108.654 90.5911C106.564 88.5005 106.913 85.0163 109.002 83.2742C111.092 81.1836 114.574 81.5321 116.316 83.6226Z" fill="#5C5C5C"/>
<path fill-rule="evenodd" clip-rule="evenodd" d="M138.257 66.2012C139.998 68.6402 139.302 71.7761 137.212 73.5182C135.123 75.2604 131.64 74.9119 129.899 72.4729C128.158 70.0339 128.506 66.8981 130.944 65.156C133.382 63.4139 136.516 63.7622 138.257 66.2012Z" fill="#5C5C5C"/>
<path fill-rule="evenodd" clip-rule="evenodd" d="M161.591 50.522C162.984 52.961 162.288 56.0969 159.85 57.839C157.412 59.2327 154.278 58.5359 152.537 56.0969C150.795 53.6579 151.84 50.522 154.278 48.7799C157.064 47.3862 160.198 48.0831 161.591 50.522Z" fill="#5C5C5C"/>
<path fill-rule="evenodd" clip-rule="evenodd" d="M186.318 37.2818C187.711 39.7208 186.666 43.2051 183.88 44.2503C181.442 45.6441 178.308 44.5987 176.915 41.8113C175.522 39.3723 176.567 36.2364 179.353 34.8427C182.139 33.7974 185.273 34.4943 186.318 37.2818Z" fill="#5C5C5C"/>
<path fill-rule="evenodd" clip-rule="evenodd" d="M212.089 26.1322C213.133 28.9197 211.74 31.707 209.303 32.7523C206.516 33.7976 203.73 32.4039 202.337 29.965C201.293 27.1775 202.686 24.3902 205.123 23.3449C208.258 22.2996 211.044 23.3448 212.089 26.1322Z" fill="#5C5C5C"/>
<path fill-rule="evenodd" clip-rule="evenodd" d="M238.906 17.4213C239.603 20.2087 238.21 22.9962 235.423 24.0415C232.637 24.7383 229.851 23.3446 228.806 20.5572C227.762 17.7697 229.503 14.6339 232.289 13.937C235.075 12.8917 238.21 14.6339 238.906 17.4213Z" fill="#5C5C5C"/>
<path fill-rule="evenodd" clip-rule="evenodd" d="M266.069 10.8013C266.766 13.5887 264.676 16.376 261.89 16.7245C259.104 17.4213 256.318 15.6793 255.621 12.8919C254.925 10.1044 256.666 7.31696 259.8 6.6201C262.935 6.27168 265.721 8.01386 266.069 10.8013Z" fill="#5C5C5C"/>
<path fill-rule="evenodd" clip-rule="evenodd" d="M293.929 6.62028C294.277 9.40772 292.188 12.1952 289.402 12.5436C286.616 12.8921 283.83 10.8014 283.481 8.01397C283.133 5.22653 285.223 2.43916 288.009 2.09073C291.143 1.7423 293.581 3.83284 293.929 6.62028Z" fill="#5C5C5C"/>
<path fill-rule="evenodd" clip-rule="evenodd" d="M321.791 5.22642C321.791 8.01384 319.701 10.4528 316.567 10.4528C313.78 10.4528 311.342 8.36226 310.994 5.22642C310.994 2.43899 313.084 0 316.218 0C319.353 0 321.791 2.43899 321.791 5.22642Z" fill="#5C5C5C"/>
<path fill-rule="evenodd" clip-rule="evenodd" d="M350.004 5.92338C349.656 8.71083 347.218 10.8014 344.432 10.8014C341.646 10.453 339.208 8.36236 339.557 5.22648C339.557 2.43903 341.995 4.18723e-05 345.129 0.348472C347.915 0.696903 350.353 3.13594 350.004 5.92338Z" fill="#5C5C5C"/>
<path fill-rule="evenodd" clip-rule="evenodd" d="M46.6669 414.28C49.4529 413.584 52.2389 414.977 53.2837 417.765C54.3285 420.552 52.5873 423.339 50.1495 424.385C47.3634 425.43 44.5772 424.036 43.5324 420.9C42.4876 418.113 43.8808 414.977 46.6669 414.28Z" fill="#5C5C5C"/>
<path fill-rule="evenodd" clip-rule="evenodd" d="M39.7013 387.103C42.4873 386.406 45.2733 388.148 45.9698 390.936C46.6663 393.723 44.9251 396.51 42.1391 397.207C39.3531 397.904 36.5669 396.162 35.8704 393.375C35.1739 390.587 36.9153 387.8 39.7013 387.103Z" fill="#5C5C5C"/>
<path fill-rule="evenodd" clip-rule="evenodd" d="M35.1729 359.577C37.959 359.229 40.7448 361.319 41.0931 364.107C41.4413 366.894 39.3519 369.681 36.5658 370.03C33.7797 370.378 30.9936 368.288 30.6454 365.5C30.2971 362.713 32.3868 359.925 35.1729 359.577Z" fill="#5C5C5C"/>
<path fill-rule="evenodd" clip-rule="evenodd" d="M33.4328 331.703C36.2189 331.703 38.6567 333.793 38.6567 336.929C38.6567 339.717 36.5671 342.156 33.4328 342.504C30.6468 342.504 28.209 340.414 28.209 337.278C28.5572 334.142 30.6468 331.703 33.4328 331.703Z" fill="#5C5C5C"/>
<path fill-rule="evenodd" clip-rule="evenodd" d="M34.4786 303.83C37.2647 304.179 39.3541 306.618 39.3541 309.405C39.0059 312.192 36.9164 314.283 33.782 314.283C30.996 314.283 28.5581 311.844 28.9063 308.708C28.9063 305.921 31.6925 303.482 34.4786 303.83Z" fill="#5C5C5C"/>
<path fill-rule="evenodd" clip-rule="evenodd" d="M37.959 276.303C40.745 276.651 42.8346 279.439 42.1381 282.226C41.7899 285.014 39.0037 287.104 36.2177 286.756C33.4316 286.407 31.3421 283.62 31.6903 280.833C32.3868 277.697 35.1729 275.606 37.959 276.303Z" fill="#5C5C5C"/>
<path fill-rule="evenodd" clip-rule="evenodd" d="M43.8799 248.777C46.666 249.474 48.4073 252.262 47.3625 255.049C46.666 257.836 43.8798 259.578 41.0937 258.882C38.3077 258.185 36.5665 255.397 37.263 252.61C38.3077 249.823 41.4421 248.08 43.8799 248.777Z" fill="#5C5C5C"/>
<path fill-rule="evenodd" clip-rule="evenodd" d="M52.587 222.296C55.3731 223.342 56.4177 226.129 55.7212 228.917C54.6764 231.704 51.8905 233.098 49.1044 232.052C46.3183 231.007 44.9251 228.22 45.9699 225.432C47.0147 222.645 50.1491 221.251 52.587 222.296Z" fill="#5C5C5C"/>
<path fill-rule="evenodd" clip-rule="evenodd" d="M64.0795 196.861C66.8656 198.255 67.5621 201.043 66.5174 203.83C65.4726 206.269 62.3383 207.663 59.5522 206.269C56.7661 205.224 55.7213 202.088 57.1143 199.3C58.1591 196.513 61.2934 195.468 64.0795 196.861Z" fill="#5C5C5C"/>
<path fill-rule="evenodd" clip-rule="evenodd" d="M77.6618 172.472C80.0996 173.865 80.7961 177.001 79.4031 179.789C78.0101 182.228 74.8758 182.924 72.438 181.531C70.0002 180.137 68.9554 177.001 70.6967 174.214C71.7415 171.775 75.224 171.078 77.6618 172.472Z" fill="#5C5C5C"/>
<path fill-rule="evenodd" clip-rule="evenodd" d="M93.3313 149.475C95.7691 151.217 96.1175 154.353 94.3762 156.792C92.6349 159.231 89.5005 159.58 87.0627 157.838C84.6249 156.095 84.2767 152.96 86.018 150.521C87.7593 148.082 90.8935 147.733 93.3313 149.475Z" fill="#5C5C5C"/>
<path fill-rule="evenodd" clip-rule="evenodd" d="M111.442 127.873C113.532 129.963 113.532 133.099 111.79 135.19C110.049 137.28 106.566 137.629 104.477 135.538C102.387 133.796 102.039 130.312 104.129 128.221C105.87 126.131 109.004 126.131 111.442 127.873Z" fill="#5C5C5C"/>
<path fill-rule="evenodd" clip-rule="evenodd" d="M131.292 108.361C133.382 110.451 133.034 113.587 130.944 115.678C128.855 117.768 125.72 117.42 123.63 115.329C121.541 113.239 121.889 109.755 123.979 108.012C125.72 105.922 129.203 106.27 131.292 108.361Z" fill="#5C5C5C"/>
<path fill-rule="evenodd" clip-rule="evenodd" d="M152.886 90.9394C154.627 93.3784 153.931 96.5143 151.841 98.2565C149.752 99.9986 146.269 99.6501 144.528 97.2111C142.786 95.1205 143.135 91.6362 145.573 89.8941C147.662 87.8035 151.145 88.5004 152.886 90.9394Z" fill="#5C5C5C"/>
<path fill-rule="evenodd" clip-rule="evenodd" d="M175.869 75.2603C177.262 77.6993 176.565 80.8352 174.127 82.5773C171.689 83.971 168.555 83.2742 166.814 80.8352C165.073 78.3962 166.117 75.2603 168.555 73.5182C171.341 72.1245 174.476 72.8213 175.869 75.2603Z" fill="#5C5C5C"/>
<path fill-rule="evenodd" clip-rule="evenodd" d="M200.595 62.02C201.988 64.459 200.595 67.5949 198.157 68.9886C195.72 70.3823 192.585 69.3371 191.192 66.5497C189.799 64.1107 190.844 60.9748 193.63 59.5811C196.068 58.5358 199.202 59.5811 200.595 62.02Z" fill="#5C5C5C"/>
<path fill-rule="evenodd" clip-rule="evenodd" d="M226.368 51.2188C227.413 54.0063 226.02 57.1421 223.234 57.8389C220.447 58.8842 217.661 57.4905 216.616 54.7031C215.572 51.9157 216.965 49.1283 219.751 47.7346C222.189 47.3862 225.323 48.4314 226.368 51.2188Z" fill="#5C5C5C"/>
<path fill-rule="evenodd" clip-rule="evenodd" d="M252.835 42.8564C253.532 45.6439 251.79 48.4314 249.353 49.4767C246.566 50.1735 243.78 48.7798 243.084 45.9924C242.387 43.205 243.78 40.4174 246.566 39.3722C249.352 38.6753 252.139 40.069 252.835 42.8564Z" fill="#5C5C5C"/>
<path fill-rule="evenodd" clip-rule="evenodd" d="M280.346 37.2816C280.694 40.069 278.953 42.8564 276.167 43.2049C273.38 43.5533 270.595 41.8112 270.246 39.0238C269.55 36.2363 271.639 33.4488 274.425 33.1004C277.211 32.4035 279.997 34.4942 280.346 37.2816Z" fill="#5C5C5C"/>
<path fill-rule="evenodd" clip-rule="evenodd" d="M308.208 34.1459C308.208 36.9334 306.119 39.3724 303.333 39.7208C300.547 40.0693 298.109 37.6303 297.76 34.8428C297.412 32.0553 299.502 29.6163 302.636 29.2678C305.422 29.2678 307.86 31.3584 308.208 34.1459Z" fill="#5C5C5C"/>
<path fill-rule="evenodd" clip-rule="evenodd" d="M336.068 33.7975C336.068 36.5849 333.631 39.0239 330.845 39.0239C328.059 39.0239 325.621 36.5849 325.621 33.7975C325.621 31.01 328.059 28.571 330.845 28.571C333.631 28.571 336.068 31.01 336.068 33.7975Z" fill="#5C5C5C"/>
<path fill-rule="evenodd" clip-rule="evenodd" d="M76.2683 413.235C79.0544 412.19 81.8405 413.584 82.8853 416.371C83.9301 418.81 82.5371 421.946 79.751 422.991C76.9648 424.036 74.1787 422.643 72.7856 419.855C72.0891 417.417 73.8304 414.281 76.2683 413.235Z" fill="#5C5C5C"/>
<path fill-rule="evenodd" clip-rule="evenodd" d="M68.956 386.754C71.7421 386.058 74.5283 387.8 75.2248 390.587C75.9214 393.375 74.1799 396.162 71.3939 396.859C68.6078 397.556 65.4736 395.814 65.1253 393.026C64.0805 390.239 66.17 387.451 68.956 386.754Z" fill="#5C5C5C"/>
<path fill-rule="evenodd" clip-rule="evenodd" d="M64.0789 359.229C66.8649 358.88 69.6509 360.971 69.9992 363.758C70.3474 366.546 68.606 368.985 65.4717 369.682C62.6857 370.03 59.8999 368.288 59.5516 365.152C59.2034 362.364 61.2929 359.577 64.0789 359.229Z" fill="#5C5C5C"/>
<path fill-rule="evenodd" clip-rule="evenodd" d="M61.9895 331.705C64.7755 331.705 67.2133 333.795 67.2133 336.583C67.2133 339.37 65.1239 341.809 62.3379 341.809C59.5518 341.809 57.1139 339.719 56.7656 336.931C56.7656 334.144 59.2034 331.705 61.9895 331.705Z" fill="#5C5C5C"/>
<path fill-rule="evenodd" clip-rule="evenodd" d="M63.0351 304.177C65.8212 304.525 67.9105 306.964 67.9105 309.752C67.5623 312.539 65.1246 314.63 62.3386 314.63C59.5526 314.63 57.1147 312.191 57.463 309.055C57.8112 305.919 60.2491 303.829 63.0351 304.177Z" fill="#5C5C5C"/>
<path fill-rule="evenodd" clip-rule="evenodd" d="M66.8639 276.651C69.6499 277.348 71.7395 279.787 71.043 282.575C70.6947 285.362 67.9087 287.104 65.1227 286.756C62.3366 286.407 60.2471 283.62 60.9436 280.833C61.2918 278.045 64.0779 275.955 66.8639 276.651Z" fill="#5C5C5C"/>
<path fill-rule="evenodd" clip-rule="evenodd" d="M73.4821 249.474C76.2682 250.171 78.0095 253.307 76.9647 255.746C76.2682 258.533 73.1337 259.927 70.3477 259.23C67.5616 258.533 65.8203 255.746 66.8651 252.958C67.9098 250.519 70.696 248.777 73.4821 249.474Z" fill="#5C5C5C"/>
<path fill-rule="evenodd" clip-rule="evenodd" d="M82.8861 223.69C85.6722 224.736 86.7172 227.871 85.6724 230.31C84.6276 232.749 81.4931 234.143 79.0553 233.098C76.2691 232.053 74.8761 228.917 76.2692 226.478C77.314 223.69 80.1 222.297 82.8861 223.69Z" fill="#5C5C5C"/>
<path fill-rule="evenodd" clip-rule="evenodd" d="M95.0734 198.603C97.5112 199.997 98.5561 203.133 97.1631 205.572C95.7701 208.011 92.6358 209.056 90.198 207.663C87.7602 206.269 86.7153 203.133 88.1083 200.694C89.5013 198.255 92.6356 197.21 95.0734 198.603Z" fill="#5C5C5C"/>
<path fill-rule="evenodd" clip-rule="evenodd" d="M109.701 175.259C112.138 177.001 112.487 180.137 111.094 182.576C109.701 185.015 106.218 185.712 103.78 183.97C101.342 182.576 100.646 179.092 102.387 176.653C104.129 174.214 107.611 173.517 109.701 175.259Z" fill="#5C5C5C"/>
<path fill-rule="evenodd" clip-rule="evenodd" d="M126.765 153.308C128.854 155.05 129.202 158.534 127.461 160.625C125.72 162.716 122.585 163.064 120.148 161.322C118.058 159.58 117.362 156.096 119.451 154.005C121.541 151.566 124.675 151.566 126.765 153.308Z" fill="#5C5C5C"/>
<path fill-rule="evenodd" clip-rule="evenodd" d="M146.267 133.448C148.357 135.538 148.009 139.022 146.267 140.765C144.178 142.507 141.043 142.507 138.954 140.765C136.864 138.674 136.864 135.538 138.954 133.448C141.043 131.357 144.178 131.357 146.267 133.448Z" fill="#5C5C5C"/>
<path fill-rule="evenodd" clip-rule="evenodd" d="M167.512 115.678C169.253 118.117 168.905 121.253 166.815 122.995C164.726 124.737 161.243 124.389 159.502 121.95C157.76 119.859 158.109 116.375 160.198 114.633C162.288 112.891 165.77 113.239 167.512 115.678Z" fill="#5C5C5C"/>
<path fill-rule="evenodd" clip-rule="evenodd" d="M190.149 99.9984C191.542 102.437 190.845 105.573 188.407 107.315C185.97 108.709 182.835 108.012 181.094 105.573C179.353 103.134 180.049 99.9984 182.835 98.2562C185.621 96.8625 188.756 97.5594 190.149 99.9984Z" fill="#5C5C5C"/>
<path fill-rule="evenodd" clip-rule="evenodd" d="M214.873 87.1071C216.266 89.8945 214.873 92.6819 212.435 94.0757C209.997 95.4694 206.863 94.424 205.47 91.6366C204.077 89.1976 205.122 86.0618 207.908 84.6681C210.345 83.2744 213.48 84.3197 214.873 87.1071Z" fill="#5C5C5C"/>
<path fill-rule="evenodd" clip-rule="evenodd" d="M240.295 76.654C241.34 79.4415 239.947 82.2289 237.161 83.2741C234.723 84.3194 231.589 82.9257 230.544 80.1383C229.499 77.3509 230.892 74.5635 233.679 73.1698C236.465 72.4729 239.599 73.8666 240.295 76.654Z" fill="#5C5C5C"/>
<path fill-rule="evenodd" clip-rule="evenodd" d="M267.114 68.9883C267.811 71.7758 266.07 74.5633 263.284 75.2602C260.498 75.957 257.711 74.2148 257.015 71.4274C256.318 68.6399 258.06 65.5041 260.846 65.1556C263.632 64.4588 266.418 66.2008 267.114 68.9883Z" fill="#5C5C5C"/>
<path fill-rule="evenodd" clip-rule="evenodd" d="M294.279 64.1105C294.627 66.898 292.537 69.6855 289.751 70.0339C286.965 70.3823 284.528 68.6401 283.831 65.5042C283.483 62.7168 285.224 59.9294 288.358 59.581C291.493 59.2325 293.93 61.3231 294.279 64.1105Z" fill="#5C5C5C"/>
<path fill-rule="evenodd" clip-rule="evenodd" d="M322.14 62.3685C322.14 65.1559 320.051 67.5949 317.265 67.5949C314.479 67.5949 312.041 65.5044 312.041 62.717C312.041 59.9295 314.13 57.4905 316.916 57.1421C319.702 57.1421 322.14 59.2327 322.14 62.3685Z" fill="#5C5C5C"/>
<path fill-rule="evenodd" clip-rule="evenodd" d="M349.649 63.0703C349.301 65.8577 346.863 67.9483 344.077 67.9483C341.291 67.5998 339.201 65.1608 339.201 62.3734C339.201 59.586 341.639 57.147 344.773 57.4954C347.908 57.8439 349.997 60.2829 349.649 63.0703Z" fill="#5C5C5C"/>
<path fill-rule="evenodd" clip-rule="evenodd" d="M112.485 426.475C115.271 425.081 118.057 426.475 119.45 428.914C120.843 431.353 119.799 434.489 117.013 435.883C114.575 437.276 111.441 436.231 110.048 433.444C108.655 431.005 110.047 427.869 112.485 426.475Z" fill="#5C5C5C"/>
<path fill-rule="evenodd" clip-rule="evenodd" d="M102.388 400.691C105.174 399.646 107.96 401.388 109.005 403.827C109.702 406.615 108.657 409.402 105.871 410.447C103.085 411.493 99.9505 410.099 99.2539 407.311C97.8609 404.524 99.6023 401.388 102.388 400.691Z" fill="#5C5C5C"/>
<path fill-rule="evenodd" clip-rule="evenodd" d="M95.0742 373.514C97.8603 372.817 100.647 374.908 101.343 377.347C102.04 380.134 100.298 382.922 97.5121 383.619C94.726 384.316 91.94 382.573 91.2434 379.786C90.5469 376.999 92.2881 374.211 95.0742 373.514Z" fill="#5C5C5C"/>
<path fill-rule="evenodd" clip-rule="evenodd" d="M91.2409 345.64C94.0269 345.291 96.4646 347.382 96.8128 350.518C97.1611 353.305 95.0716 355.744 92.2856 356.093C89.4996 356.441 86.7135 354.351 86.3652 351.563C86.3652 348.427 88.4548 345.988 91.2409 345.64Z" fill="#5C5C5C"/>
<path fill-rule="evenodd" clip-rule="evenodd" d="M90.8937 317.768C93.6798 317.768 96.1176 320.207 96.1176 322.994C96.1176 325.781 93.6798 328.22 90.8937 328.22C88.1077 328.22 85.6699 325.781 85.6699 322.994C85.3216 319.858 87.7594 317.768 90.8937 317.768Z" fill="#5C5C5C"/>
<path fill-rule="evenodd" clip-rule="evenodd" d="M93.3332 289.892C96.1192 290.24 98.2089 293.028 97.8607 295.815C97.5124 298.602 94.7263 300.693 91.9403 300.345C89.1542 299.996 87.0647 297.557 87.413 294.421C87.7612 291.286 90.5471 289.543 93.3332 289.892Z" fill="#5C5C5C"/>
<path fill-rule="evenodd" clip-rule="evenodd" d="M99.6008 262.714C102.387 263.411 104.128 266.199 103.083 268.986C102.387 271.774 99.6006 273.516 96.8145 272.819C94.0284 272.122 92.2871 269.335 92.9837 266.547C93.6802 263.411 96.8147 261.669 99.6008 262.714Z" fill="#5C5C5C"/>
<path fill-rule="evenodd" clip-rule="evenodd" d="M108.656 236.234C111.442 237.279 112.486 240.415 111.442 242.854C110.397 245.641 107.263 246.687 104.825 245.99C102.039 244.944 100.646 241.809 102.039 239.37C103.083 236.234 105.87 234.84 108.656 236.234Z" fill="#5C5C5C"/>
<path fill-rule="evenodd" clip-rule="evenodd" d="M120.845 210.799C123.282 212.192 124.327 215.328 122.934 217.767C121.541 220.206 118.407 221.251 115.969 219.858C113.531 218.464 112.487 215.328 113.88 212.889C115.273 210.45 118.407 209.405 120.845 210.799Z" fill="#5C5C5C"/>
<path fill-rule="evenodd" clip-rule="evenodd" d="M136.167 187.454C138.605 189.196 138.953 192.332 137.56 194.771C135.819 197.21 132.685 197.558 130.247 196.165C127.809 194.423 127.113 191.287 128.854 188.848C130.595 186.409 133.73 185.712 136.167 187.454Z" fill="#5C5C5C"/>
<path fill-rule="evenodd" clip-rule="evenodd" d="M153.93 165.852C156.02 167.942 156.02 171.078 154.279 173.169C152.537 175.259 149.055 175.607 146.965 173.517C144.875 171.775 144.527 168.291 146.617 166.2C148.358 164.109 151.841 163.761 153.93 165.852Z" fill="#5C5C5C"/>
<path fill-rule="evenodd" clip-rule="evenodd" d="M174.128 146.688C175.869 148.778 175.869 152.263 173.78 154.005C171.69 155.747 168.208 155.747 166.466 153.656C164.377 151.566 164.725 148.082 166.815 146.339C168.904 144.249 172.387 144.249 174.128 146.688Z" fill="#5C5C5C"/>
<path fill-rule="evenodd" clip-rule="evenodd" d="M196.766 129.615C198.507 132.054 197.811 135.19 195.373 136.932C192.935 138.674 189.8 137.977 188.059 135.538C186.318 133.099 187.014 129.964 189.452 128.221C191.89 126.828 195.024 127.525 196.766 129.615Z" fill="#5C5C5C"/>
<path fill-rule="evenodd" clip-rule="evenodd" d="M220.794 115.678C222.187 118.117 221.142 121.253 218.704 122.646C216.266 124.04 213.132 122.995 211.739 120.556C210.346 118.117 211.391 114.633 213.829 113.587C216.267 112.194 219.749 113.239 220.794 115.678Z" fill="#5C5C5C"/>
<path fill-rule="evenodd" clip-rule="evenodd" d="M246.567 104.528C247.611 107.316 246.218 110.103 243.432 111.148C240.646 112.194 237.86 110.8 236.816 108.361C235.771 105.574 237.164 102.786 239.95 101.392C242.388 100.696 245.522 101.741 246.567 104.528Z" fill="#5C5C5C"/>
<path fill-rule="evenodd" clip-rule="evenodd" d="M273.382 96.8632C274.078 99.6506 272.337 102.438 269.551 103.135C266.765 103.832 263.979 102.09 263.282 99.3022C262.586 96.5148 264.327 93.7274 267.113 92.6821C269.899 92.3337 272.685 94.0758 273.382 96.8632Z" fill="#5C5C5C"/>
<path fill-rule="evenodd" clip-rule="evenodd" d="M300.894 91.9848C301.242 94.7722 299.153 97.5597 296.367 97.9081C293.581 98.2566 290.794 96.1659 290.446 93.3785C290.098 90.591 292.187 87.8037 294.973 87.4552C298.108 87.1068 300.546 89.1973 300.894 91.9848Z" fill="#5C5C5C"/>
<path fill-rule="evenodd" clip-rule="evenodd" d="M329.104 90.5912C329.104 93.3786 326.666 95.8176 323.88 95.8176C321.094 95.8176 318.656 93.727 318.656 90.5912C318.656 87.8037 320.746 85.3647 323.88 85.3647C326.666 85.3647 329.104 87.8037 329.104 90.5912Z" fill="#5C5C5C"/>
<path fill-rule="evenodd" clip-rule="evenodd" d="M356.97 92.6866C356.622 95.474 354.184 97.5645 351.05 97.2161C348.264 96.8676 346.174 94.4286 346.522 91.6412C346.871 88.8538 349.308 86.4148 352.443 86.7633C355.229 87.1117 357.318 89.8991 356.97 92.6866Z" fill="#5C5C5C"/>
<path fill-rule="evenodd" clip-rule="evenodd" d="M143.481 425.082C145.919 423.688 149.053 424.733 150.446 427.172C151.839 429.611 150.795 432.747 148.357 434.141C145.919 435.534 142.785 434.837 141.392 432.05C139.998 429.611 141.043 426.127 143.481 425.082Z" fill="#5C5C5C"/>
<path fill-rule="evenodd" clip-rule="evenodd" d="M131.988 399.646C134.774 398.601 137.56 399.995 138.605 402.434C139.65 404.873 138.257 408.009 135.819 409.054C133.033 410.099 129.898 409.054 128.853 406.266C128.157 403.827 129.202 400.692 131.988 399.646Z" fill="#5C5C5C"/>
<path fill-rule="evenodd" clip-rule="evenodd" d="M124.328 373.166C127.114 372.469 129.9 374.211 130.596 376.999C131.293 379.786 129.552 382.573 126.766 383.27C123.98 383.967 121.193 382.573 120.149 379.438C119.452 376.65 121.542 373.514 124.328 373.166Z" fill="#5C5C5C"/>
<path fill-rule="evenodd" clip-rule="evenodd" d="M119.802 345.642C122.588 345.293 125.026 347.384 125.374 350.171C125.722 352.958 123.633 355.397 120.846 356.094C118.06 356.443 115.274 354.352 114.926 351.565C114.926 348.429 117.015 345.99 119.802 345.642Z" fill="#5C5C5C"/>
<path fill-rule="evenodd" clip-rule="evenodd" d="M119.105 317.768C121.891 317.768 124.328 320.207 124.328 322.994C124.328 325.781 121.891 328.22 119.105 328.22C116.319 328.22 113.881 325.781 113.881 322.994C113.881 319.858 116.319 317.768 119.105 317.768Z" fill="#5C5C5C"/>
<path fill-rule="evenodd" clip-rule="evenodd" d="M122.237 290.24C125.023 290.588 127.112 293.376 126.415 296.163C126.067 298.951 123.281 301.041 120.495 300.693C117.709 300.344 115.619 297.557 115.968 294.77C116.664 291.634 119.45 289.892 122.237 290.24Z" fill="#5C5C5C"/>
<path fill-rule="evenodd" clip-rule="evenodd" d="M128.856 263.411C131.642 264.456 133.035 267.244 132.339 270.031C131.642 272.819 128.856 274.212 126.07 273.515C123.284 272.819 121.543 270.031 122.588 266.895C123.284 264.108 126.418 262.366 128.856 263.411Z" fill="#5C5C5C"/>
<path fill-rule="evenodd" clip-rule="evenodd" d="M139.302 237.627C141.74 239.021 143.133 241.809 142.088 244.596C141.043 247.035 137.909 248.429 135.123 247.383C132.337 246.338 131.292 243.202 132.337 240.415C133.382 237.279 136.516 236.234 139.302 237.627Z" fill="#5C5C5C"/>
<path fill-rule="evenodd" clip-rule="evenodd" d="M152.887 213.238C155.324 214.98 156.021 218.116 154.628 220.206C153.235 222.645 150.1 223.342 147.663 221.948C145.225 220.555 144.18 217.07 145.921 214.631C147.314 212.541 150.449 211.844 152.887 213.238Z" fill="#5C5C5C"/>
<path fill-rule="evenodd" clip-rule="evenodd" d="M169.601 191.287C171.691 193.029 172.039 196.513 170.298 198.604C168.557 200.694 165.422 201.043 162.984 199.301C160.547 197.559 160.199 194.074 162.288 191.984C164.029 189.545 167.512 189.196 169.601 191.287Z" fill="#5C5C5C"/>
<path fill-rule="evenodd" clip-rule="evenodd" d="M189.106 171.426C191.195 173.517 190.847 176.653 188.758 178.743C186.668 180.834 183.534 180.485 181.444 178.395C179.355 176.304 179.355 173.168 181.792 171.078C183.882 168.987 187.364 169.336 189.106 171.426Z" fill="#5C5C5C"/>
<path fill-rule="evenodd" clip-rule="evenodd" d="M211.043 154.353C212.784 156.792 212.088 159.928 209.65 161.67C207.212 163.412 204.078 162.716 202.337 160.277C200.595 157.838 201.292 154.702 203.381 152.96C206.167 151.566 209.302 151.914 211.043 154.353Z" fill="#5C5C5C"/>
<path fill-rule="evenodd" clip-rule="evenodd" d="M235.073 140.416C236.466 142.855 235.422 145.991 232.984 147.385C230.546 148.779 227.412 147.733 226.018 145.294C224.625 142.855 225.67 139.371 228.108 138.326C230.546 136.932 233.68 137.977 235.073 140.416Z" fill="#5C5C5C"/>
<path fill-rule="evenodd" clip-rule="evenodd" d="M260.846 129.964C261.891 132.751 260.498 135.538 257.712 136.584C255.274 137.629 252.14 136.235 251.095 133.448C250.05 130.66 251.443 127.525 254.229 126.479C256.667 125.782 259.801 127.176 260.846 129.964Z" fill="#5C5C5C"/>
<path fill-rule="evenodd" clip-rule="evenodd" d="M287.661 122.995C288.358 125.783 286.268 128.57 283.83 129.267C281.044 129.964 278.258 128.222 277.562 125.434C276.865 122.647 278.606 119.859 281.392 119.163C284.178 118.117 286.965 120.208 287.661 122.995Z" fill="#5C5C5C"/>
<path fill-rule="evenodd" clip-rule="evenodd" d="M315.175 119.512C315.175 122.3 313.085 124.739 310.299 125.087C307.513 125.436 305.076 122.997 304.727 120.209C304.379 117.422 306.469 114.634 309.603 114.634C312.389 114.634 314.827 116.725 315.175 119.512Z" fill="#5C5C5C"/>
<path fill-rule="evenodd" clip-rule="evenodd" d="M342.686 119.859C342.338 122.646 339.9 124.737 337.114 124.737C334.328 124.737 332.238 122.298 332.238 119.511C332.238 116.723 334.676 114.284 337.81 114.284C340.945 114.633 343.034 117.072 342.686 119.859Z" fill="#5C5C5C"/>
<path fill-rule="evenodd" clip-rule="evenodd" d="M169.252 412.538C171.69 411.144 175.173 411.841 176.566 414.28C177.959 416.719 177.262 419.855 174.825 421.597C172.387 422.991 169.252 422.294 167.511 419.855C165.77 417.068 166.815 413.932 169.252 412.538Z" fill="#5C5C5C"/>
<path fill-rule="evenodd" clip-rule="evenodd" d="M158.108 386.754C160.894 385.709 163.68 387.103 164.725 389.89C165.77 392.678 164.377 395.465 161.591 396.859C158.805 397.904 156.019 396.51 154.974 393.723C153.929 390.935 155.322 387.8 158.108 386.754Z" fill="#5C5C5C"/>
<path fill-rule="evenodd" clip-rule="evenodd" d="M150.795 359.925C153.581 359.228 156.019 361.319 156.715 364.106C157.412 366.894 155.671 369.681 152.885 370.378C150.099 371.075 147.313 369.333 146.616 366.197C145.571 363.061 148.009 360.274 150.795 359.925Z" fill="#5C5C5C"/>
<path fill-rule="evenodd" clip-rule="evenodd" d="M147.661 331.703C150.447 331.703 152.885 333.793 153.233 336.581C153.233 339.368 151.143 341.807 148.357 342.155C145.571 342.504 143.133 340.065 142.785 337.277C142.785 334.49 144.875 331.703 147.661 331.703Z" fill="#5C5C5C"/>
<path fill-rule="evenodd" clip-rule="evenodd" d="M149.051 303.829C151.837 304.177 153.927 306.616 153.578 309.404C153.578 312.191 151.141 314.282 148.006 314.282C145.22 313.933 142.783 311.494 143.131 308.358C143.479 305.571 146.265 303.48 149.051 303.829Z" fill="#5C5C5C"/>
<path fill-rule="evenodd" clip-rule="evenodd" d="M154.973 276.303C157.759 277 159.5 280.136 158.804 282.575C158.107 285.362 155.321 287.104 152.535 286.407C149.749 285.71 148.008 282.923 148.704 280.136C149.401 277 152.187 275.258 154.973 276.303Z" fill="#5C5C5C"/>
<path fill-rule="evenodd" clip-rule="evenodd" d="M165.071 249.822C167.509 251.216 168.902 254.003 167.509 256.791C166.116 259.23 163.33 260.623 160.544 259.578C157.758 258.533 156.364 255.397 157.757 252.61C159.499 249.822 162.633 248.777 165.071 249.822Z" fill="#5C5C5C"/>
<path fill-rule="evenodd" clip-rule="evenodd" d="M179.002 225.432C180.047 226.129 180.743 227.523 181.091 228.568C181.44 229.962 181.091 231.356 180.395 232.401C179.002 234.84 175.868 235.537 173.43 234.143C170.992 232.749 170.295 229.265 171.688 226.826C172.385 225.432 173.778 224.735 174.823 224.387C176.564 224.387 177.957 224.735 179.002 225.432Z" fill="#5C5C5C"/>
<path fill-rule="evenodd" clip-rule="evenodd" d="M196.762 203.83C198.852 205.921 198.852 209.057 197.111 211.147C195.369 213.238 191.887 213.238 189.797 211.496C187.707 209.753 187.359 206.269 189.449 204.179C191.538 202.088 194.673 201.74 196.762 203.83Z" fill="#5C5C5C"/>
<path fill-rule="evenodd" clip-rule="evenodd" d="M217.66 185.015C219.401 187.454 219.053 190.59 216.615 192.332C214.526 194.074 211.392 194.074 209.302 191.635C207.561 189.545 207.561 186.06 209.999 183.97C212.436 182.228 215.919 182.576 217.66 185.015Z" fill="#5C5C5C"/>
<path fill-rule="evenodd" clip-rule="evenodd" d="M240.991 169.336C242.384 171.775 241.688 175.259 239.25 176.653C236.812 178.046 233.678 177.349 231.937 174.91C230.544 172.471 231.24 169.336 233.678 167.593C236.464 166.2 239.598 166.897 240.991 169.336Z" fill="#5C5C5C"/>
<path fill-rule="evenodd" clip-rule="evenodd" d="M266.763 158.186C267.808 160.973 266.414 163.76 263.628 164.806C260.842 165.851 258.056 164.457 256.663 161.67C255.619 158.883 257.012 156.095 259.798 155.05C262.932 154.005 266.066 155.398 266.763 158.186Z" fill="#5C5C5C"/>
<path fill-rule="evenodd" clip-rule="evenodd" d="M293.926 150.869C294.623 153.657 292.533 156.096 289.747 156.793C286.961 157.489 284.175 155.747 283.479 152.96C282.782 150.172 284.523 147.385 287.658 146.688C290.444 145.991 293.578 148.082 293.926 150.869Z" fill="#5C5C5C"/>
<path fill-rule="evenodd" clip-rule="evenodd" d="M321.792 148.086C321.792 150.873 319.702 153.313 316.916 153.661C314.13 153.661 311.692 151.57 311.344 148.783C310.996 145.995 313.433 143.556 316.219 143.208C319.354 142.86 321.792 144.95 321.792 148.086Z" fill="#5C5C5C"/>
<path fill-rule="evenodd" clip-rule="evenodd" d="M349.998 149.477C349.65 152.264 347.212 154.355 344.426 154.006C341.64 154.006 339.551 151.567 339.551 148.432C339.899 145.644 342.337 143.205 345.471 143.554C348.257 143.902 350.347 146.689 349.998 149.477Z" fill="#5C5C5C"/>
<path fill-rule="evenodd" clip-rule="evenodd" d="M201.292 410.447C203.73 409.054 206.864 409.402 208.605 411.493C210.347 413.583 209.65 417.067 207.561 418.81C205.123 420.552 201.988 420.203 200.247 417.764C198.157 415.325 198.854 411.841 201.292 410.447Z" fill="#5C5C5C"/>
<path fill-rule="evenodd" clip-rule="evenodd" d="M188.06 385.709C190.846 384.664 193.98 385.709 195.025 388.148C196.07 390.587 195.025 393.723 192.587 395.116C190.149 396.51 187.015 395.465 185.622 392.677C184.229 390.238 185.274 387.103 188.06 385.709Z" fill="#5C5C5C"/>
<path fill-rule="evenodd" clip-rule="evenodd" d="M179.699 359.229C182.485 358.532 185.271 360.274 185.968 363.062C186.664 365.849 184.923 368.636 182.137 369.333C179.351 370.03 176.565 368.636 175.868 365.5C175.172 362.713 176.913 359.926 179.699 359.229Z" fill="#5C5C5C"/>
<path fill-rule="evenodd" clip-rule="evenodd" d="M176.219 331.703C179.005 331.703 181.443 333.793 181.791 336.581C181.791 339.368 179.702 341.807 176.916 342.155C174.13 342.504 171.692 340.413 171.344 337.277C171.344 334.142 173.433 331.703 176.219 331.703Z" fill="#5C5C5C"/>
<path fill-rule="evenodd" clip-rule="evenodd" d="M177.958 303.829C180.744 304.177 182.834 306.965 182.485 309.752C181.789 312.539 179.699 314.63 176.913 314.282C174.127 313.933 171.689 311.494 172.386 308.358C172.386 305.571 175.172 303.48 177.958 303.829Z" fill="#5C5C5C"/>
<path fill-rule="evenodd" clip-rule="evenodd" d="M184.574 277C187.36 278.045 188.753 280.832 187.708 283.62C187.012 286.407 184.226 287.801 181.44 287.104C178.654 286.407 176.912 283.271 177.609 280.484C179.002 277.697 182.136 275.954 184.574 277Z" fill="#5C5C5C"/>
<path fill-rule="evenodd" clip-rule="evenodd" d="M196.418 251.913C198.856 253.307 199.553 256.443 198.508 258.882C197.463 261.321 194.329 262.366 191.542 260.972C189.105 259.579 188.06 256.443 189.105 253.655C190.498 251.216 193.98 250.519 196.418 251.913Z" fill="#5C5C5C"/>
<path fill-rule="evenodd" clip-rule="evenodd" d="M212.436 228.917C214.525 231.007 214.873 233.795 213.132 236.234C211.391 238.324 208.257 239.021 205.819 237.279C203.381 235.537 203.032 232.401 204.774 229.962C206.515 227.523 210.346 227.175 212.436 228.917Z" fill="#5C5C5C"/>
<path fill-rule="evenodd" clip-rule="evenodd" d="M232.287 209.753C233.332 210.799 233.68 212.192 233.332 213.586C233.332 214.98 232.635 216.373 231.59 217.07C229.501 218.812 226.366 218.812 224.277 216.722C222.187 214.631 222.536 211.147 224.625 209.405C225.67 208.36 227.063 208.011 228.456 208.011C230.197 208.011 231.242 208.708 232.287 209.753Z" fill="#5C5C5C"/>
<path fill-rule="evenodd" clip-rule="evenodd" d="M255.272 194.074C256.665 196.513 255.62 199.997 253.531 201.391C251.093 202.785 247.958 202.088 246.565 199.649C245.172 197.21 245.869 194.074 248.307 192.332C250.744 190.938 253.879 191.635 255.272 194.074Z" fill="#5C5C5C"/>
<path fill-rule="evenodd" clip-rule="evenodd" d="M281.043 183.273C281.74 186.06 280.347 189.196 277.909 189.893C275.471 190.938 272.337 189.544 271.292 186.757C270.247 183.969 271.64 181.182 274.426 180.137C277.212 179.092 279.999 180.485 281.043 183.273Z" fill="#5C5C5C"/>
<path fill-rule="evenodd" clip-rule="evenodd" d="M308.207 177.698C308.555 180.485 306.466 183.273 304.028 183.621C301.242 183.97 298.456 182.227 298.108 179.092C297.411 176.304 299.501 173.517 302.287 173.168C305.073 172.82 307.859 174.562 308.207 177.698Z" fill="#5C5C5C"/>
<path fill-rule="evenodd" clip-rule="evenodd" d="M336.068 176.653C335.72 179.44 333.631 181.879 330.845 181.531C328.059 181.182 325.969 179.092 325.621 176.304C325.621 173.517 328.059 171.078 330.845 171.078C333.979 171.426 336.068 173.865 336.068 176.653Z" fill="#5C5C5C"/>
<path fill-rule="evenodd" clip-rule="evenodd" d="M254.229 425.43C255.97 422.991 259.105 422.642 261.194 424.036C263.632 425.43 263.981 428.566 262.588 431.005C261.195 433.444 257.712 434.141 255.274 432.747C253.184 431.005 252.488 427.52 254.229 425.43Z" fill="#5C5C5C"/>
<path fill-rule="evenodd" clip-rule="evenodd" d="M234.376 406.614C236.466 404.872 239.949 404.872 241.69 406.963C243.431 409.053 243.431 412.189 241.341 414.28C239.252 416.37 236.118 416.37 234.028 414.28C231.939 411.841 231.939 408.705 234.376 406.614Z" fill="#5C5C5C"/>
<path fill-rule="evenodd" clip-rule="evenodd" d="M218.706 384.315C221.143 382.922 224.277 383.967 225.67 386.057C227.063 388.496 226.367 391.632 223.929 393.026C221.491 394.768 218.357 393.723 216.616 391.284C215.223 388.845 216.268 385.709 218.706 384.315Z" fill="#5C5C5C"/>
<path fill-rule="evenodd" clip-rule="evenodd" d="M208.953 358.532C211.739 357.835 214.525 359.229 215.221 362.016C216.266 364.455 214.873 367.243 212.087 368.288C209.301 369.333 206.515 367.939 205.471 365.152C204.426 362.364 206.167 359.577 208.953 358.532Z" fill="#5C5C5C"/>
<path fill-rule="evenodd" clip-rule="evenodd" d="M204.776 331.705C207.562 331.705 210 333.795 210.348 336.583C210.348 339.37 208.607 341.809 205.472 342.157C202.686 342.506 199.9 340.415 199.9 337.628C199.552 334.144 201.99 331.705 204.776 331.705Z" fill="#5C5C5C"/>
<path fill-rule="evenodd" clip-rule="evenodd" d="M206.865 304.526C209.651 305.223 211.74 307.662 211.392 310.449C211.044 313.236 208.258 314.978 205.472 314.63C202.685 314.282 200.596 311.843 200.944 308.707C201.292 305.919 204.079 303.829 206.865 304.526Z" fill="#5C5C5C"/>
<path fill-rule="evenodd" clip-rule="evenodd" d="M214.874 278.393C216.267 279.09 216.963 280.136 217.66 281.181C218.356 282.226 218.357 283.62 218.008 285.014C216.964 287.453 214.177 288.846 211.391 287.801C208.605 286.756 207.212 283.968 208.257 281.181C208.605 279.787 209.65 278.742 211.043 278.045C212.088 277.697 213.481 277.697 214.874 278.393Z" fill="#5C5C5C"/>
<path fill-rule="evenodd" clip-rule="evenodd" d="M228.457 254.701C230.895 256.443 231.243 259.579 229.85 261.669C228.457 264.108 225.323 264.457 222.885 263.063C220.447 261.669 219.751 258.185 221.144 255.746C222.885 253.307 226.019 252.959 228.457 254.701Z" fill="#5C5C5C"/>
<path fill-rule="evenodd" clip-rule="evenodd" d="M246.914 234.492C248.656 236.582 248.655 240.067 246.566 241.809C244.476 243.551 241.342 243.551 239.253 241.46C237.163 239.37 237.163 236.234 239.253 234.144C242.039 232.053 245.173 232.401 246.914 234.492Z" fill="#5C5C5C"/>
<path fill-rule="evenodd" clip-rule="evenodd" d="M269.551 219.161C270.944 221.6 269.9 224.736 267.81 226.13C265.372 227.523 262.238 226.826 260.845 224.387C259.104 221.948 260.149 218.813 262.586 217.07C265.024 215.328 268.158 216.374 269.551 219.161Z" fill="#5C5C5C"/>
<path fill-rule="evenodd" clip-rule="evenodd" d="M294.975 209.057C295.671 211.844 294.278 214.631 291.492 215.328C289.055 216.373 286.269 214.98 285.224 212.192C284.179 209.405 285.572 206.618 288.358 205.572C291.492 204.527 294.278 206.269 294.975 209.057Z" fill="#5C5C5C"/>
<path fill-rule="evenodd" clip-rule="evenodd" d="M322.136 204.875C322.136 207.663 320.047 210.102 317.261 210.45C314.475 210.45 312.037 208.708 311.688 205.572C311.34 202.785 313.43 199.997 316.216 199.997C319.35 199.997 322.136 202.088 322.136 204.875Z" fill="#5C5C5C"/>
<path fill-rule="evenodd" clip-rule="evenodd" d="M349.302 206.966C348.605 209.753 346.168 211.844 343.381 211.496C340.595 211.147 338.854 208.36 339.202 205.572C339.551 202.785 341.988 200.694 345.123 201.043C347.909 201.391 349.998 204.178 349.302 206.966Z" fill="#5C5C5C"/>
<path fill-rule="evenodd" clip-rule="evenodd" d="M338.507 419.855C338.159 417.068 340.248 414.28 342.686 413.932C345.472 413.583 347.91 414.977 348.606 418.113C349.303 420.901 347.562 424.036 344.427 424.385C341.641 424.733 338.855 422.643 338.507 419.855Z" fill="#5C5C5C"/>
<path fill-rule="evenodd" clip-rule="evenodd" d="M310.65 419.16C311.346 416.372 313.784 414.282 316.57 414.63C319.357 414.978 321.446 417.417 321.098 420.205C321.098 422.992 318.312 425.431 315.177 425.083C312.043 424.734 309.953 421.947 310.65 419.16Z" fill="#5C5C5C"/>
<path fill-rule="evenodd" clip-rule="evenodd" d="M284.18 410.447C285.573 408.008 288.707 406.615 291.145 408.009C293.582 409.054 294.975 411.841 293.931 414.629C292.886 417.416 289.752 418.81 286.966 417.416C283.831 416.022 282.787 412.886 284.18 410.447Z" fill="#5C5C5C"/>
<path fill-rule="evenodd" clip-rule="evenodd" d="M261.542 394.072C263.632 391.981 266.766 391.981 268.856 393.723C270.945 395.465 271.293 398.601 269.552 401.04C267.811 403.131 264.328 403.828 262.239 401.737C259.453 399.647 259.453 396.162 261.542 394.072Z" fill="#5C5C5C"/>
<path fill-rule="evenodd" clip-rule="evenodd" d="M244.48 371.772C246.917 370.379 250.4 371.075 251.793 373.514C252.489 374.56 252.489 375.953 252.489 377.347C252.141 378.741 251.445 379.786 250.4 380.483C249.355 381.18 247.962 381.528 246.569 381.18C245.176 380.831 244.131 380.135 243.086 378.741C241.345 376.65 242.042 373.166 244.48 371.772Z" fill="#5C5C5C"/>
<path fill-rule="evenodd" clip-rule="evenodd" d="M235.079 345.643C237.865 344.946 240.651 346.688 241.348 349.476C242.044 352.263 240.303 355.051 237.517 355.748C234.731 356.793 231.945 355.051 230.9 351.915C230.552 349.127 231.945 346.34 235.079 345.643Z" fill="#5C5C5C"/>
<path fill-rule="evenodd" clip-rule="evenodd" d="M233.684 317.767C236.47 318.116 238.907 320.555 238.559 323.342C238.559 324.736 237.862 325.781 236.818 326.826C235.773 327.872 234.728 328.22 233.335 328.22C231.942 328.22 230.549 327.523 229.504 326.826C228.46 325.781 228.111 324.387 228.111 322.994C228.111 319.858 230.549 317.419 233.684 317.767Z" fill="#5C5C5C"/>
<path fill-rule="evenodd" clip-rule="evenodd" d="M240.299 290.589C243.085 291.634 244.479 294.77 243.434 297.209C243.086 298.602 242.041 299.299 240.648 299.996C239.603 300.693 238.21 300.693 236.817 300.344C235.424 299.996 234.379 298.951 233.683 297.905C232.986 296.86 232.986 295.118 233.683 293.724C234.727 290.937 237.862 289.543 240.299 290.589Z" fill="#5C5C5C"/>
<path fill-rule="evenodd" clip-rule="evenodd" d="M254.926 266.896C257.015 268.638 257.364 272.122 255.971 274.213C254.229 276.303 251.095 277 248.657 275.258C246.219 273.516 245.523 270.38 247.612 267.941C249.354 265.502 252.836 264.805 254.926 266.896Z" fill="#5C5C5C"/>
<path fill-rule="evenodd" clip-rule="evenodd" d="M275.82 248.429C276.517 249.474 276.865 250.868 276.517 252.262C276.168 253.655 275.82 254.701 274.427 255.746C272.337 257.488 268.855 256.791 267.114 254.701C265.372 252.61 265.721 249.126 268.158 247.384C269.551 246.338 270.944 245.99 272.338 246.338C273.731 246.338 275.124 247.035 275.82 248.429Z" fill="#5C5C5C"/>
<path fill-rule="evenodd" clip-rule="evenodd" d="M301.243 236.931C301.939 239.718 300.546 242.506 298.108 243.551C295.671 244.596 292.536 243.203 291.491 240.415C290.447 237.628 291.84 234.84 294.626 233.795C297.412 232.402 300.546 234.144 301.243 236.931Z" fill="#5C5C5C"/>
<path fill-rule="evenodd" clip-rule="evenodd" d="M329.108 233.448C329.108 236.235 326.671 238.326 323.885 238.674C321.098 238.674 318.661 236.583 318.312 233.796C317.964 231.009 320.402 228.57 323.536 228.221C326.671 227.873 329.108 230.66 329.108 233.448Z" fill="#5C5C5C"/>
<path fill-rule="evenodd" clip-rule="evenodd" d="M356.619 238.324C355.574 241.112 352.788 242.506 350.35 241.809C347.564 241.112 346.171 238.325 346.519 235.537C347.216 232.75 350.002 231.008 353.136 231.704C355.922 232.401 357.315 235.537 356.619 238.324Z" fill="#5C5C5C"/>
<path fill-rule="evenodd" clip-rule="evenodd" d="M351.044 387.452C349.999 384.664 351.044 381.877 353.482 380.483C355.92 379.438 358.706 380.135 360.447 382.574C361.84 385.013 361.144 388.497 358.358 389.891C355.223 391.284 352.089 390.239 351.044 387.452Z" fill="#5C5C5C"/>
<path fill-rule="evenodd" clip-rule="evenodd" d="M324.578 391.982C324.578 389.195 327.016 387.105 329.454 386.756C330.847 386.756 331.892 387.105 332.936 388.15C333.981 388.847 334.678 390.24 334.678 391.634C335.026 393.028 334.329 394.421 333.633 395.467C332.588 396.512 331.543 397.209 329.802 397.209C326.668 397.557 324.23 394.77 324.578 391.982Z" fill="#5C5C5C"/>
<path fill-rule="evenodd" clip-rule="evenodd" d="M298.108 385.709C299.501 382.922 302.287 382.225 304.725 382.921C307.163 383.618 308.556 386.754 307.511 389.542C306.815 392.329 303.68 393.723 300.894 392.678C298.108 391.632 297.064 388.148 298.108 385.709Z" fill="#5C5C5C"/>
<path fill-rule="evenodd" clip-rule="evenodd" d="M276.866 368.985C278.956 367.242 282.439 367.242 284.18 368.985C285.921 370.727 285.921 373.863 284.18 376.302C282.439 378.392 278.956 378.741 276.866 376.65C274.428 374.211 274.777 370.727 276.866 368.985Z" fill="#5C5C5C"/>
<path fill-rule="evenodd" clip-rule="evenodd" d="M264.328 344.943C265.721 344.595 267.114 344.595 268.159 345.291C269.204 345.988 270.249 346.685 270.597 348.079C271.293 350.518 270.249 353.305 267.811 354.699C265.373 356.093 261.89 354.699 260.845 351.912C260.149 350.518 260.497 349.124 260.845 347.73C261.542 346.337 262.935 345.291 264.328 344.943Z" fill="#5C5C5C"/>
<path fill-rule="evenodd" clip-rule="evenodd" d="M262.24 318.114C265.026 318.463 267.116 320.902 267.116 323.341C267.116 324.734 266.419 325.78 265.374 326.825C264.33 327.522 263.285 328.219 261.892 328.219C259.106 328.219 256.668 325.78 256.668 322.644C256.668 319.857 259.454 317.766 262.24 318.114Z" fill="#5C5C5C"/>
<path fill-rule="evenodd" clip-rule="evenodd" d="M271.641 292.679C274.078 294.421 274.775 297.209 273.73 299.648C272.685 302.087 269.551 302.784 266.765 301.738C263.979 300.693 262.934 297.557 264.327 294.77C265.72 291.982 269.203 290.937 271.641 292.679Z" fill="#5C5C5C"/>
<path fill-rule="evenodd" clip-rule="evenodd" d="M290.098 273.167C291.839 275.606 291.491 278.742 289.402 280.484C287.312 282.226 284.178 281.878 282.437 279.787C280.347 277.696 280.695 274.212 283.133 272.47C285.222 270.031 288.705 270.728 290.098 273.167Z" fill="#5C5C5C"/>
<path fill-rule="evenodd" clip-rule="evenodd" d="M315.173 263.063C315.521 264.456 315.173 265.85 314.476 266.895C313.78 267.941 312.735 268.986 311.69 269.334C309.253 270.031 306.466 268.289 305.422 265.85C304.377 263.062 306.118 259.927 308.904 259.23C310.297 258.881 311.69 258.881 313.084 259.927C314.128 260.275 315.173 261.669 315.173 263.063Z" fill="#5C5C5C"/>
<path fill-rule="evenodd" clip-rule="evenodd" d="M342.337 263.76C341.64 266.547 339.203 268.289 336.417 267.941C333.979 267.592 331.889 264.805 332.237 262.018C332.586 259.23 335.023 257.14 338.158 257.488C341.292 258.185 343.033 260.972 342.337 263.76Z" fill="#5C5C5C"/>
<path fill-rule="evenodd" clip-rule="evenodd" d="M331.544 363.41C331.196 360.622 332.937 357.835 335.375 357.138C337.813 356.441 340.599 357.835 341.992 360.274C343.385 363.061 341.644 366.197 338.509 367.242C335.027 368.288 331.893 366.197 331.544 363.41Z" fill="#5C5C5C"/>
<path fill-rule="evenodd" clip-rule="evenodd" d="M304.376 356.093C306.118 354.002 309.252 353.306 311.341 354.351C312.386 355.048 313.083 356.093 313.779 357.138C314.127 358.184 314.476 359.577 313.779 360.971C313.431 362.365 312.386 363.41 310.993 363.758C309.6 364.107 307.859 364.107 306.466 363.41C303.331 362.016 302.635 358.184 304.376 356.093Z" fill="#5C5C5C"/>
<path fill-rule="evenodd" clip-rule="evenodd" d="M290.449 332.051C293.235 331.703 296.021 333.445 296.717 335.884C297.414 338.323 296.021 341.11 293.583 342.504C290.797 343.898 287.662 342.156 286.617 339.02C285.573 335.187 287.662 332.051 290.449 332.051Z" fill="#5C5C5C"/>
<path fill-rule="evenodd" clip-rule="evenodd" d="M297.76 304.874C299.849 306.616 300.546 309.752 299.501 311.843C298.804 312.888 297.76 313.585 296.715 314.282C295.67 314.63 294.277 314.978 292.884 314.282C291.491 313.933 290.446 312.888 290.098 311.494C289.75 310.1 289.75 308.358 290.446 306.965C291.839 303.829 295.322 303.132 297.76 304.874Z" fill="#5C5C5C"/>
<path fill-rule="evenodd" clip-rule="evenodd" d="M321.79 290.589C322.139 293.376 320.397 296.163 317.96 296.86C315.522 297.557 312.736 296.163 311.343 293.724C309.95 290.937 311.691 287.801 314.825 286.756C318.656 285.711 321.442 287.801 321.79 290.589Z" fill="#5C5C5C"/>
<path fill-rule="evenodd" clip-rule="evenodd" d="M348.955 297.906C347.214 299.996 344.08 300.693 341.99 299.648C340.946 298.951 340.249 297.906 339.553 296.86C339.204 295.815 338.856 294.421 339.553 293.028C339.901 291.634 340.945 290.589 342.338 290.24C343.731 289.892 345.473 289.892 346.866 290.589C350 291.982 350.697 295.815 348.955 297.906Z" fill="#5C5C5C"/>
</g>
</svg>
