<svg width="296" height="654" viewBox="0 0 296 654" fill="none" xmlns="http://www.w3.org/2000/svg">
<g opacity="0.08">
<path fill-rule="evenodd" clip-rule="evenodd" d="M289.412 350.169C286.626 349.821 284.536 347.382 284.536 344.595C284.884 341.807 286.974 339.368 290.108 339.717C292.894 339.717 295.332 342.156 294.984 345.291C294.984 348.427 292.546 350.518 289.412 350.169Z" fill="#5C5C5C"/>
<path fill-rule="evenodd" clip-rule="evenodd" d="M286.274 378.392C283.488 378.044 281.399 375.256 281.747 372.469C282.095 369.681 284.881 367.591 287.667 367.939C290.454 368.288 292.543 371.075 292.195 373.863C291.847 376.65 289.409 378.741 286.274 378.392Z" fill="#5C5C5C"/>
<path fill-rule="evenodd" clip-rule="evenodd" d="M280.703 405.57C277.917 404.873 276.176 402.085 276.872 399.298C277.569 396.51 280.355 394.768 283.141 395.465C285.927 396.162 287.669 398.949 286.972 401.737C286.275 404.524 283.489 406.615 280.703 405.57Z" fill="#5C5C5C"/>
<path fill-rule="evenodd" clip-rule="evenodd" d="M272.696 432.747C269.91 431.702 268.517 428.914 269.562 426.127C270.606 423.339 273.393 421.945 276.179 422.642C278.965 423.339 280.358 426.475 279.313 429.263C278.268 432.05 275.482 433.444 272.696 432.747Z" fill="#5C5C5C"/>
<path fill-rule="evenodd" clip-rule="evenodd" d="M262.248 458.879C259.462 457.834 258.417 454.698 259.462 451.911C260.507 449.472 263.641 448.078 266.427 449.123C269.213 450.168 270.606 453.304 269.213 456.092C268.168 458.531 265.034 459.924 262.248 458.879Z" fill="#5C5C5C"/>
<path fill-rule="evenodd" clip-rule="evenodd" d="M249.709 483.966C247.272 482.572 246.227 479.436 247.62 476.997C249.013 474.558 252.147 473.513 254.585 474.907C257.023 476.3 258.068 479.436 256.675 482.224C255.63 484.314 252.147 485.359 249.709 483.966Z" fill="#5C5C5C"/>
<path fill-rule="evenodd" clip-rule="evenodd" d="M235.082 507.659C232.644 505.917 231.948 502.781 233.689 500.342C235.082 497.903 238.565 497.206 241.002 498.948C243.44 500.342 244.137 503.826 242.396 506.265C240.654 508.704 237.52 509.401 235.082 507.659Z" fill="#5C5C5C"/>
<path fill-rule="evenodd" clip-rule="evenodd" d="M218.365 530.306C216.276 528.564 215.579 525.08 217.669 522.989C219.41 520.899 222.893 520.202 224.983 521.944C227.42 523.686 227.769 526.822 225.679 529.261C223.59 531.7 220.455 532.049 218.365 530.306Z" fill="#5C5C5C"/>
<path fill-rule="evenodd" clip-rule="evenodd" d="M199.559 551.212C197.47 549.122 197.469 545.986 199.211 543.895C200.952 541.805 204.435 541.805 206.524 543.547C208.614 545.637 208.614 548.773 206.872 550.864C204.783 552.954 201.649 553.303 199.559 551.212Z" fill="#5C5C5C"/>
<path fill-rule="evenodd" clip-rule="evenodd" d="M179.014 570.376C177.272 568.285 177.272 564.801 179.362 563.059C181.451 561.317 184.934 561.317 186.675 563.407C188.765 565.498 188.417 568.982 186.327 570.724C184.237 572.815 181.103 572.815 179.014 570.376Z" fill="#5C5C5C"/>
<path fill-rule="evenodd" clip-rule="evenodd" d="M157.072 587.797C155.331 585.358 156.027 582.222 158.117 580.48C160.206 578.738 163.689 579.086 165.43 581.525C167.171 583.964 166.823 587.1 164.385 588.842C162.296 590.933 158.813 590.236 157.072 587.797Z" fill="#5C5C5C"/>
<path fill-rule="evenodd" clip-rule="evenodd" d="M133.74 603.476C132.347 601.037 133.044 597.902 135.482 596.16C137.919 594.766 141.053 595.463 142.795 597.902C144.536 600.341 143.491 603.476 141.053 605.219C138.616 606.612 135.133 605.915 133.74 603.476Z" fill="#5C5C5C"/>
<path fill-rule="evenodd" clip-rule="evenodd" d="M109.012 616.717C107.619 614.278 108.663 610.793 111.45 609.748C113.887 608.354 117.022 609.4 118.415 612.187C119.808 614.626 118.763 617.762 115.977 619.156C113.539 620.549 110.405 619.504 109.012 616.717Z" fill="#5C5C5C"/>
<path fill-rule="evenodd" clip-rule="evenodd" d="M83.2436 627.866C82.1988 625.079 83.5918 622.291 86.0296 621.246C88.8157 620.201 91.6018 621.595 92.9949 624.034C94.0396 626.821 92.6466 629.608 90.2088 630.654C87.4227 632.047 84.2883 630.654 83.2436 627.866Z" fill="#5C5C5C"/>
<path fill-rule="evenodd" clip-rule="evenodd" d="M56.4275 636.577C55.731 633.79 57.124 631.002 59.9101 629.957C62.6962 629.26 65.4823 630.654 66.5271 633.441C67.5719 636.229 65.8306 639.365 63.0445 640.061C60.2584 641.107 57.4723 639.365 56.4275 636.577Z" fill="#5C5C5C"/>
<path fill-rule="evenodd" clip-rule="evenodd" d="M29.2619 643.197C28.5654 640.41 30.6551 637.622 33.4412 637.274C36.2273 636.577 39.0134 638.319 39.71 641.107C40.4065 643.894 38.6651 646.681 35.5307 647.378C32.7446 648.075 29.9585 645.985 29.2619 643.197Z" fill="#5C5C5C"/>
<path fill-rule="evenodd" clip-rule="evenodd" d="M1.40321 647.381C1.05495 644.594 3.14445 641.807 5.9305 641.458C8.71655 641.11 11.5026 643.2 11.8509 645.988C12.1992 648.775 10.1097 651.563 7.32361 651.911C4.53756 652.259 1.75146 650.169 1.40321 647.381Z" fill="#5C5C5C"/>
<path fill-rule="evenodd" clip-rule="evenodd" d="M19.8578 9.05931C19.5095 11.8467 16.7234 13.9372 13.9373 13.5888C11.1513 13.2404 9.06179 10.453 9.41004 7.66562C9.7583 4.87821 12.5444 2.78759 15.3305 3.13601C18.4648 3.48444 20.206 6.27189 19.8578 9.05931Z" fill="#5C5C5C"/>
<path fill-rule="evenodd" clip-rule="evenodd" d="M47.371 14.9823C46.6745 17.7697 43.8886 19.5118 41.1026 18.815C38.3166 18.1181 36.5752 15.3308 37.2717 12.5434C37.9682 9.75596 40.7542 8.01381 43.5401 8.71067C46.3261 9.05909 48.0675 12.1949 47.371 14.9823Z" fill="#5C5C5C"/>
<path fill-rule="evenodd" clip-rule="evenodd" d="M74.1878 22.9963C73.1431 25.7838 70.3571 27.1775 67.5711 26.1322C64.7851 25.0869 63.3921 22.2995 64.0886 19.512C64.7851 16.7246 67.9194 15.3309 70.7054 16.3762C73.8396 17.073 75.2326 20.2089 74.1878 22.9963Z" fill="#5C5C5C"/>
<path fill-rule="evenodd" clip-rule="evenodd" d="M100.308 33.4492C99.2634 36.2366 96.1292 37.2818 93.3432 36.2365C90.9054 35.1913 89.5122 32.0554 90.557 29.268C91.6017 26.4806 94.736 25.087 97.522 26.4807C100.308 27.5259 101.701 30.6618 100.308 33.4492Z" fill="#5C5C5C"/>
<path fill-rule="evenodd" clip-rule="evenodd" d="M125.381 45.9927C123.988 48.4317 120.853 49.4769 118.416 48.0832C115.978 46.6895 114.933 43.5536 116.326 41.1147C117.719 38.6757 120.853 37.6305 123.64 39.0242C126.077 40.0695 126.774 43.5537 125.381 45.9927Z" fill="#5C5C5C"/>
<path fill-rule="evenodd" clip-rule="evenodd" d="M149.41 60.6264C147.669 63.0654 144.534 63.7622 142.097 62.0201C139.659 60.6264 138.962 57.1422 140.704 54.7031C142.097 52.2641 145.579 51.5672 148.017 53.3093C150.455 55.0515 151.151 58.1874 149.41 60.6264Z" fill="#5C5C5C"/>
<path fill-rule="evenodd" clip-rule="evenodd" d="M171.7 77.3512C169.958 79.4417 166.476 80.1385 164.386 78.0479C162.297 76.3058 161.6 72.8215 163.341 70.731C165.083 68.292 168.217 67.9436 170.655 70.0342C173.441 71.7763 173.789 75.2606 171.7 77.3512Z" fill="#5C5C5C"/>
<path fill-rule="evenodd" clip-rule="evenodd" d="M192.943 96.1661C190.853 98.2567 187.719 98.2567 185.629 96.5145C183.54 94.7724 183.54 91.2881 185.281 89.1975C187.371 87.107 190.505 87.1069 192.594 88.8491C194.684 90.5912 194.684 94.0755 192.943 96.1661Z" fill="#5C5C5C"/>
<path fill-rule="evenodd" clip-rule="evenodd" d="M212.097 116.375C210.008 118.117 206.525 118.117 204.784 116.026C203.043 113.936 203.043 110.451 205.132 108.709C207.222 106.619 210.704 106.967 212.446 109.058C214.535 111.148 214.187 114.632 212.097 116.375Z" fill="#5C5C5C"/>
<path fill-rule="evenodd" clip-rule="evenodd" d="M229.509 138.674C227.071 140.416 223.937 139.719 222.196 137.629C220.454 135.538 220.803 132.054 223.24 130.312C225.678 128.57 228.813 128.918 230.554 131.357C232.295 133.448 231.947 136.932 229.509 138.674Z" fill="#5C5C5C"/>
<path fill-rule="evenodd" clip-rule="evenodd" d="M244.832 162.019C242.394 163.412 239.26 162.716 237.519 160.277C236.126 157.838 236.822 154.702 239.26 152.959C241.698 151.217 244.832 152.263 246.573 154.702C248.315 157.141 247.618 160.625 244.832 162.019Z" fill="#5C5C5C"/>
<path fill-rule="evenodd" clip-rule="evenodd" d="M258.414 186.757C255.977 188.151 252.494 187.105 251.449 184.318C250.056 181.879 251.101 178.743 253.887 177.349C256.325 175.956 259.459 177.001 260.852 179.788C261.897 182.227 260.852 185.363 258.414 186.757Z" fill="#5C5C5C"/>
<path fill-rule="evenodd" clip-rule="evenodd" d="M269.561 212.541C266.775 213.586 263.988 212.192 262.944 209.753C261.899 206.966 263.292 204.179 265.73 202.785C268.516 201.74 271.302 203.133 272.347 205.572C273.392 208.36 271.999 211.496 269.561 212.541Z" fill="#5C5C5C"/>
<path fill-rule="evenodd" clip-rule="evenodd" d="M278.267 239.021C275.481 239.718 272.695 238.324 271.65 235.537C270.954 232.75 272.347 229.962 275.133 228.917C277.919 227.872 281.053 229.614 281.749 232.401C282.794 235.537 281.053 238.324 278.267 239.021Z" fill="#5C5C5C"/>
<path fill-rule="evenodd" clip-rule="evenodd" d="M284.883 266.547C282.097 267.244 279.31 265.153 278.962 262.366C278.266 259.578 280.007 256.791 282.793 256.094C285.579 255.397 288.365 257.139 289.062 260.275C289.41 263.063 287.669 265.85 284.883 266.547Z" fill="#5C5C5C"/>
<path fill-rule="evenodd" clip-rule="evenodd" d="M288.713 294.073C285.927 294.421 283.141 292.331 282.793 289.543C282.445 286.756 284.534 283.968 287.32 283.62C290.106 283.272 292.892 285.362 293.241 288.15C293.589 291.285 291.848 294.073 288.713 294.073Z" fill="#5C5C5C"/>
<path fill-rule="evenodd" clip-rule="evenodd" d="M290.456 322.295C287.67 322.295 285.232 320.205 285.232 317.069C285.232 314.282 287.322 311.843 290.456 311.494C293.242 311.494 295.68 313.585 295.68 316.721C295.68 319.856 293.242 322.295 290.456 322.295Z" fill="#5C5C5C"/>
<path fill-rule="evenodd" clip-rule="evenodd" d="M260.856 350.171C258.07 349.823 255.98 347.384 255.98 344.596C256.329 341.809 258.418 339.718 261.553 339.718C264.339 339.718 266.776 342.157 266.428 345.293C266.428 348.081 263.99 350.52 260.856 350.171Z" fill="#5C5C5C"/>
<path fill-rule="evenodd" clip-rule="evenodd" d="M257.371 378.044C254.585 377.695 252.495 374.908 253.192 372.12C253.54 369.333 256.326 367.242 259.112 367.591C261.898 367.939 263.988 370.727 263.639 373.514C262.943 376.302 260.505 378.392 257.371 378.044Z" fill="#5C5C5C"/>
<path fill-rule="evenodd" clip-rule="evenodd" d="M251.449 405.221C248.663 404.524 246.922 401.737 247.967 398.95C248.663 396.162 251.449 394.42 254.235 395.117C257.021 395.814 258.763 398.601 258.066 401.389C257.022 404.176 254.235 405.918 251.449 405.221Z" fill="#5C5C5C"/>
<path fill-rule="evenodd" clip-rule="evenodd" d="M242.744 431.702C239.957 430.656 238.913 427.869 239.609 425.081C240.654 422.294 243.44 420.9 246.226 421.946C249.012 422.991 250.405 425.778 249.36 428.566C248.664 431.353 245.53 432.747 242.744 431.702Z" fill="#5C5C5C"/>
<path fill-rule="evenodd" clip-rule="evenodd" d="M231.6 457.137C228.814 455.743 228.118 452.956 229.162 450.168C230.207 447.729 233.341 446.336 236.127 447.729C238.913 448.775 239.958 451.911 238.565 454.698C237.52 457.485 234.038 458.531 231.6 457.137Z" fill="#5C5C5C"/>
<path fill-rule="evenodd" clip-rule="evenodd" d="M218.018 481.527C215.58 480.133 214.883 476.997 216.276 474.21C217.669 471.771 220.804 471.074 223.242 472.467C225.68 473.861 226.725 476.997 224.983 479.785C223.59 482.572 220.456 483.269 218.018 481.527Z" fill="#5C5C5C"/>
<path fill-rule="evenodd" clip-rule="evenodd" d="M201.999 504.523C199.561 502.781 199.213 499.645 200.955 497.206C202.696 494.767 205.83 494.418 208.268 496.161C210.706 497.903 211.054 501.039 209.313 503.478C207.92 505.916 204.437 506.265 201.999 504.523Z" fill="#5C5C5C"/>
<path fill-rule="evenodd" clip-rule="evenodd" d="M184.237 526.125C182.147 524.035 182.147 520.899 183.889 518.808C185.63 516.718 189.112 516.369 191.202 518.46C193.292 520.202 193.64 523.686 191.55 525.777C189.809 527.868 186.326 527.868 184.237 526.125Z" fill="#5C5C5C"/>
<path fill-rule="evenodd" clip-rule="evenodd" d="M164.385 545.637C162.296 543.547 162.644 540.411 164.734 538.32C166.823 536.23 169.957 536.578 172.047 538.669C174.137 540.759 173.788 544.244 171.699 545.986C169.609 548.076 166.127 547.728 164.385 545.637Z" fill="#5C5C5C"/>
<path fill-rule="evenodd" clip-rule="evenodd" d="M142.793 563.059C141.052 560.62 141.749 557.484 143.838 555.742C145.928 554 149.41 554.348 151.152 556.787C152.893 558.878 152.545 562.362 150.107 564.104C147.669 566.195 144.187 565.498 142.793 563.059Z" fill="#5C5C5C"/>
<path fill-rule="evenodd" clip-rule="evenodd" d="M119.46 578.738C118.067 576.299 118.763 573.163 121.201 571.421C123.639 570.027 126.773 570.724 128.514 573.163C130.256 575.602 129.211 578.738 126.773 580.48C124.335 581.874 120.853 581.177 119.46 578.738Z" fill="#5C5C5C"/>
<path fill-rule="evenodd" clip-rule="evenodd" d="M94.7331 591.978C93.34 589.539 94.7331 586.403 97.1709 585.01C99.6087 583.616 102.743 584.661 104.136 587.449C105.529 589.888 104.484 593.023 101.698 594.417C99.2604 595.811 96.1261 594.417 94.7331 591.978Z" fill="#5C5C5C"/>
<path fill-rule="evenodd" clip-rule="evenodd" d="M68.9641 602.779C67.9193 599.992 69.3122 596.856 72.0983 596.159C74.8843 595.114 77.6705 596.507 78.7152 599.295C79.76 602.082 78.3669 604.87 75.5808 606.264C73.143 606.96 70.0089 605.567 68.9641 602.779Z" fill="#5C5C5C"/>
<path fill-rule="evenodd" clip-rule="evenodd" d="M42.4966 611.142C41.8 608.354 43.5413 605.567 45.9792 604.521C48.7653 603.825 51.5513 605.218 52.2479 608.006C52.9444 610.793 51.5513 613.581 48.7652 614.626C45.9791 615.323 43.1931 613.929 42.4966 611.142Z" fill="#5C5C5C"/>
<path fill-rule="evenodd" clip-rule="evenodd" d="M14.9836 616.716C14.6354 613.929 16.3765 611.142 19.1625 610.793C21.9486 610.445 24.7347 612.187 25.0829 614.974C25.7794 617.762 23.6899 620.549 20.9038 620.898C18.466 621.594 15.6801 619.504 14.9836 616.716Z" fill="#5C5C5C"/>
<path fill-rule="evenodd" clip-rule="evenodd" d="M5.92826 35.8879C5.58 38.6753 3.14211 40.7659 0.00774145 40.4175C-2.77837 40.0691 -4.86791 37.6301 -4.51964 34.8427C-4.17138 32.0553 -1.73349 29.6164 1.40088 29.9648C4.18699 30.6617 6.27653 33.1005 5.92826 35.8879Z" fill="#5C5C5C"/>
<path fill-rule="evenodd" clip-rule="evenodd" d="M33.0934 40.766C32.3969 43.5534 29.6109 45.2954 26.8248 44.5986C24.0388 43.9017 22.2975 41.4628 22.6457 38.6754C22.994 35.888 25.7802 33.7974 28.9145 34.4942C32.0488 35.1911 33.7899 37.9786 33.0934 40.766Z" fill="#5C5C5C"/>
<path fill-rule="evenodd" clip-rule="evenodd" d="M60.2567 48.083C59.212 50.8705 56.4258 52.2642 53.6396 51.5673C50.8535 50.8705 49.4605 48.0831 50.157 45.2957C50.8535 42.5083 53.988 40.7662 56.7741 41.8114C59.5602 42.5083 60.9533 45.6441 60.2567 48.083Z" fill="#5C5C5C"/>
<path fill-rule="evenodd" clip-rule="evenodd" d="M86.3763 58.1875C85.3315 60.9749 82.1972 62.0201 79.4111 60.9749C76.6251 59.9296 75.5801 56.7938 76.6249 54.3548C77.6697 51.5674 80.804 50.5221 83.5901 51.5673C86.0279 52.2642 87.4211 55.7485 86.3763 58.1875Z" fill="#5C5C5C"/>
<path fill-rule="evenodd" clip-rule="evenodd" d="M111.101 70.7305C109.708 73.1695 106.574 74.2148 104.136 72.8211C101.698 71.4273 100.654 68.2915 102.047 65.8525C103.44 63.4135 106.574 62.3682 109.012 63.7619C111.798 64.8072 112.495 67.943 111.101 70.7305Z" fill="#5C5C5C"/>
<path fill-rule="evenodd" clip-rule="evenodd" d="M134.784 85.3647C133.043 87.8037 129.909 88.1521 127.471 86.7584C125.033 85.3647 124.336 81.8804 126.078 79.4414C127.471 77.0024 130.954 76.3056 133.391 78.0477C135.829 79.4414 136.526 82.9257 134.784 85.3647Z" fill="#5C5C5C"/>
<path fill-rule="evenodd" clip-rule="evenodd" d="M157.072 102.089C155.331 104.18 151.848 104.528 149.759 102.786C147.669 101.044 147.321 97.908 149.062 95.4691C150.804 93.0301 154.286 92.6817 156.376 94.7723C158.813 96.5144 158.813 99.9986 157.072 102.089Z" fill="#5C5C5C"/>
<path fill-rule="evenodd" clip-rule="evenodd" d="M177.62 121.253C175.53 123.343 172.396 123.343 170.306 121.253C168.217 119.162 168.217 116.026 170.306 113.936C172.396 111.845 175.53 111.845 177.62 113.936C179.709 115.678 179.709 119.162 177.62 121.253Z" fill="#5C5C5C"/>
<path fill-rule="evenodd" clip-rule="evenodd" d="M196.427 141.81C194.338 143.552 190.855 143.204 189.114 141.113C187.372 139.023 187.372 135.538 189.81 133.796C191.9 132.054 195.382 132.054 197.124 134.493C198.865 136.932 198.517 140.068 196.427 141.81Z" fill="#5C5C5C"/>
<path fill-rule="evenodd" clip-rule="evenodd" d="M212.793 164.458C210.356 166.2 207.221 165.503 205.48 163.064C203.739 160.625 204.435 157.489 206.873 155.747C209.311 154.005 212.445 154.702 214.186 157.141C215.928 159.58 215.231 162.716 212.793 164.458Z" fill="#5C5C5C"/>
<path fill-rule="evenodd" clip-rule="evenodd" d="M227.072 188.499C224.634 189.893 221.5 188.848 220.107 186.409C218.714 183.97 219.41 180.834 222.196 179.44C224.634 178.046 227.768 178.743 229.51 181.531C230.554 183.621 229.858 187.106 227.072 188.499Z" fill="#5C5C5C"/>
<path fill-rule="evenodd" clip-rule="evenodd" d="M239.262 213.586C236.476 214.631 233.69 213.586 232.297 210.799C231.252 208.36 232.297 205.224 235.083 203.83C237.521 202.785 240.655 203.83 242.048 206.617C243.093 209.405 242.048 212.541 239.262 213.586Z" fill="#5C5C5C"/>
<path fill-rule="evenodd" clip-rule="evenodd" d="M248.663 239.718C245.877 240.415 243.091 239.021 242.047 236.234C241.002 233.446 242.743 230.659 245.181 229.614C247.967 228.568 250.753 229.962 251.798 233.098C253.191 235.885 251.45 239.021 248.663 239.718Z" fill="#5C5C5C"/>
<path fill-rule="evenodd" clip-rule="evenodd" d="M255.629 266.895C252.843 267.592 250.057 265.85 249.361 263.063C248.664 260.275 250.405 257.488 253.191 256.791C255.977 256.094 258.763 257.836 259.46 260.624C260.505 263.411 258.763 266.199 255.629 266.895Z" fill="#5C5C5C"/>
<path fill-rule="evenodd" clip-rule="evenodd" d="M260.157 294.421C257.371 294.77 254.584 292.679 254.236 289.892C253.888 287.104 255.978 284.317 258.764 283.969C261.55 283.62 264.336 285.711 264.684 288.498C265.032 291.634 262.943 294.073 260.157 294.421Z" fill="#5C5C5C"/>
<path fill-rule="evenodd" clip-rule="evenodd" d="M261.901 322.295C259.115 322.295 256.677 320.205 256.677 317.069C256.677 314.282 258.766 311.843 261.901 311.494C264.687 311.494 267.125 313.585 267.125 316.721C267.125 319.856 264.687 322.295 261.901 322.295Z" fill="#5C5C5C"/>
<path fill-rule="evenodd" clip-rule="evenodd" d="M232.297 350.171C229.511 349.823 227.422 347.384 227.422 344.596C227.77 341.809 230.208 339.718 232.994 339.718C235.78 339.718 238.218 342.157 237.87 345.293C237.87 348.081 235.432 350.171 232.297 350.171Z" fill="#5C5C5C"/>
<path fill-rule="evenodd" clip-rule="evenodd" d="M228.466 377.347C225.679 376.65 223.59 374.211 224.286 371.424C224.635 368.636 227.421 366.894 230.207 367.243C232.993 367.591 235.082 370.378 234.386 373.166C234.038 376.302 231.6 378.044 228.466 377.347Z" fill="#5C5C5C"/>
<path fill-rule="evenodd" clip-rule="evenodd" d="M221.848 404.524C219.062 403.827 217.32 400.691 218.365 398.252C219.41 395.813 222.196 394.071 224.982 394.768C227.768 395.465 229.509 398.252 228.464 401.04C227.42 403.827 224.634 405.221 221.848 404.524Z" fill="#5C5C5C"/>
<path fill-rule="evenodd" clip-rule="evenodd" d="M212.444 430.308C209.658 429.263 208.613 426.127 209.658 423.688C210.703 421.249 213.837 419.855 216.275 420.9C219.061 421.946 220.454 425.082 219.061 427.521C218.016 430.308 215.23 431.702 212.444 430.308Z" fill="#5C5C5C"/>
<path fill-rule="evenodd" clip-rule="evenodd" d="M200.258 455.395C197.821 454.001 196.776 450.865 198.169 448.426C199.562 445.987 202.696 444.942 205.134 446.336C207.572 447.729 208.617 450.865 207.224 453.304C206.179 455.743 202.696 456.788 200.258 455.395Z" fill="#5C5C5C"/>
<path fill-rule="evenodd" clip-rule="evenodd" d="M185.63 478.739C183.192 476.997 182.844 473.861 184.237 471.422C185.63 468.983 189.112 468.286 191.55 470.029C193.988 471.422 194.684 474.907 192.943 477.346C191.202 479.785 188.067 480.481 185.63 478.739Z" fill="#5C5C5C"/>
<path fill-rule="evenodd" clip-rule="evenodd" d="M168.563 500.69C166.474 498.948 166.126 495.464 167.867 493.373C169.608 491.283 172.743 490.934 175.18 492.676C177.27 494.418 177.966 497.903 175.877 499.993C174.135 502.432 170.653 502.432 168.563 500.69Z" fill="#5C5C5C"/>
<path fill-rule="evenodd" clip-rule="evenodd" d="M149.409 520.551C147.32 518.46 147.668 514.976 149.409 513.234C151.499 511.492 154.633 511.492 156.723 513.234C158.812 515.324 158.812 518.46 156.723 520.551C154.633 522.99 151.151 522.641 149.409 520.551Z" fill="#5C5C5C"/>
<path fill-rule="evenodd" clip-rule="evenodd" d="M128.167 538.32C126.425 535.881 126.774 532.745 128.863 531.003C130.953 529.261 134.435 529.61 136.177 532.049C137.918 534.139 137.57 537.623 135.48 539.366C133.042 541.108 129.908 540.759 128.167 538.32Z" fill="#5C5C5C"/>
<path fill-rule="evenodd" clip-rule="evenodd" d="M105.183 554C103.79 551.561 104.486 548.425 106.924 546.683C109.362 545.289 112.496 545.986 114.237 548.425C115.979 550.864 115.282 554 112.496 555.742C109.71 557.135 106.576 556.439 105.183 554Z" fill="#5C5C5C"/>
<path fill-rule="evenodd" clip-rule="evenodd" d="M80.8044 566.891C79.4113 564.104 80.8044 561.316 83.2422 559.923C85.68 558.529 88.8143 559.574 90.2074 562.362C91.6004 564.801 90.5556 567.936 87.7695 569.33C84.9835 570.724 81.8491 569.679 80.8044 566.891Z" fill="#5C5C5C"/>
<path fill-rule="evenodd" clip-rule="evenodd" d="M55.0315 577.344C53.9867 574.557 55.3796 571.769 58.1657 570.724C60.6034 569.679 63.7378 571.072 64.7826 573.86C65.8274 576.647 64.4343 579.435 61.6482 580.828C58.8622 581.525 56.0762 580.132 55.0315 577.344Z" fill="#5C5C5C"/>
<path fill-rule="evenodd" clip-rule="evenodd" d="M28.2161 585.01C27.5196 582.222 29.2608 579.435 32.0468 578.738C34.8328 578.041 37.6188 579.783 38.3153 582.571C39.0118 585.358 37.2706 588.494 34.4846 588.842C31.6986 589.539 28.9126 587.797 28.2161 585.01Z" fill="#5C5C5C"/>
<path fill-rule="evenodd" clip-rule="evenodd" d="M1.05165 589.888C0.703382 587.101 2.79293 584.313 5.57904 583.965C8.36516 583.616 10.8031 585.358 11.4996 588.494C11.8478 591.282 10.1064 594.069 6.97197 594.418C4.18586 594.766 1.39991 592.675 1.05165 589.888Z" fill="#5C5C5C"/>
<path fill-rule="evenodd" clip-rule="evenodd" d="M19.1596 66.8982C18.4632 69.6856 16.0256 71.7761 13.2397 71.0793C10.4538 70.7308 8.71251 67.9435 9.06076 65.1561C9.409 62.3687 12.195 60.2781 14.9809 60.975C17.7668 61.3234 19.8561 64.1108 19.1596 66.8982Z" fill="#5C5C5C"/>
<path fill-rule="evenodd" clip-rule="evenodd" d="M45.9774 73.5184C45.2809 76.3058 42.1466 78.0479 39.7089 77.0026C36.9228 76.3058 35.5298 73.17 36.2263 70.3826C36.9228 67.5951 39.7088 65.853 42.4949 66.8983C45.2809 67.9436 47.0222 71.0794 45.9774 73.5184Z" fill="#5C5C5C"/>
<path fill-rule="evenodd" clip-rule="evenodd" d="M72.0956 83.2742C71.0508 86.0617 67.9167 87.1071 65.4789 86.0618C63.0412 85.0165 61.648 81.8805 62.6927 79.4415C63.7375 76.654 66.8718 75.2603 69.3096 76.6541C72.0956 77.3509 73.1403 80.4868 72.0956 83.2742Z" fill="#5C5C5C"/>
<path fill-rule="evenodd" clip-rule="evenodd" d="M96.8243 95.469C95.4313 97.908 92.2969 98.9532 89.8591 97.5595C87.4213 96.1658 86.3764 93.03 87.7694 90.591C89.1625 88.1521 92.2968 87.1068 94.7346 88.5005C97.5207 89.5457 98.5656 92.6816 96.8243 95.469Z" fill="#5C5C5C"/>
<path fill-rule="evenodd" clip-rule="evenodd" d="M120.505 110.103C118.763 112.542 115.629 112.891 113.191 111.497C110.753 110.103 110.057 106.619 111.798 104.18C113.191 101.741 116.674 101.044 119.112 102.786C121.549 104.528 122.246 107.664 120.505 110.103Z" fill="#5C5C5C"/>
<path fill-rule="evenodd" clip-rule="evenodd" d="M142.444 127.176C140.703 129.267 137.22 129.615 135.131 127.873C133.041 126.131 132.693 122.995 134.434 120.556C136.175 118.465 139.658 117.768 141.747 119.859C143.837 121.601 144.185 125.085 142.444 127.176Z" fill="#5C5C5C"/>
<path fill-rule="evenodd" clip-rule="evenodd" d="M162.295 146.34C160.206 148.43 156.723 148.082 154.982 146.34C153.24 144.249 153.24 141.113 154.982 139.023C157.071 136.932 160.206 136.932 162.295 139.023C164.385 141.113 164.385 144.249 162.295 146.34Z" fill="#5C5C5C"/>
<path fill-rule="evenodd" clip-rule="evenodd" d="M180.056 167.594C177.618 169.336 174.484 168.987 172.743 166.897C171.001 164.806 171.35 161.322 173.787 159.58C175.877 157.838 179.36 158.186 181.101 160.277C182.842 162.716 182.494 165.852 180.056 167.594Z" fill="#5C5C5C"/>
<path fill-rule="evenodd" clip-rule="evenodd" d="M195.728 190.59C193.291 191.984 190.156 191.287 188.415 188.848C187.022 186.409 187.719 183.273 190.156 181.531C192.594 179.789 195.728 180.486 197.47 183.273C198.863 185.712 198.166 189.196 195.728 190.59Z" fill="#5C5C5C"/>
<path fill-rule="evenodd" clip-rule="evenodd" d="M208.615 214.98C205.829 216.374 203.043 214.98 201.649 212.541C200.256 210.102 201.301 206.966 204.087 205.572C206.525 204.179 209.659 205.224 211.052 208.011C212.446 210.45 211.052 213.935 208.615 214.98Z" fill="#5C5C5C"/>
<path fill-rule="evenodd" clip-rule="evenodd" d="M219.063 240.763C216.277 241.809 213.491 240.415 212.446 237.628C211.402 235.189 212.795 232.053 215.581 231.007C218.367 229.962 221.153 231.356 222.546 234.143C223.242 236.931 221.849 239.718 219.063 240.763Z" fill="#5C5C5C"/>
<path fill-rule="evenodd" clip-rule="evenodd" d="M226.726 267.244C223.94 267.941 221.154 266.199 220.457 263.412C219.761 260.624 221.502 257.837 224.288 257.14C227.074 256.443 230.208 258.185 230.557 260.973C231.253 263.76 229.512 266.547 226.726 267.244Z" fill="#5C5C5C"/>
<path fill-rule="evenodd" clip-rule="evenodd" d="M231.253 294.773C228.467 295.121 225.681 293.031 225.333 290.243C224.985 287.456 226.726 285.017 229.86 284.32C232.646 283.972 235.432 285.714 235.781 288.85C236.477 291.637 234.388 294.424 231.253 294.773Z" fill="#5C5C5C"/>
<path fill-rule="evenodd" clip-rule="evenodd" d="M233.341 322.297C230.555 322.297 228.117 320.207 228.117 317.419C228.117 314.632 230.207 312.193 232.993 312.193C235.779 312.193 238.217 314.283 238.565 317.071C238.565 319.858 236.127 322.297 233.341 322.297Z" fill="#5C5C5C"/>
<path fill-rule="evenodd" clip-rule="evenodd" d="M203.741 350.171C200.955 349.823 198.865 347.384 198.865 344.596C199.213 341.809 201.651 339.718 204.437 339.718C207.223 339.718 209.313 342.506 209.313 345.293C209.313 348.429 206.527 350.52 203.741 350.171Z" fill="#5C5C5C"/>
<path fill-rule="evenodd" clip-rule="evenodd" d="M199.56 378.044C196.774 377.347 195.033 374.56 195.381 371.772C195.729 368.985 198.515 367.243 201.301 367.591C204.088 367.939 206.177 370.727 205.48 373.863C205.132 376.65 201.998 378.392 199.56 378.044Z" fill="#5C5C5C"/>
<path fill-rule="evenodd" clip-rule="evenodd" d="M191.898 404.873C189.112 403.828 187.719 401.04 188.764 398.253C189.809 395.465 192.595 394.072 195.381 394.768C198.167 395.465 199.908 398.601 198.863 401.389C197.47 404.176 194.336 405.918 191.898 404.873Z" fill="#5C5C5C"/>
<path fill-rule="evenodd" clip-rule="evenodd" d="M181.102 430.656C178.665 429.263 177.272 426.127 178.665 423.688C179.71 421.249 182.844 419.855 185.63 421.249C188.416 422.294 189.46 425.43 188.067 428.217C186.674 431.005 183.54 432.05 181.102 430.656Z" fill="#5C5C5C"/>
<path fill-rule="evenodd" clip-rule="evenodd" d="M167.173 455.047C164.735 453.304 164.039 450.169 165.432 447.73C166.825 445.291 169.959 444.594 172.397 445.987C174.835 447.381 175.879 450.865 174.138 453.304C172.745 455.743 169.611 456.789 167.173 455.047Z" fill="#5C5C5C"/>
<path fill-rule="evenodd" clip-rule="evenodd" d="M150.804 477.694C148.714 475.952 148.366 472.467 150.107 470.377C151.848 468.286 154.983 467.938 157.42 469.332C159.858 471.074 160.206 474.21 158.117 476.649C156.376 479.088 152.893 479.436 150.804 477.694Z" fill="#5C5C5C"/>
<path fill-rule="evenodd" clip-rule="evenodd" d="M131.648 498.251C129.559 496.161 129.559 493.025 131.648 490.934C133.738 488.844 136.872 488.844 138.961 490.934C141.051 493.025 141.051 496.161 138.961 498.251C136.872 500.342 133.738 500.342 131.648 498.251Z" fill="#5C5C5C"/>
<path fill-rule="evenodd" clip-rule="evenodd" d="M110.406 516.37C108.664 513.931 109.013 510.795 111.45 509.053C113.54 507.311 117.023 507.659 118.764 510.098C120.505 512.188 120.157 515.673 117.719 517.415C115.281 518.809 112.147 518.46 110.406 516.37Z" fill="#5C5C5C"/>
<path fill-rule="evenodd" clip-rule="evenodd" d="M86.7246 531.7C85.3316 529.261 86.0281 526.126 88.4659 524.732C90.9037 523.338 94.038 524.035 95.431 526.474C96.824 528.913 96.1275 532.049 93.6897 533.791C91.6002 534.836 88.4659 534.139 86.7246 531.7Z" fill="#5C5C5C"/>
<path fill-rule="evenodd" clip-rule="evenodd" d="M61.9982 544.243C60.9534 541.456 61.998 538.32 64.4358 537.275C66.8737 536.23 70.008 537.275 71.4011 539.714C72.7941 542.501 71.4012 545.289 68.9634 546.682C66.1773 548.076 63.043 547.031 61.9982 544.243Z" fill="#5C5C5C"/>
<path fill-rule="evenodd" clip-rule="evenodd" d="M35.532 553.651C34.8355 550.864 36.2285 548.076 39.0146 547.031C41.8006 545.986 44.5868 547.728 45.6316 550.167C46.6763 552.954 44.9351 555.742 42.149 556.787C39.3629 558.181 36.2285 556.438 35.532 553.651Z" fill="#5C5C5C"/>
<path fill-rule="evenodd" clip-rule="evenodd" d="M8.36642 559.923C8.01816 557.135 9.75951 554.348 12.5456 553.999C15.3317 553.651 18.1177 555.393 18.8143 558.181C19.5108 560.968 17.4212 563.755 14.6351 564.452C11.5007 564.801 8.71468 562.71 8.36642 559.923Z" fill="#5C5C5C"/>
<path fill-rule="evenodd" clip-rule="evenodd" d="M26.4767 97.9084C25.7802 100.696 22.9942 102.438 20.2081 101.741C17.4221 101.044 15.6807 98.2567 16.3772 95.4693C17.0737 92.6819 19.8597 90.9398 22.6457 91.6366C25.4318 92.3335 27.1732 95.121 26.4767 97.9084Z" fill="#5C5C5C"/>
<path fill-rule="evenodd" clip-rule="evenodd" d="M52.9418 106.27C51.897 109.058 49.1111 110.103 46.325 109.406C43.539 108.361 42.1458 105.573 43.1906 102.786C44.2354 99.9986 47.0215 98.6049 49.8076 99.6502C52.5936 100.347 53.9865 103.483 52.9418 106.27Z" fill="#5C5C5C"/>
<path fill-rule="evenodd" clip-rule="evenodd" d="M78.7126 117.768C77.3196 120.207 74.1853 121.253 71.7475 120.207C69.3097 118.814 68.2649 115.678 69.3097 113.239C70.3544 110.451 73.837 109.406 76.2748 110.8C78.7126 112.193 79.7574 115.329 78.7126 117.768Z" fill="#5C5C5C"/>
<path fill-rule="evenodd" clip-rule="evenodd" d="M102.398 132.402C100.657 134.841 97.5228 135.19 95.085 133.796C92.6472 132.402 91.9506 128.918 93.6919 126.479C95.0849 124.04 98.5674 123.343 101.005 125.085C103.443 126.479 104.14 129.963 102.398 132.402Z" fill="#5C5C5C"/>
<path fill-rule="evenodd" clip-rule="evenodd" d="M124.682 149.476C122.941 151.566 119.459 151.915 117.369 150.172C115.28 148.43 114.931 145.294 116.672 142.855C118.414 140.765 121.896 140.068 123.986 142.158C126.075 143.901 126.424 147.385 124.682 149.476Z" fill="#5C5C5C"/>
<path fill-rule="evenodd" clip-rule="evenodd" d="M144.536 169.336C142.446 171.078 138.964 171.078 137.222 168.987C135.133 166.897 135.481 163.761 137.57 161.67C139.66 159.58 142.794 159.58 144.884 162.019C146.974 163.761 146.625 167.245 144.536 169.336Z" fill="#5C5C5C"/>
<path fill-rule="evenodd" clip-rule="evenodd" d="M161.947 190.938C159.51 192.68 156.375 191.984 154.634 189.893C152.893 187.454 153.241 184.318 155.679 182.576C157.768 180.834 161.251 181.183 162.992 183.622C164.734 186.06 164.385 189.545 161.947 190.938Z" fill="#5C5C5C"/>
<path fill-rule="evenodd" clip-rule="evenodd" d="M176.575 214.98C174.137 216.373 171.003 215.328 169.61 212.889C168.217 210.45 168.913 207.314 171.699 205.92C174.137 204.527 177.271 205.224 179.012 208.011C180.057 210.45 179.361 213.586 176.575 214.98Z" fill="#5C5C5C"/>
<path fill-rule="evenodd" clip-rule="evenodd" d="M188.414 240.415C185.628 241.46 182.842 240.067 181.797 237.628C180.752 235.189 181.797 232.053 184.583 230.659C187.369 229.614 190.503 230.659 191.548 233.446C192.593 236.234 191.2 239.37 188.414 240.415Z" fill="#5C5C5C"/>
<path fill-rule="evenodd" clip-rule="evenodd" d="M197.122 266.895C194.336 267.592 191.549 265.85 190.505 263.411C189.808 260.624 191.201 257.836 193.987 256.791C196.773 256.094 199.559 257.488 200.604 260.275C201.649 263.411 199.908 266.198 197.122 266.895Z" fill="#5C5C5C"/>
<path fill-rule="evenodd" clip-rule="evenodd" d="M202.693 294.421C199.907 294.77 197.469 292.679 196.773 289.892C196.424 287.104 198.166 284.317 200.952 283.969C203.738 283.272 206.524 285.362 206.872 288.15C207.568 291.286 205.479 294.073 202.693 294.421Z" fill="#5C5C5C"/>
<path fill-rule="evenodd" clip-rule="evenodd" d="M204.785 322.297C201.999 322.297 199.562 320.206 199.562 317.419C199.562 314.632 201.651 312.193 204.437 311.844C207.223 311.496 210.009 313.935 210.009 316.722C210.009 319.858 207.572 322.297 204.785 322.297Z" fill="#5C5C5C"/>
<path fill-rule="evenodd" clip-rule="evenodd" d="M175.184 350.17C172.398 349.821 170.309 347.382 170.309 344.595C170.657 341.807 173.095 339.717 175.881 339.717C178.667 339.717 180.756 342.504 180.756 345.292C180.756 348.079 177.97 350.518 175.184 350.17Z" fill="#5C5C5C"/>
<path fill-rule="evenodd" clip-rule="evenodd" d="M170.306 377.347C167.52 376.65 165.778 373.862 166.475 371.075C167.171 368.288 169.957 366.545 172.743 367.242C175.53 367.939 177.619 370.727 176.923 373.514C175.878 376.301 173.092 378.043 170.306 377.347Z" fill="#5C5C5C"/>
<path fill-rule="evenodd" clip-rule="evenodd" d="M161.6 403.827C158.814 402.782 157.421 399.646 158.466 397.207C159.511 394.42 162.297 393.026 165.083 394.071C167.869 395.117 169.262 397.904 168.217 400.692C167.521 403.479 164.386 404.873 161.6 403.827Z" fill="#5C5C5C"/>
<path fill-rule="evenodd" clip-rule="evenodd" d="M149.76 428.914C147.322 427.52 146.278 424.384 147.671 421.945C149.064 419.506 152.198 418.461 154.636 419.855C157.074 421.248 158.118 424.384 156.725 426.823C155.681 429.262 152.198 430.307 149.76 428.914Z" fill="#5C5C5C"/>
<path fill-rule="evenodd" clip-rule="evenodd" d="M134.437 451.91C131.999 450.168 131.651 447.032 133.392 444.593C135.133 442.154 138.268 441.806 140.705 443.548C143.143 445.29 143.491 448.426 142.098 450.865C140.357 453.304 136.875 454.001 134.437 451.91Z" fill="#5C5C5C"/>
<path fill-rule="evenodd" clip-rule="evenodd" d="M116.328 473.164C114.239 471.074 114.239 467.938 115.98 465.847C118.07 463.757 121.204 463.757 123.293 465.499C125.383 467.59 125.731 470.725 123.642 472.816C121.9 474.907 118.418 475.255 116.328 473.164Z" fill="#5C5C5C"/>
<path fill-rule="evenodd" clip-rule="evenodd" d="M95.779 491.283C94.0377 488.843 94.386 485.708 96.4755 483.965C98.5651 482.223 101.7 482.572 103.789 484.662C105.53 486.753 105.53 490.237 103.093 491.979C100.655 494.07 97.5203 493.722 95.779 491.283Z" fill="#5C5C5C"/>
<path fill-rule="evenodd" clip-rule="evenodd" d="M72.795 506.962C71.4019 504.523 72.0984 501.387 74.5363 499.993C76.9741 498.6 80.1085 499.296 81.5015 501.735C83.2428 504.174 82.198 507.31 79.7602 509.052C77.3224 510.446 74.188 509.401 72.795 506.962Z" fill="#5C5C5C"/>
<path fill-rule="evenodd" clip-rule="evenodd" d="M47.7197 519.157C46.6749 516.369 47.7196 513.582 50.5057 512.188C52.9435 511.143 56.0778 512.188 57.4708 514.976C58.8638 517.415 57.4708 520.551 54.6848 521.944C51.8987 523.338 48.7644 521.944 47.7197 519.157Z" fill="#5C5C5C"/>
<path fill-rule="evenodd" clip-rule="evenodd" d="M21.6001 528.216C20.9036 525.428 22.6448 522.641 25.0826 521.596C27.8687 520.899 30.6547 522.293 31.3512 525.08C32.396 527.867 30.6547 530.655 27.8686 531.7C25.0826 532.397 22.2966 531.003 21.6001 528.216Z" fill="#5C5C5C"/>
<path fill-rule="evenodd" clip-rule="evenodd" d="M-5.91027 533.094C-6.25852 530.306 -4.16906 527.519 -1.38306 527.171C1.40294 526.822 3.84074 528.564 4.53724 531.352C4.88549 534.139 3.14407 536.926 0.00981522 537.275C-2.77619 537.972 -5.56202 536.23 -5.91027 533.094Z" fill="#5C5C5C"/>
<path fill-rule="evenodd" clip-rule="evenodd" d="M12.1963 123.692C11.4998 126.479 8.71386 128.221 6.27604 127.873C3.48997 127.524 1.74863 124.737 2.09689 121.95C2.44515 119.162 5.23127 117.072 8.01734 117.768C11.1517 118.117 12.8928 120.904 12.1963 123.692Z" fill="#5C5C5C"/>
<path fill-rule="evenodd" clip-rule="evenodd" d="M39.013 131.357C37.9682 134.145 35.1823 135.539 32.3963 134.493C29.6102 133.448 28.2171 130.661 29.2619 127.873C29.9584 125.086 33.0928 123.692 35.8788 124.389C38.3166 125.782 40.0577 128.57 39.013 131.357Z" fill="#5C5C5C"/>
<path fill-rule="evenodd" clip-rule="evenodd" d="M64.437 142.507C63.044 144.946 59.9097 145.991 57.4719 144.946C55.0341 143.552 53.9895 140.765 55.0343 137.977C56.0791 135.538 59.5616 134.144 61.9994 135.538C64.7854 136.932 65.83 140.068 64.437 142.507Z" fill="#5C5C5C"/>
<path fill-rule="evenodd" clip-rule="evenodd" d="M88.118 157.141C86.3767 159.58 83.2423 159.928 80.8045 158.534C78.3667 157.141 77.6704 153.656 79.4116 151.217C80.8047 148.778 84.2871 148.082 86.7249 149.824C89.1627 151.217 89.8593 154.702 88.118 157.141Z" fill="#5C5C5C"/>
<path fill-rule="evenodd" clip-rule="evenodd" d="M109.71 174.562C107.62 176.653 104.486 176.653 102.397 174.911C100.307 173.169 99.9589 169.684 102.048 167.594C103.79 165.503 107.272 165.155 109.362 167.245C111.451 168.987 111.799 172.472 109.71 174.562Z" fill="#5C5C5C"/>
<path fill-rule="evenodd" clip-rule="evenodd" d="M128.864 194.423C126.774 196.165 123.292 196.165 121.551 194.074C119.809 191.984 119.809 188.499 121.899 186.757C123.988 184.667 127.471 185.015 129.212 187.106C131.302 189.545 130.953 192.68 128.864 194.423Z" fill="#5C5C5C"/>
<path fill-rule="evenodd" clip-rule="evenodd" d="M144.883 217.07C142.445 218.464 139.311 217.767 137.57 215.677C136.177 213.238 136.525 210.102 138.963 208.36C141.401 206.617 144.535 207.314 146.276 209.753C148.017 212.192 147.321 215.677 144.883 217.07Z" fill="#5C5C5C"/>
<path fill-rule="evenodd" clip-rule="evenodd" d="M158.117 241.46C155.331 242.505 152.544 241.46 151.151 239.021C149.758 236.582 150.803 233.446 153.589 232.053C156.027 230.659 159.161 231.704 160.554 234.491C161.947 237.279 160.554 240.415 158.117 241.46Z" fill="#5C5C5C"/>
<path fill-rule="evenodd" clip-rule="evenodd" d="M167.868 267.592C165.081 268.289 162.296 266.895 161.251 264.108C160.206 261.321 161.947 258.533 164.385 257.488C167.171 256.443 169.957 257.836 171.002 260.972C172.047 263.76 170.654 266.895 167.868 267.592Z" fill="#5C5C5C"/>
<path fill-rule="evenodd" clip-rule="evenodd" d="M173.79 294.77C171.004 295.118 168.218 293.376 167.869 290.588C167.521 287.801 169.262 285.014 172.049 284.665C174.835 283.968 177.621 286.059 177.969 288.846C178.665 291.634 176.924 294.073 173.79 294.77Z" fill="#5C5C5C"/>
<path fill-rule="evenodd" clip-rule="evenodd" d="M176.23 322.295C173.444 322.295 171.006 320.205 171.006 317.417C171.006 314.63 173.095 312.191 175.881 311.842C178.667 311.494 181.454 313.933 181.454 316.72C181.454 319.856 179.016 322.295 176.23 322.295Z" fill="#5C5C5C"/>
<path fill-rule="evenodd" clip-rule="evenodd" d="M146.275 350.17C143.489 349.821 141.4 347.382 141.748 344.595C141.748 341.807 144.186 339.717 147.32 339.717C150.106 340.065 152.544 342.504 152.196 345.64C151.847 348.428 149.061 350.867 146.275 350.17Z" fill="#5C5C5C"/>
<path fill-rule="evenodd" clip-rule="evenodd" d="M140.355 377.695C137.569 376.999 135.827 373.863 136.524 371.424C137.22 368.636 140.006 366.894 142.792 367.591C145.578 368.288 147.32 371.075 146.623 373.863C146.275 376.999 143.141 378.741 140.355 377.695Z" fill="#5C5C5C"/>
<path fill-rule="evenodd" clip-rule="evenodd" d="M130.255 404.176C127.817 402.782 126.424 399.995 127.817 397.207C129.21 394.768 131.996 393.375 134.782 394.42C137.568 395.465 138.961 398.601 137.568 401.388C136.175 404.176 133.041 405.221 130.255 404.176Z" fill="#5C5C5C"/>
<path fill-rule="evenodd" clip-rule="evenodd" d="M116.324 428.566C115.279 427.869 114.583 426.475 114.234 425.43C113.886 424.036 114.234 422.643 114.931 421.597C116.324 419.158 119.458 418.462 121.896 419.855C124.334 421.249 125.03 424.733 123.637 427.172C122.941 428.566 121.548 429.263 120.503 429.611C119.11 429.611 117.717 429.263 116.324 428.566Z" fill="#5C5C5C"/>
<path fill-rule="evenodd" clip-rule="evenodd" d="M98.5649 450.168C96.4754 448.077 96.4752 444.942 98.2165 442.851C99.9578 440.76 103.44 440.76 105.53 442.503C107.62 444.245 107.968 447.729 105.878 449.82C104.137 451.91 100.654 452.259 98.5649 450.168Z" fill="#5C5C5C"/>
<path fill-rule="evenodd" clip-rule="evenodd" d="M77.6664 468.983C75.9252 466.544 76.2734 463.408 78.7112 461.666C80.8007 459.924 83.935 459.924 86.0245 462.363C87.7658 464.454 87.7657 467.938 85.3279 470.028C82.8901 471.771 79.4077 471.422 77.6664 468.983Z" fill="#5C5C5C"/>
<path fill-rule="evenodd" clip-rule="evenodd" d="M54.336 484.663C52.9429 482.224 53.6394 478.739 56.0772 477.346C58.515 475.952 61.6492 476.649 63.3904 479.088C64.7835 481.527 64.0869 484.663 61.6492 486.405C58.8632 487.798 55.729 487.102 54.336 484.663Z" fill="#5C5C5C"/>
<path fill-rule="evenodd" clip-rule="evenodd" d="M28.5656 495.812C27.5209 493.025 28.9139 490.237 31.6999 489.192C34.4859 488.147 37.2719 489.541 38.6649 492.328C39.7096 495.115 38.3166 497.903 35.5306 498.948C32.7446 499.993 29.6104 498.6 28.5656 495.812Z" fill="#5C5C5C"/>
<path fill-rule="evenodd" clip-rule="evenodd" d="M1.39964 503.129C0.703111 500.342 2.79275 497.903 5.57889 497.206C8.36502 496.509 11.1511 498.251 11.8476 501.039C12.5442 503.826 10.8028 506.614 7.6684 507.311C4.88227 508.007 2.09618 505.917 1.39964 503.129Z" fill="#5C5C5C"/>
<path fill-rule="evenodd" clip-rule="evenodd" d="M19.5099 155.05C18.8134 157.837 15.6792 159.58 13.2414 158.883C10.4553 158.186 8.7139 155.398 9.41041 152.611C10.1069 149.824 12.8929 148.082 15.679 148.778C18.8133 149.475 20.2065 152.263 19.5099 155.05Z" fill="#5C5C5C"/>
<path fill-rule="evenodd" clip-rule="evenodd" d="M45.6294 165.155C44.2364 167.594 41.4504 168.987 38.6643 167.594C36.2265 166.2 34.8335 163.413 35.8783 160.625C36.9231 157.838 40.0574 156.444 42.8434 157.838C45.6295 159.58 47.0225 162.716 45.6294 165.155Z" fill="#5C5C5C"/>
<path fill-rule="evenodd" clip-rule="evenodd" d="M70.0073 179.092C69.3107 180.137 67.9176 180.834 66.8729 181.182C65.4798 181.531 64.0869 181.182 63.0421 180.485C60.6043 179.092 59.9078 175.956 61.3008 173.517C62.6938 171.078 66.1763 170.381 68.6141 171.775C70.0072 172.472 70.7037 173.865 71.052 174.911C71.052 176.653 71.052 178.046 70.0073 179.092Z" fill="#5C5C5C"/>
<path fill-rule="evenodd" clip-rule="evenodd" d="M91.9467 197.21C89.8571 199.301 86.7229 199.301 84.6333 197.559C82.5437 195.816 82.5436 192.332 84.2849 190.242C86.0262 188.151 89.509 187.802 91.5985 189.893C93.6881 191.635 94.0363 195.12 91.9467 197.21Z" fill="#5C5C5C"/>
<path fill-rule="evenodd" clip-rule="evenodd" d="M110.752 217.767C108.314 219.509 105.18 219.161 103.439 216.722C101.698 214.631 101.698 211.495 104.135 209.405C106.225 207.663 109.707 207.663 111.797 210.102C113.538 212.889 112.842 216.025 110.752 217.767Z" fill="#5C5C5C"/>
<path fill-rule="evenodd" clip-rule="evenodd" d="M126.077 241.46C123.639 242.854 120.157 242.157 118.764 239.718C117.371 237.279 118.067 234.143 120.505 232.401C122.943 231.007 126.077 231.704 127.818 234.143C129.559 236.931 128.863 240.066 126.077 241.46Z" fill="#5C5C5C"/>
<path fill-rule="evenodd" clip-rule="evenodd" d="M137.568 267.244C134.782 268.289 131.996 266.895 130.951 264.108C129.907 261.321 131.3 258.533 134.086 257.14C136.872 256.094 139.658 257.488 140.702 260.275C141.399 263.063 140.006 266.199 137.568 267.244Z" fill="#5C5C5C"/>
<path fill-rule="evenodd" clip-rule="evenodd" d="M144.881 294.421C142.095 295.118 139.657 293.027 138.96 290.24C138.264 287.452 140.005 284.665 142.791 283.968C145.577 283.271 148.363 285.014 149.06 288.149C149.756 290.937 147.667 293.724 144.881 294.421Z" fill="#5C5C5C"/>
<path fill-rule="evenodd" clip-rule="evenodd" d="M147.668 322.296C144.882 322.296 142.444 320.205 142.096 317.418C142.096 314.63 144.185 312.191 146.971 311.843C149.757 311.494 152.195 313.933 152.544 316.721C152.892 319.856 150.454 322.296 147.668 322.296Z" fill="#5C5C5C"/>
<path fill-rule="evenodd" clip-rule="evenodd" d="M117.377 350.174C114.591 349.826 112.501 347.038 112.849 344.251C113.546 341.463 115.635 339.373 118.422 339.721C121.208 340.07 123.646 342.509 122.949 345.645C122.949 348.432 120.163 350.523 117.377 350.174Z" fill="#5C5C5C"/>
<path fill-rule="evenodd" clip-rule="evenodd" d="M110.756 376.998C107.97 375.953 106.577 373.166 107.621 370.378C108.318 367.591 111.104 366.197 113.89 366.894C116.676 367.591 118.417 370.727 117.721 373.514C116.328 376.302 113.542 378.044 110.756 376.998Z" fill="#5C5C5C"/>
<path fill-rule="evenodd" clip-rule="evenodd" d="M99.2627 402.085C96.8249 400.691 96.1285 397.555 97.1733 395.116C98.2181 392.677 101.352 391.632 104.138 393.026C106.576 394.42 107.621 397.555 106.576 400.343C105.183 402.782 101.701 403.827 99.2627 402.085Z" fill="#5C5C5C"/>
<path fill-rule="evenodd" clip-rule="evenodd" d="M83.2411 425.081C81.1516 422.991 80.8033 420.203 82.5446 417.764C84.2859 415.674 87.4203 414.977 89.8581 416.719C92.2959 418.461 92.6442 421.597 90.9029 424.036C88.8133 426.824 85.3307 426.824 83.2411 425.081Z" fill="#5C5C5C"/>
<path fill-rule="evenodd" clip-rule="evenodd" d="M63.0425 444.245C61.9977 443.2 61.6495 441.806 61.9978 440.412C61.9978 439.018 62.6943 437.625 63.739 436.928C65.8285 435.186 68.9627 435.186 71.0522 437.276C73.1417 439.367 72.7935 442.851 70.704 444.593C69.6593 445.639 68.2662 445.987 66.8732 445.987C65.4802 445.987 64.0872 445.639 63.0425 444.245Z" fill="#5C5C5C"/>
<path fill-rule="evenodd" clip-rule="evenodd" d="M40.0581 459.924C38.6651 457.485 39.7099 454.001 41.7994 452.607C44.2373 451.213 47.3716 451.91 48.7647 454.349C50.1577 456.788 49.4612 459.924 47.0234 461.666C44.5855 463.06 41.4512 462.363 40.0581 459.924Z" fill="#5C5C5C"/>
<path fill-rule="evenodd" clip-rule="evenodd" d="M14.6363 470.725C13.9398 467.938 15.3329 464.802 17.7707 464.105C20.2084 463.06 23.3426 464.454 24.3873 467.241C25.4321 470.029 24.0392 472.816 21.2532 473.861C18.4672 474.907 15.3328 473.513 14.6363 470.725Z" fill="#5C5C5C"/>
<path fill-rule="evenodd" clip-rule="evenodd" d="M5.23229 180.834C4.53577 183.621 1.7497 185.363 -1.03641 184.666C-3.82251 183.969 -5.56387 181.53 -5.21561 178.743C-4.86735 175.956 -2.08107 173.865 1.0533 174.562C4.18767 175.259 5.92882 178.046 5.23229 180.834Z" fill="#5C5C5C"/>
<path fill-rule="evenodd" clip-rule="evenodd" d="M31.7007 190.241C30.3076 193.029 27.5213 194.074 25.0834 192.68C22.6455 191.635 21.2525 188.848 22.2973 186.06C23.3421 183.273 26.4765 181.879 29.2627 182.924C31.7006 184.318 32.7455 187.454 31.7007 190.241Z" fill="#5C5C5C"/>
<path fill-rule="evenodd" clip-rule="evenodd" d="M55.7275 204.178C53.9862 206.617 50.852 206.966 48.4142 205.572C45.9764 204.178 45.2798 201.043 46.6729 198.604C48.0659 196.165 51.5484 195.468 53.9862 196.861C56.7722 198.255 57.1205 201.739 55.7275 204.178Z" fill="#5C5C5C"/>
<path fill-rule="evenodd" clip-rule="evenodd" d="M76.6269 221.948C74.5374 224.038 71.4033 223.69 69.3138 221.948C67.2243 220.206 67.2244 216.721 68.9656 214.631C70.7069 212.54 74.1893 212.192 76.2788 214.282C79.0648 216.721 78.7164 220.206 76.6269 221.948Z" fill="#5C5C5C"/>
<path fill-rule="evenodd" clip-rule="evenodd" d="M94.3864 243.551C91.9486 244.944 88.8141 244.596 87.0728 242.505C85.3315 240.415 86.0282 236.931 88.1178 235.188C90.5556 233.446 93.6899 233.795 95.4312 236.234C97.1725 238.673 96.8243 242.157 94.3864 243.551Z" fill="#5C5C5C"/>
<path fill-rule="evenodd" clip-rule="evenodd" d="M107.62 268.289C104.833 269.334 101.699 268.289 100.654 265.85C99.6096 263.411 100.654 260.275 103.092 258.881C105.53 257.488 108.664 258.533 110.057 261.321C111.102 264.108 110.057 266.895 107.62 268.289Z" fill="#5C5C5C"/>
<path fill-rule="evenodd" clip-rule="evenodd" d="M115.979 294.769C113.193 295.466 110.407 293.724 109.71 290.937C109.014 288.149 110.755 285.362 113.541 284.665C116.327 283.968 119.113 285.362 119.81 288.498C120.506 291.285 118.765 294.073 115.979 294.769Z" fill="#5C5C5C"/>
<path fill-rule="evenodd" clip-rule="evenodd" d="M119.113 322.3C116.327 322.3 113.889 320.209 113.541 317.422C113.541 314.634 115.63 312.195 118.416 311.847C121.202 311.499 123.64 313.589 123.988 316.725C124.337 319.861 121.899 322.3 119.113 322.3Z" fill="#5C5C5C"/>
<path fill-rule="evenodd" clip-rule="evenodd" d="M88.8133 349.821C86.0273 349.124 83.9378 346.685 84.286 343.898C84.6343 341.111 87.4204 339.368 90.2064 339.717C92.9925 340.065 95.082 342.504 94.7337 345.64C94.0372 348.428 91.5994 350.17 88.8133 349.821Z" fill="#5C5C5C"/>
<path fill-rule="evenodd" clip-rule="evenodd" d="M80.8034 375.953C79.4104 375.256 78.7139 374.211 78.0174 373.166C77.3209 372.12 77.321 370.727 77.6692 369.333C78.714 366.894 81.4999 365.5 84.286 366.546C87.072 367.591 88.4651 370.378 87.4204 373.166C87.0721 374.559 86.0274 375.605 84.6344 376.302C83.5896 376.302 81.8482 376.302 80.8034 375.953Z" fill="#5C5C5C"/>
<path fill-rule="evenodd" clip-rule="evenodd" d="M66.8747 399.298C64.4369 397.556 64.0888 394.42 65.4818 392.329C66.8748 389.89 70.0091 389.542 72.4469 390.936C74.8847 392.329 75.5812 395.814 74.1882 398.253C72.4469 400.691 69.3125 401.04 66.8747 399.298Z" fill="#5C5C5C"/>
<path fill-rule="evenodd" clip-rule="evenodd" d="M48.4149 419.507C46.6736 417.416 46.6735 413.932 48.763 412.19C50.8526 410.447 53.987 410.447 56.0766 412.538C58.1661 414.629 58.1661 417.765 56.0766 419.855C53.6388 421.946 50.1562 421.597 48.4149 419.507Z" fill="#5C5C5C"/>
<path fill-rule="evenodd" clip-rule="evenodd" d="M25.7808 434.838C24.3878 432.399 25.4325 429.263 27.522 427.869C29.9598 426.475 33.0941 427.172 34.4871 429.611C36.2284 432.05 35.1836 435.186 32.7458 436.928C30.3081 438.67 27.1738 437.625 25.7808 434.838Z" fill="#5C5C5C"/>
<path fill-rule="evenodd" clip-rule="evenodd" d="M0.356209 444.942C-0.340316 442.154 1.05273 439.367 3.83884 438.67C6.27667 437.625 9.06273 439.018 10.1075 441.806C11.1523 444.593 9.75917 447.381 6.97307 448.426C4.18697 449.471 1.05273 447.729 0.356209 444.942Z" fill="#5C5C5C"/>
<path fill-rule="evenodd" clip-rule="evenodd" d="M17.421 214.98C16.7245 216.373 15.6797 217.07 14.6349 217.767C13.5901 218.464 12.1971 218.464 10.8041 218.116C8.3662 217.07 6.97317 214.283 8.01797 211.496C9.06277 208.708 11.8488 207.314 14.6349 208.36C16.028 208.708 17.0728 209.753 17.7694 211.147C18.1176 212.192 18.1175 213.586 17.421 214.98Z" fill="#5C5C5C"/>
<path fill-rule="evenodd" clip-rule="evenodd" d="M41.1028 228.568C39.3615 231.007 36.2271 231.356 34.1376 229.962C31.6997 228.568 31.3514 225.433 32.7444 222.994C34.1375 220.555 37.62 219.858 40.0578 221.251C42.1474 222.994 42.8441 226.478 41.1028 228.568Z" fill="#5C5C5C"/>
<path fill-rule="evenodd" clip-rule="evenodd" d="M61.3015 247.384C59.212 249.126 55.7293 249.126 53.988 247.035C52.2467 244.945 52.2468 241.809 54.3364 239.718C56.4259 237.628 59.5601 237.628 61.6497 239.718C63.391 242.157 63.391 245.293 61.3015 247.384Z" fill="#5C5C5C"/>
<path fill-rule="evenodd" clip-rule="evenodd" d="M76.6243 269.683C74.1865 271.077 71.0522 270.031 69.6592 267.941C68.2662 265.502 68.9627 262.366 71.4005 260.972C73.8382 259.23 76.9726 260.275 78.7139 262.714C80.1069 265.153 79.4103 268.638 76.6243 269.683Z" fill="#5C5C5C"/>
<path fill-rule="evenodd" clip-rule="evenodd" d="M86.7258 295.466C83.9397 296.163 81.1538 294.769 80.4572 291.982C79.4125 289.543 80.8054 286.756 83.5914 285.71C86.3774 284.665 89.1636 286.059 90.2083 288.846C90.9048 291.634 89.5118 294.769 86.7258 295.466Z" fill="#5C5C5C"/>
<path fill-rule="evenodd" clip-rule="evenodd" d="M90.5574 322.297C87.7713 322.297 85.3336 320.207 84.9854 317.419C84.9854 314.632 86.7267 312.193 89.861 311.844C92.6471 311.496 95.4331 313.586 95.4331 316.374C95.7813 319.858 93.6917 322.297 90.5574 322.297Z" fill="#5C5C5C"/>
<path fill-rule="evenodd" clip-rule="evenodd" d="M59.5616 350.17C56.7756 349.473 55.0342 346.685 55.7307 343.898C56.079 341.111 58.865 339.368 61.6511 339.717C64.4371 340.065 66.5267 342.853 65.8302 345.988C65.1337 349.124 61.9994 350.866 59.5616 350.17Z" fill="#5C5C5C"/>
<path fill-rule="evenodd" clip-rule="evenodd" d="M48.4151 375.605C45.9773 374.211 45.2809 371.075 46.3256 368.636C47.3704 366.197 50.5047 365.152 53.2907 366.546C56.0768 367.591 57.1214 371.075 55.7284 373.862C54.3353 376.301 50.8529 377.347 48.4151 375.605Z" fill="#5C5C5C"/>
<path fill-rule="evenodd" clip-rule="evenodd" d="M30.6551 397.207C28.9138 395.117 28.9137 391.633 31.0033 389.89C32.7446 387.8 36.2272 387.8 38.3168 389.89C40.4064 391.633 40.4064 395.117 38.3168 397.556C35.8789 399.298 32.3964 399.298 30.6551 397.207Z" fill="#5C5C5C"/>
<path fill-rule="evenodd" clip-rule="evenodd" d="M7.32138 412.19C6.2766 409.402 7.32142 406.615 9.75922 405.221C12.197 404.176 15.3313 404.873 16.7244 407.312C18.1174 409.751 17.4208 413.235 14.6347 414.629C11.5004 416.022 8.36615 414.977 7.32138 412.19Z" fill="#5C5C5C"/>
<path fill-rule="evenodd" clip-rule="evenodd" d="M23.3417 250.868C21.6004 253.307 18.4662 253.655 16.0284 252.262C13.5906 250.868 12.8941 247.732 14.2871 245.293C15.6801 242.854 18.8143 242.157 21.6004 243.551C24.3864 245.293 25.0829 248.777 23.3417 250.868Z" fill="#5C5C5C"/>
<path fill-rule="evenodd" clip-rule="evenodd" d="M43.1912 270.38C40.7534 272.122 37.6191 271.773 35.8778 269.683C34.1365 267.592 34.1364 264.456 36.2259 262.366C38.3155 260.275 41.7982 260.624 43.8878 262.714C45.9774 265.153 45.6291 268.638 43.1912 270.38Z" fill="#5C5C5C"/>
<path fill-rule="evenodd" clip-rule="evenodd" d="M56.4274 294.77C53.6414 295.815 50.8554 294.421 49.8107 291.982C48.7659 289.543 49.8105 286.407 52.2483 285.014C54.6861 283.62 57.8204 285.014 59.2134 287.801C60.6065 290.937 59.2135 294.073 56.4274 294.77Z" fill="#5C5C5C"/>
<path fill-rule="evenodd" clip-rule="evenodd" d="M61.998 322.295C59.2119 322.295 56.7739 320.205 56.4257 317.766C56.0774 314.978 58.1669 312.539 60.953 312.191C63.7391 311.843 66.5252 313.933 66.8735 316.72C67.2218 319.508 65.1323 322.295 61.998 322.295Z" fill="#5C5C5C"/>
<path fill-rule="evenodd" clip-rule="evenodd" d="M29.9589 349.124C27.1728 348.079 25.7798 345.292 26.4763 342.853C27.1728 340.414 29.9588 338.671 32.7449 339.368C35.5309 339.717 37.2721 342.853 36.5756 345.64C35.8791 348.776 32.3967 350.17 29.9589 349.124Z" fill="#5C5C5C"/>
<path fill-rule="evenodd" clip-rule="evenodd" d="M15.6795 372.121C13.5899 370.03 13.2418 366.894 14.9832 365.152C16.3762 363.061 19.8589 362.713 21.9485 364.455C24.3864 366.197 24.7346 369.333 22.9932 371.772C20.9036 373.863 17.7691 374.211 15.6795 372.121Z" fill="#5C5C5C"/>
<path fill-rule="evenodd" clip-rule="evenodd" d="M-6.95694 387.452C-8.00171 384.664 -6.9569 381.877 -4.51911 380.483C-2.08132 379.438 0.704728 380.134 2.44601 382.573C3.83903 385.012 3.1426 388.497 0.356557 389.891C-2.77775 391.284 -5.91218 390.239 -6.95694 387.452Z" fill="#5C5C5C"/>
<path fill-rule="evenodd" clip-rule="evenodd" d="M8.71342 275.606C6.97219 278.045 3.83796 278.394 1.74847 277C-0.341011 275.606 -1.03738 272.47 0.355612 270.031C1.7486 267.592 4.88274 266.547 7.66872 268.289C10.1065 270.031 10.4547 273.516 8.71342 275.606Z" fill="#5C5C5C"/>
<path fill-rule="evenodd" clip-rule="evenodd" d="M26.1254 296.512C23.6876 297.906 20.5533 297.209 19.1603 294.77C17.7672 292.679 18.4638 289.543 20.5534 287.801C22.6429 286.059 26.4737 286.407 27.8667 289.195C29.608 291.634 28.9115 295.118 26.1254 296.512Z" fill="#5C5C5C"/>
<path fill-rule="evenodd" clip-rule="evenodd" d="M33.4411 322.295C30.6551 322.295 28.2172 320.553 27.869 318.114C27.5207 316.72 28.2174 315.675 28.9139 314.63C29.6104 313.585 30.655 312.888 32.048 312.539C33.441 312.191 34.8342 312.539 35.8789 313.236C36.9237 313.933 37.6201 315.327 37.9683 316.72C38.6648 319.508 36.5754 322.295 33.4411 322.295Z" fill="#5C5C5C"/>
<path fill-rule="evenodd" clip-rule="evenodd" d="M-2.08045 349.124C-4.17001 347.382 -4.86653 344.246 -3.82175 342.156C-3.12523 341.111 -2.08049 340.414 -1.03571 339.717C0.00907564 339.368 1.40225 339.02 2.79529 339.717C4.18833 340.065 5.23307 341.11 5.58134 342.504C5.9296 343.898 5.92947 345.64 5.23295 347.034C3.49164 350.17 0.00911808 350.866 -2.08045 349.124Z" fill="#5C5C5C"/>
<path fill-rule="evenodd" clip-rule="evenodd" d="M4.88352 322.295C2.09743 322.644 -0.688621 320.902 -1.38514 318.463C-2.08167 316.024 -0.688749 313.236 1.74908 311.842C4.53518 310.449 7.66953 312.191 8.71432 315.327C9.7591 318.811 7.66962 321.947 4.88352 322.295Z" fill="#5C5C5C"/>
</g>
</svg>
